<svg id="Layer_1" data-name="Layer 1" xmlns="http://www.w3.org/2000/svg" viewBox="0 0 475.08 383.47"><defs><style>.cls-1{fill:#ff5244;}.cls-2{fill:#ff6356;}.cls-3{fill:#fff;}</style></defs><title>Crush_Map</title><path class="cls-1" d="M792.18,588.35c-30.44-14.85-62.86-25.34-94.71-37.17-52.31-19.42-102-43.42-147.38-75.21-12-8.39-23.16-17.57-32.61-28.56-3.66-4.25-7-8.72-9-13.94-3.68-9.66-.91-17.45,8.26-22.92,6.64-4,14.08-5.61,21.75-6.62,17.27-2.27,34.5-1.07,51.65.89,45.46,5.21,90.22,14.47,135.31,21.79,24,3.9,48,7.92,71.83,13.07,1.58.34,3.22.77,5.07-.26.45-7.05.54-14.35,1.45-21.56a142.71,142.71,0,0,1,12.44-42.07,269.22,269.22,0,0,1,83.08-103.45,95.51,95.51,0,0,1,16.57-10.15,37.72,37.72,0,0,1,12.46-3.81c9.33-.92,16,3.82,17.8,12.56,1.18,5.76.4,11.44-.92,17.08-2.51,10.76-6.82,20.92-11.65,30.89-13.37,27.52-29.32,53.72-44.91,80.11-35,59.2-67.29,119.62-92.8,183.18C795,584.32,794.72,586.83,792.18,588.35Z" transform="translate(-506.92 -258.26)"/><path class="cls-2" d="M956,474.13c-4-2.77-8.94-3.44-13.56-4.8-5-1.46-10-2.72-15-4.24-1.59-.49-2.88-1.68-2.68-3.52a3.54,3.54,0,0,1,2.44-2.91c1.77-.68,3.6-1.23,5.43-1.79,7.3-2.24,14.64-4.39,21.9-6.74,2.53-.81,5.42-1.16,7.08-3.6-.73-2.54-3-1.86-4.74-1.94-10.14-.48-20.28-.78-30.41-1.25-2.6-.12-6.52.4-6.44-3.1s4-2.81,6.55-2.71c15.61.58,31.22,1.21,46.83,2,3.38.17,8.1-.33,8.55,4.18s-4.34,4.8-7.5,5.94c-7.94,2.87-16,5.43-24,8.22-2.48.87-5.42,1-7.1,3.61.86,2.77,3.66,2.72,5.83,3.42,5.44,1.76,11,3.26,16,6,2.48,1.32,4.75,2.92,4,6.09-.61,2.75-3.09,3.4-5.56,4-7.23,1.6-14.65.91-21.88,1.34-1,3,1.5,3.34,2.89,4.21,7.09,4.46,14.36,8.71,20.5,14.36,2.88,2.65,6.68,5.24,4.88,9.9-1.16,3-5.17,3.4-12,1.4-7.88-2.31-15.27-5.76-22.78-9-11.5-4.91-23.08-9.66-34.63-14.48a41.07,41.07,0,0,1-10-5.4c-.81-.64-1.76-1.42-1-2.61a2.44,2.44,0,0,1,2.85-1,91.57,91.57,0,0,1,10.15,3.09c13.09,5.36,26.1,10.89,39.14,16.37a25.55,25.55,0,0,0,3.75,1.59c2.64.62,6,4.26,7.77.9,1.51-2.86-3-4.3-5.37-5.86-4.71-3.14-9.74-5.86-14.36-9.12-3.06-2.17-8.83-3.47-7-8.3,1.61-4.16,6.78-2.11,10.41-2.24,6.18-.21,12.36-.06,18.55-.06Zm.87,28.5c-.18.17-.54.39-.51.52a4.83,4.83,0,0,0,.51,1.05c.18-.18.55-.39.52-.52A5.13,5.13,0,0,0,956.85,502.63Z" transform="translate(-506.92 -258.26)"/><path class="cls-2" d="M621.21,603.33c-4.41,2.56-8.79,5.16-13.23,7.66a32.34,32.34,0,0,1-5.16,2.33c-2.39.85-4.87,1.15-6.73-1-1.57-1.85-1.18-4-.27-5.91,2.12-4.54,5.48-8.34,8.46-12.37,1.87-2.53,4.54-4.52,5.72-7.52.5-.54,1.2-1.17.36-1.82s-1.51-.16-2.18.35c-10.83,2.79-21.63,5.7-32.51,8.29-3.21.77-7.5,3.07-9.59-1s2.26-6,4.9-8c12.3-9.14,24.77-18.08,37.18-27.1a7.91,7.91,0,0,1,.68-.44c2.06-1.14,4.4-3.3,6.37-.51,1.66,2.35-.94,3.71-2.62,4.94-7.82,5.71-15.72,11.34-23.51,17.08-2.05,1.52-4.77,2.62-5.3,5.92,6.46.34,12-2.29,17.68-3.71,5.55-1.38,11-3.29,16.43-5,2.15-.66,4.43-1.23,6,.83s.18,4-1.23,5.61c-4.3,5.07-8.66,10.1-12.94,15.19-1.35,1.6-3,3.1-3.05,5.44,1.9,2,3.52.32,4.92-.6,5-3.24,9.8-6.67,14.71-10,1.79-1.22,3.71-2.64,6-1.26,2.67,1.62,2,4.13,1.14,6.33-2.71,6.83-5.65,13.57-8.4,20.39-1,2.57-2.91,5.09-1.24,8.23,4.23-.27,4.92-3.87,6.51-6.3,8.41-12.83,16.56-25.81,24.94-38.66,2.22-3.41,4.37-7.1,9.13-8.69,1.59,3.63-.31,6.18-1.73,8.44-11.39,18.12-22.55,36.37-34.88,53.95a31,31,0,0,1-4.9,5.23c-1.84,1.63-4,2.93-6.65,1.51s-3-3.65-2.74-6.07c.31-2.58.93-5.13,1.48-7.68,1.67-7.71,5.8-14.61,8-22.13.57-.84,1.11-1.78.12-2.53C622.83,602.5,621.87,603.11,621.21,603.33Zm3.14,23.93-1.29-1a6.18,6.18,0,0,0-1.16,1.83.86.86,0,0,0,1.26,1C623.74,628.76,624,627.88,624.35,627.26Z" transform="translate(-506.92 -258.26)"/><path class="cls-3" d="M956.85,502.63a5.13,5.13,0,0,1,.52,1.05c0,.13-.34.34-.52.52a4.83,4.83,0,0,1-.51-1.05C956.31,503,956.67,502.8,956.85,502.63Z" transform="translate(-506.92 -258.26)"/><path class="cls-3" d="M624.35,627.26c-.38.62-.61,1.5-1.19,1.82a.86.86,0,0,1-1.26-1,6.18,6.18,0,0,1,1.16-1.83Z" transform="translate(-506.92 -258.26)"/><path class="cls-3" d="M608.18,585c.67-.51,1.49-.88,2.18-.35s.14,1.28-.36,1.82Z" transform="translate(-506.92 -258.26)"/><path class="cls-3" d="M621.21,603.33c.66-.22,1.62-.83,1.91-.61,1,.75.45,1.69-.12,2.53Z" transform="translate(-506.92 -258.26)"/></svg>