<svg id="Layer_1" data-name="Layer 1" xmlns="http://www.w3.org/2000/svg" viewBox="0 0 558.73 741.64"><defs><style>.cls-1{fill:#020202;}.cls-2{fill:#121010;}</style></defs><title>Library_Smells</title><path class="cls-1" d="M634.64,224a45.52,45.52,0,0,1-6.4,24.39,43.67,43.67,0,0,1-14.14,14.47c-9.73,6.29-20.4,10.12-32,10.58-16.84.66-31.19-5.14-42.2-18.18-9.46-11.2-13.09-24-9.89-38.47.65-3,2.14-5.55,3.46-8.2,4.63-9.28,11.77-16.2,20.46-21.68,5.71-3.6,12.15-5,18.6-5.56a85.28,85.28,0,0,1,42.33,7.47c11.9,5.34,18.08,15.06,19.36,27.94C634.49,219.17,634.51,221.6,634.64,224Z" transform="translate(-483.87 -61.85)"/><path class="cls-1" d="M665.73,454.65c8.61-1.11,16,2.54,23.56,6,10.3,4.74,19.82,10.59,26.9,19.67,5,6.46,8.82,13.6,9.18,22,.44,10.47-6.17,19.66-16.67,23.87-12.16,4.87-24.46,4.32-36.82,1-10-2.7-19.19-7-26.61-14.5-11.22-11.32-15.39-27.32-8.72-41.91,4.44-9.7,12-15.67,23.17-16.15C661.7,454.58,663.7,454.65,665.73,454.65Z" transform="translate(-483.87 -61.85)"/><path class="cls-2" d="M489.45,231.16c.27,13.75,1.7,26.59,5.54,39,3.32,10.76,7.68,21.15,14.21,30.36,13.87,19.54,32.63,32.11,55.9,37.84a179.73,179.73,0,0,0,41.83,5.14c5.57,0,11.09-.34,16.23-2.84.78-.38,1.76-.81,2.28.05s-.34,1.56-1.07,2a32,32,0,0,1-7.75,3.47,67.33,67.33,0,0,1-19.46,2c-17.59-.68-34.75-3.56-51-10.61a97.11,97.11,0,0,1-26.06-16.7c-14.87-13.21-24.25-29.69-30.09-48.58-7.38-23.86-7.9-47.86-2.44-72a119,119,0,0,1,14.71-36.16c9.32-15.14,22-26.93,37.1-36.33a126,126,0,0,1,31.24-14.41c25-7.35,49.4-6.11,72.9,5.93a138.38,138.38,0,0,1,38,29.12,20.69,20.69,0,0,1,3.57,5.29c.56,1.21.89,2.55-.34,3.5s-2.42.36-3.4-.62c-.61-.6-1.2-1.21-1.75-1.86C663.5,135.63,643.85,122,619.41,116c-14.1-3.45-28.26-2.5-42.26,1-16.09,4-30.44,11.51-43.73,21.32a100.35,100.35,0,0,0-30.79,36.4,118.48,118.48,0,0,0-11.72,37.69C490.07,218.85,489.73,225.37,489.45,231.16Z" transform="translate(-483.87 -61.85)"/><path class="cls-2" d="M925.59,748.75c-.25,1.82.62,4-.84,4.28-2,.33-1.62-2.14-2.15-3.45-4.87-12-7.92-24.58-12.29-36.73A192.21,192.21,0,0,0,894.37,679c-12.08-20.16-29.38-34.21-51.22-43-18.69-7.52-38.11-11.11-58.06-12.54-34.86-2.51-68.92,2.14-102.46,11.43A246.79,246.79,0,0,0,637.27,652c-12.84,6.47-25,14-35.51,24a59.71,59.71,0,0,0-7.15,9c-.88,1.24-1.75,2.47-3.41,1.66-1.81-.89-1.52-2.55-.94-4.09a18.4,18.4,0,0,1,3.35-5.42,92.4,92.4,0,0,1,16-14.64c23.23-16.9,49.52-26.94,77-34.22a308.55,308.55,0,0,1,85.18-10.77c22.14.41,44,3.12,65,10.31,16,5.46,30.79,13.22,43.34,24.73a97.1,97.1,0,0,1,15,17.38,180.11,180.11,0,0,1,17,32.34,233.32,233.32,0,0,1,11.94,36.79C924.82,742.42,925.14,745.83,925.59,748.75Z" transform="translate(-483.87 -61.85)"/><path class="cls-1" d="M866.62,521.15c-7.86-.08-14.64-.33-21.25-2.41a22.29,22.29,0,0,1-9.69-6.7c-3.45-3.78-3-9.09.61-13.12a26.39,26.39,0,0,1,12.59-7.65c16.56-4.7,33.4-6.73,50.57-4.29,5.09.72,10,2,14,5.6s4.41,8.19.86,12.3c-3.81,4.4-8.67,7.26-13.87,9.63C889.39,519.54,877.64,521.14,866.62,521.15Z" transform="translate(-483.87 -61.85)"/><path class="cls-2" d="M669.69,731.89c8.51-.43,17-.69,25.54-1.33,19.09-1.42,36.92,2.83,54,11.21a156.64,156.64,0,0,1,31.44,20.16,5.53,5.53,0,0,1,1,.82,1.69,1.69,0,0,1,.36,1.13c-.13.7-.77.69-1.36.68a9.7,9.7,0,0,1-4-1.26,144.7,144.7,0,0,1-14.8-8.39,139.92,139.92,0,0,0-33.45-15.62,85.36,85.36,0,0,0-28.62-3.57c-11.78.44-23.56,1.11-35.34,1.67-16.07.75-32.12.69-48-2a76.55,76.55,0,0,1-20.73-6.18,28.87,28.87,0,0,1-16-28.25,7.76,7.76,0,0,1,.36-2.09,2.74,2.74,0,0,1,3-1.91c1.6.14,2,1.33,2,2.74,0,.57-.06,1.14-.08,1.7-.41,13,6,21.06,18,25.28,9,3.19,18.46,4.48,28,5.26,6.52.54,13.05.67,19.59.62s12.79,0,19.18,0Z" transform="translate(-483.87 -61.85)"/><path class="cls-2" d="M867.07,803.49c-16.75-.75-35.36-4.19-52.89-12.33a75.8,75.8,0,0,1-20.56-14.25c-1.1-1.06-2-2.29-.88-3.71s2.76-1.26,4.15-.16,2.55,2.24,3.86,3.33c9.31,7.78,20,12.83,31.63,16.07,12.78,3.56,25.73,6,39.07,5.78A93.08,93.08,0,0,0,901.11,793c9.29-3.29,16.35-9.5,22.17-17.27a22.6,22.6,0,0,1,4-4.44,2.21,2.21,0,0,1,2.74-.43,2.14,2.14,0,0,1,.71,2.66,9.62,9.62,0,0,1-1.08,2.76C922.47,786.8,913.31,794.7,901,798.6,890.73,801.85,880.24,803.39,867.07,803.49Z" transform="translate(-483.87 -61.85)"/><path class="cls-2" d="M941.66,203.68c-16.28.14-29.76,4.68-40.72,15.69-1.64,1.64-3.16,3.23-3.8,5.5-.48,1.71-1.41,2.86-3.39,2.19s-2-2.21-1.71-3.85a6.13,6.13,0,0,1,1.35-2.6c7-10,16.86-15.86,28.22-19.39,10.66-3.3,21.58-3.16,32.52-1.69,21.64,2.9,40.74,11.64,57.94,25,3.52,2.72,6.42,6,9.53,9.07a13.55,13.55,0,0,1,2.38,3.52c.45.88,1.74,2,.48,2.93-1,.78-1.71-.51-2.43-1.11a231.14,231.14,0,0,0-25.75-18.81A107.74,107.74,0,0,0,941.66,203.68Z" transform="translate(-483.87 -61.85)"/><path class="cls-2" d="M711,290.89a253.53,253.53,0,0,1-8.16,60.46,246.74,246.74,0,0,1-12.91,36.93c-1.42,3.29-3.55,6.13-5.27,9.23-.41.73-1.06,1.56-2,1.2-1.32-.5-.81-1.61-.5-2.54,1.95-5.78,3.32-11.73,5.89-17.31,1.54-3.34,2.4-7,3.67-10.45a232.4,232.4,0,0,0,13-61,175.45,175.45,0,0,0-.23-34.9c-.08-.71-.17-1.41-.22-2.12-.12-1.55.16-3,2-3.23a2.84,2.84,0,0,1,3.13,2.33,31.6,31.6,0,0,1,.85,5.47C710.61,280.73,711.12,286.54,711,290.89Z" transform="translate(-483.87 -61.85)"/><path class="cls-2" d="M857.8,392.69c0,1.36-.2,2.57-1.49,2.94-1.63.47-2.3-.75-2.72-2a54.77,54.77,0,0,1-1.54-5.32c-4.14-18.63-5.95-37.59-7.86-56.55-1.68-16.71-2.89-33.42-3.08-50.21,0-2-1.13-3.82-.66-5.89.41-1.8,1-3.39,3.16-3.33s2.82,1.66,2.94,3.5.07,3.41.08,5.12a573.25,573.25,0,0,0,3.67,58.73c1.86,17.1,4.34,34.12,7.2,51.09C857.62,391.45,857.72,392.15,857.8,392.69Z" transform="translate(-483.87 -61.85)"/><path class="cls-2" d="M937.3,282.19c-12,.24-22.9-3.51-33.42-8.77a63.17,63.17,0,0,1-11-7.2,11.67,11.67,0,0,1-3.87-5c-.54-1.45-.47-2.88,1-3.72s2.51.09,3.35,1.06c11,12.61,25.6,17.25,41.56,18.37,10.25.72,20.34-1.57,30.45-3.05,8.14-1.2,16.21-3,24.46-3.32,2-.08,4,0,6,0,.57,0,1.23.23,1.37.8.2.81-.38,1.35-1.11,1.56a88.32,88.32,0,0,1-10.25,2.79c-13.73,2.23-27.42,4.71-41.28,6.06C942.13,282.06,939.71,282.08,937.3,282.19Z" transform="translate(-483.87 -61.85)"/><path class="cls-2" d="M603.88,466.3c-3.5,1-5.18-.31-6.4-2.06-1.79-2.56-3.33-5.33-3.38-8.59-.21-15.25,4.68-28.34,16.3-38.62,4.64-4.1,9.61-7.47,15.73-8.95,8.2-2,15.5,0,21.94,5.16,2.4,1.94,4.79,4,6.26,6.88,1.29,2.49,1.26,4.14-.1,5s-3,.1-4.36-2.21a21.8,21.8,0,0,0-6.06-6.45c-6.94-5.14-14.32-5.4-21.63-1.47A41.27,41.27,0,0,0,604,434a52.65,52.65,0,0,0-4.84,21.41C599,459.44,599.28,463.36,603.88,466.3Z" transform="translate(-483.87 -61.85)"/><path class="cls-2" d="M948.54,471.44a39.71,39.71,0,0,1-.46,6.81c-.18,1-.27,2.13-1.59,2.15s-1.64-1-1.88-2c-.49-2.07-1-4.15-1.3-6.25-.65-4.5-1-9-1.8-13.52-2.32-13.53-10.13-22.95-22.42-28.56-8-3.63-15.81-2.62-23.19,2-1.55,1-3,2.11-4.49,3.21a2.4,2.4,0,0,1-3.14.19c-1.17-1-1-2.29-.33-3.49a9.41,9.41,0,0,1,3-3c10.84-7.35,22.26-8.58,33.77-2.11,13.78,7.75,21.82,19.54,23,35.6C948,465.5,948.28,468.47,948.54,471.44Z" transform="translate(-483.87 -61.85)"/><path class="cls-2" d="M762,539.83c-10.26.07-18.3-2.36-25.53-7.32a15,15,0,0,1-6-7.52,3.65,3.65,0,0,1,.28-3.62c1.23-1.69,3.35-1.69,4.05.25,2.92,8.08,10.08,10.19,17.18,12.07,7.91,2.1,15.8.7,23.58-1.23s14.85-5.56,21.75-9.54c2.95-1.7,5.88-3.44,8.81-5.17a7.73,7.73,0,0,1,5.3-1.12,2.07,2.07,0,0,1,1.74,1.65,1.57,1.57,0,0,1-.9,1.75c-2.39,1.52-4.79,3-7.2,4.53a120.11,120.11,0,0,1-21.19,10.81A72.81,72.81,0,0,1,762,539.83Z" transform="translate(-483.87 -61.85)"/><path class="cls-2" d="M491.58,111.29a19.85,19.85,0,0,1,4.17-7.62c10.08-12.24,22.86-21.14,36.38-29.06,5.51-3.23,11.15-6.23,16.7-9.37a33.25,33.25,0,0,1,7.07-2.92,12.51,12.51,0,0,1,2.5-.46A2,2,0,0,1,560.53,63c.39,1.11-.74,1.25-1.39,1.75-6.22,4.81-13.38,8-20.12,11.91-13.06,7.55-25.63,15.76-36.15,26.72a33.61,33.61,0,0,0-5.48,7.58,19.78,19.78,0,0,1-1.49,2.57c-.69,1-1.6,1.72-2.9,1.21C491.52,114.11,491.44,112.83,491.58,111.29Z" transform="translate(-483.87 -61.85)"/><path class="cls-1" d="M939.83,240.53c0-7,2.54-10.55,9.5-12.2,5.2-1.24,9.93-.26,13.39,4.21,2.71,3.5,3.83,8.43-.05,13.27-5.57,6.94-13.53,7.59-19.94,1.44A9.56,9.56,0,0,1,939.83,240.53Z" transform="translate(-483.87 -61.85)"/><path class="cls-2" d="M1003,192.06c0,1.1-.72,1.47-1.69,1.29a14.44,14.44,0,0,1-6-3c-4-3-7.92-6-12-8.89a126.5,126.5,0,0,0-38-18.75,17.58,17.58,0,0,0-8-.84c-1.46.24-3,.15-3.36-1.7-.35-2,1.17-2.64,2.77-3.11a15.32,15.32,0,0,1,8.41.37,119,119,0,0,1,28,11.28A149.47,149.47,0,0,1,999.2,187C1001.12,188.7,1002.86,191,1003,192.06Z" transform="translate(-483.87 -61.85)"/><path class="cls-2" d="M868.5,422.76c0,1.25-.7,1.72-2.13,1.1-2.53-1.1-6.07-7.21-5.73-9.86a2.2,2.2,0,0,1,3.41-1.75,4.5,4.5,0,0,1,2.14,2.52A26.93,26.93,0,0,1,868.5,422.76Z" transform="translate(-483.87 -61.85)"/><path class="cls-2" d="M1038,254.8a8.67,8.67,0,0,1,1.64.12c1.17.36,2.84.37,3,1.87.1,1.24-1.41,1.64-2.36,2.14a24.67,24.67,0,0,1-7.24,2.14c-1.38.24-2.59-.17-3-1.68a2.4,2.4,0,0,1,1.45-2.76C1033.63,255.46,1036,255.25,1038,254.8Z" transform="translate(-483.87 -61.85)"/></svg>