<svg id="Layer_1" data-name="Layer 1" xmlns="http://www.w3.org/2000/svg" viewBox="0 0 903.61 1078.47"><defs><style>.cls-1{fill:#c072e6;}.cls-2{fill:#77438d;}.cls-3{fill:#fff;}</style></defs><title>Librarians</title><path class="cls-1" d="M804.85,314.51c-1.22,5.73-4.59,10.69-7.27,15.86C791.2,342.68,783.93,354.6,778,367.1a81.21,81.21,0,0,0-6.41,19.82c-2.53,13.54,6.48,26.12,22.47,31.6,13.46,4.61,27.12,4,40.69.37,18.38-4.84,34.5-13.86,50.88-22.43,17.68-9.25,34.9-19.23,54-26.23,23.74-8.72,47.68-9.48,72-2.63,17.51,4.91,33.95,11.68,47.87,22.68,14.4,11.38,24.8,25,28.74,42.14-5.17,11.45-14.11,19.41-27,23.78-9.69,3.29-19.89,4.16-30,5a92,92,0,0,0-24.57,5c-13,4.81-23.8,12-28.11,24.69-4.6,13.53-2.1,26.26,6.58,38.09,2.66,3.61,6.22,5.22,10.88,5.48a34.78,34.78,0,0,0,16.4-2.77c1.72-.77,3.45-1.46,4.41.72,1.51,3.44,2.73,7,1.69,10.75-1,3.43-3.18,4.65-6.85,3.43-3.35-1.11-6.57-2.5-8.55-5.53-1-1.58-1.81-4.7-4.8-2.93-2.38,1.41-.69,3.73.33,5.58.12.21.23.42.36.61,3.92,5.73,13.86,9.62,19.09,7.49s7.51-9,5.83-16.43c-1.32-5.88-4.63-11.12-5.69-17.13-2.47-14.07,9.9-29,25.83-29.36,13.3-.29,26.55-.46,39.66-2.71-1.15,8.8-5.14,16.81-8.92,24.81a169.58,169.58,0,0,1-41.21,55.16c-18.9,16.73-41.14,28.58-65.64,37.35C948.83,610.34,929,614.73,909,618.65c-2,.39-3.9,1-5.85,1.54-3.67-.12-7.31,0-10.71,1.46l-40.15,5.54a2.55,2.55,0,0,1-.87-3.11c4-14,7.65-28,12-41.93,3.51-11.24,8-22.24,11.6-33.48.81-2.55,4.59-6.88-.18-8.19-4-1.1-3.85,4-4.87,6.55-9.8,24.4-16.56,49.58-23.42,74.73-.65,2.4-.82,5-3.2,6.78-16.91,1.75-33.43,5.2-49.79,9.26-7.08,1.76-14.23,3.37-21,6a61.26,61.26,0,0,0-11.18,3.42c-21.47,7.37-42.25,16.16-63,25.11-21.38,9.26-42.39,19.26-64.61,26.86-19.33,6.6-39,12.36-59.5,15.13a47.67,47.67,0,0,0,.5-6.61A2.66,2.66,0,0,0,572,705c-1.49,0-2.07,1-2.33,2.19-.62,2.86-1.23,5.71-1.84,8.57-12.14.56-24.07,3.22-36.29,3a12.88,12.88,0,0,1,.16-2.72c13.82-48.31,25.76-97,41.47-144.91,2.73-8.33,5.94-16.54,9.12-25.35,10,4.71,20.45,6.39,31.44,7.22-.76,2.72-1.32,5-2,7.15-3.31,10.86-6.69,21.71-10,32.58-5.66,18.86-9.82,38.06-16.6,56.66-3.9,10.7-8,21.36-10.26,32.49-.56,2.75-1.4,5.6.27,8.34,2.07-.7,2.14-2,2.5-3q8.28-23.34,16.5-46.69c5.07-14.49,8.24-29.41,12.44-44.1,7.45-26,16.82-51.63,23.38-77.89a115.64,115.64,0,0,0,2.49-12.17c.3-2.14.88-5.41-2.51-5.64-3.57-.25-3,3-3.21,5.19-1.48,12.88-6.18,25.09-9.75,37.54-.74,2.59-2.62,3.53-5.63,3.65-7.62.29-14.68-1.65-21.65-4-5.24-1.75-5.77-2.77-4.51-7.81,1.79-7.16,3.87-14.28,5.38-21.5.85-4,2.34-8,2.06-12.25-.11-1.57.34-3.66-2-3.95-2.77-.35-2.92,2.05-3.59,3.71a5.1,5.1,0,0,0-.24,1.36c-2.24,15.79-6.69,31.17-12.08,46.24-14,39-24.79,78.74-35.76,118.45q-7.2,26.08-14.52,52.13c-48.06.42-92.75-9.64-132.2-35.15-23.08-14.93-39.81-34.32-47.54-59.24-5.27-17-4.62-33.67,5.83-49.26,7.17-10.7,17.33-18.63,29.1-25,15.8-8.55,32.64-15.33,48.79-23.3,9.89-4.88,19.38-10.2,27.6-17.29C469.4,498.8,477,485,478.65,468.46a9,9,0,0,1,2.27.06c19.26,5.41,39,9.25,58.4,14.13q22.48,5.64,45,11.16c1.6.39,3.46,1.17,4.91-1.35-3.65-3.4-8.62-4.58-13.33-5.95-24.29-7.09-49.22-12.09-73.79-18.27-11.25-2.82-22.77-4.72-33.8-8.27,1.31-.3,2.93,0,3.63-1.5,1.59-.17,3,.71,4.41.85,2.72.26,6.44,3.78,7.86.39,1.16-2.77-3.9-3.36-6.28-4.84a15.31,15.31,0,0,1-.4-6.35,24.85,24.85,0,0,1,3.73.71q28.49,10.23,56.92,20.53c5.69,2.07,11.29,4.32,17,6.37,2.48.9,6.13,3.24,7.51.51,1.78-3.56-3.4-3.54-5.56-5.07a7.4,7.4,0,0,0-1.37-.61c-10.8-4.76-22.19-8.27-33.25-12.47-16-6.06-32.66-10.7-48.13-17.89-.34-.71-.7-1.4-1.73-1.44l.08.15c.42-7-3.79-12.77-6.61-18.82a325.2,325.2,0,0,0-18.59-34c-8.48-13.68-15.95-27.78-19.35-43.31,0-3.25-.05-6.49-.07-9.74L431.61,320c1.69-2,3.9-3.82,4.18-6.59a13.13,13.13,0,0,0,2.3-1.81c7.94-10,18.68-13.91,32.1-12.13L487,304.86c8.63.6,17.26,0,25.89,0,3.25.29,6.28-.72,9.38-1.29,8-.18,15.39-2.09,21.53-7a23.59,23.59,0,0,0,8.73-6.85,34.62,34.62,0,0,0,11.32-12.39c4.24-1.76,5.64-5.59,7.91-8.78,7.44-9.35,14.91-18.68,22.31-28.06,17.46-22.11,40.63-37.24,69.05-46.16,15.79-5,31.65-8.9,48.64-8.55a112.93,112.93,0,0,1,30.87,4.6c1.44,2.41,3,4.78,4.32,7.23,1.58,2.87,2.87,5.87,4.58,8.68.79,1.31,2,3.07,4.15,2.13s1.5-2.62.81-4.22c-1.38-3.19-2.7-6.41-4.05-9.62,6.59,1,11.51,5,17,8,4.44,8.13,4.45,8.14-1.73,14.11-13.64,13.18-21.1,28.11-19.79,46.76,1.6,22.8,18.29,42.58,42.82,48.32C795.33,312.83,800.11,313.6,804.85,314.51Zm49.37,177.12c2.34,7.66,9.55,12,14.95,17.55a2.78,2.78,0,0,0,4.05.17c1-1.05.34-2.24-.42-3.13-2.92-3.43-6-6.77-8.92-10.2a11.33,11.33,0,0,0-9.72-4.33c.3-2,0-3.78-2.7-4.12-3.29-.4-6.67-1.27-9.88-.93-11.51,1.22-22.93.41-34.42-.1-19.15-.86-38.33-.56-57.51-1.36-34.77-1.45-69.57.9-104.37,1a19.68,19.68,0,0,0-2.3.11c-1.6.18-3.18.71-3.34,2.29-.2,2.12,1.69,2.62,3.55,2.78,1.52.14,3.07,0,4.6.11,6.17.37,12.24-1,18.35-.95,34.27.33,68.54-.82,102.84.74C797.34,492.54,825.8,492.12,854.22,491.63Zm3.7,30.16c2.81,0,5.63.12,8.43,0a2.38,2.38,0,0,0,2.49-2.16c0-1.14-1-1.61-1.9-1.9a17,17,0,0,0-4.44-.91c-7.16-.15-14.29-1-21.4-1.23-13.84-.35-27.53-2-41.21-3.38-20.56-2.06-41.21-3.15-61.78-5-14.22-1.31-28.58-1.61-42.74-3.29-8.38-1-16.83-.68-25.18-2.1-6.48-1.1-13.28,0-19.86-1.32-2.06-.43-4.48,0-4.91,2.22-.53,2.69,2.06,2.67,4.09,2.83q17.57,1.35,35.13,2.67,20.24,1.55,40.48,3.12,23.65,1.86,47.32,3.78c12.47,1,25,1.71,37.38,3.24C825.8,520.24,841.92,520.35,857.92,521.79Zm-242.21-123c-.47,5.82,3,10.19,8.23,13.54a9.4,9.4,0,0,0,8.66,1.17c5.83-2.12,11.78-12.28,10.24-17.8-1.82-6.52-9.54-11.33-16.7-10.4C619.38,386.18,615.68,390.84,615.71,398.79Zm-42.05-26.92c.5-.49,1.25-.91,1.45-1.47q10.71-30.58,21.32-61.2a19.27,19.27,0,0,0,1-4,2.11,2.11,0,0,0-1.83-2.6,2.33,2.33,0,0,0-2.52,1.18,39.46,39.46,0,0,0-2,4.45c-3.65,9.82-7.33,19.63-10.85,29.48-3.37,9.4-6.44,18.88-8.16,28.67C571.64,368.4,570.87,370.47,573.66,371.87Zm-11.57-19.59c.15,1.22-.43,2.89,1.52,3.4s2.5-1,3.07-2.3c1-2.13,2-4.22,2.87-6.39,4.05-10.39,8.09-20.8,12-31.22a171.92,171.92,0,0,1,8.33-18.5c.58-1.11.82-2.29-.62-3a2.83,2.83,0,0,0-3.47.59,29.42,29.42,0,0,0-3,4.75c-8.53,16.26-13.82,33.56-20.19,50.52A18.15,18.15,0,0,0,562.09,352.28Zm197.42,147.5c0-1.54-1.35-2-2.52-2.13-5.83-.63-11.67-1.24-17.53-1.61-7.9-.5-15.81-.17-23.74-1.07-7.32-.83-14.83-.34-22.26-.43-1.87,0-4.11.2-4.35,2-.33,2.48,2.45,2.46,4.3,3a5.1,5.1,0,0,0,1.52.11c20-.32,39.86,2.3,59.85,1.45C756.45,501.07,758.45,501.6,759.51,499.78Zm-89.7,108.59a4.33,4.33,0,0,0-3.92,2.64,13.93,13.93,0,0,0,.48,11.93c1.18,2.25,3.54,3.25,6.39,2.6,3.38-.78,6.46-5.26,6-8.65C678.35,613.24,673.36,608.42,669.81,608.37Zm208.48-88.32c4.05-.08,4.33.23,2.91,3.64-.53,1.29-1.32,2.49-1.88,3.77a1.65,1.65,0,0,0,1,2.29,3.15,3.15,0,0,0,2.16,0c3.26-1.43,4.52-4.27,5.73-7.06,1.47-3.37-.37-5.87-3.22-7.7s-5.84-1.37-8.55.45c-1.25.83-2.41,1.87-1.92,3.45C875.1,520.7,876.66,520.5,878.29,520.05ZM942,431c.09-3.61-1.56-5.51-5-5.72a7.12,7.12,0,0,0-7.27,6.6c-.23,3.13,2.65,5.88,6,5.77A6.53,6.53,0,0,0,942,431Z" transform="translate(-250.09 -18.53)"/><path class="cls-2" d="M804.85,314.51c-4.74-.91-9.52-1.68-14.21-2.77-24.53-5.74-41.22-25.52-42.82-48.32-1.31-18.65,6.15-33.58,19.79-46.76,6.18-6,6.17-6,1.73-14.11-1.78-7.47-5.77-14.18-9.21-21.07-7.84-15.71-16-31.27-27-45.47-1.45-1.87-2.58-4-4.8-5.29-1.67-4.49-5.14-7.84-8.8-11-3.06-2.66-5.14-2.13-6.39,1.57a19.23,19.23,0,0,0-.5,3.4,93.82,93.82,0,0,0-1.26,15.78,2.2,2.2,0,0,1-2,2.54c-2,.21-2.68-1.07-2.74-2.54-.15-4.13-.19-8.26-.27-12.39.22-5.69,1.54-11,5.95-15.41a1.71,1.71,0,0,0,1.83-1.3h0a16.91,16.91,0,0,1,9.51,4.92c2.34,2.3,4.84,4.48,7.27,6.71.79,2.49,2.6,4.46,4.19,6.53,17.42,22.59,29.81,47.46,40.82,72.95.46,1.07.92,2.14,1.29,3.24.68,2,2,2.47,4,1.36,1.74-1,3.48-1.92,5.26-2.82,16.29-8.21,33.41-13.69,52.46-12.63,5.61.11,10.6,2.62,16.06,3.34,8.77,4.73,17.83,9.12,24.05,16.79a9.05,9.05,0,0,0,2.38-.7c13-9.59,28.18-14.77,44.64-17.17,5.35-.79,5.32-.76,5-5.3-.62-8.28,2.11-15.89,5.9-23.25,4.58-8.91,11.73-16.14,19.14-23.17,9.24-5.58,18.41-11.27,28.9-14.87a129.72,129.72,0,0,1,16.06-4.69c4.69-1.08,5-1.38,3.57-5.7-3.21-10-6.91-19.78-9.88-29.78-4-13.56-8.81-27-10.16-41.09a50.31,50.31,0,0,1,.4-15.15c.72-3.48,2.09-6.57,6.31-7.63,2,1.87.2,3.26-.13,4.66-2.26,9.68-1.47,19.3.77,28.82,4.84,20.52,11.46,40.62,18.28,60.66,1.25,3.67,2.67,4.31,6.76,3.45,6.21-1.3,7.92-3.84,6-9.32-4.93-13.82-9.81-27.65-13.72-41.73a107,107,0,0,1-2.52-12.91c-.27-1.75-.24-4.1,2.63-4.1,2.4,0,2.2,2.14,2.47,3.69,3.54,19.88,10.93,38.8,18,57.81,1.25,2.82,1.77,5.91,3.91,8.4.84,1.15,2.26,1.32,3.55,1.69l9.46,4.13a63.37,63.37,0,0,1,20.05,17.41c3.44,5.81,5.69,12.07,8.39,18.16,1.42,11.12,1.55,22.18-2,33.07-4,8.44-8.57,16.55-15.77,23.23a83.15,83.15,0,0,1-22.06,14.82,31.74,31.74,0,0,0-8.76,5.51c-4.25,4.09-9.71,5.21-15.5,3.93a58.28,58.28,0,0,0-13.69-.9,83.5,83.5,0,0,1-19.05-1.88,112.8,112.8,0,0,0-13.55-2.35c-5.87-.55-10.65-3.12-13.64-7.93-3.87-6.24-10.17-11-13.38-17.65-.71-1.48-2.14-1.91-3.78-1.76a45.26,45.26,0,0,0-6.82.88,152,152,0,0,0-34.25,13.8c-2.91,1.56-3.59,3.24-2.77,6.22,11.81,43.34-26.15,76-66.1,80.42C817.65,314.15,811.23,314.17,804.85,314.51Zm218.69-81.23,0,0a12,12,0,0,0,9-2.76c6.56-2.18,11.78-6.15,17-10.19a3.94,3.94,0,0,0,1.85-3.56c3.71-.54,5.36-3.23,7.28-5.64,2.63-3.49,5.64-6.8,6.37-11.17,2-2.27,2.68-5,3.27-7.71,2.65-7.61,3.44-15.3,1.35-23.12a12.37,12.37,0,0,0-2.45-7.91,9.82,9.82,0,0,0-3.65-8.31,10.81,10.81,0,0,0-4.13-6.93,29.21,29.21,0,0,0-16-12.67c-1.85-2.37-4.66-3.21-7.59-3.85-4.49-1.54-8.88-3.53-13.94-2.7-4.11-2.48-8.21-1-12.32,0a48.1,48.1,0,0,0-22,5.28c-2.69.72-5.53,1.14-7.51,3.2a36.92,36.92,0,0,0-16.84,9.25c-3.11,1.38-6,2.95-7.64,5.9-6.11,4.23-9.63,10.22-13.41,16a5.41,5.41,0,0,0-.5,4.59c-6.27,9.13-5.42,18.95-3.45,28.87,1.67,7.73,4.35,15,11.06,20.52a19.1,19.1,0,0,0,8,7.15,24.47,24.47,0,0,0,7.49,4.63c4.2,2.63,9.21,3.37,13.9,4.85a77.12,77.12,0,0,0,20.12,1.56c3.72,0,7.51.42,10.93-1.43a23.91,23.91,0,0,0,12.13-2.57C1022.81,234.5,1023.47,234.18,1023.54,233.28ZM854,200.48c-4.82-1.93-9.69-3.67-15.12-3.33-2.84-1.49-5.95-1.13-9-.88-15.53,1.29-29.67,6.21-42.94,13.39-1.72.94-3.69,1.69-4,3.83-3.23-.16-5.1,1.87-7.11,3.6-8.78,7.52-15.57,15.87-19.51,26.62-6.33,17.26-3.3,32.57,8.4,46.72,10.71,12.95,26.16,17.64,43.42,18.56,26.65,1.29,48.67-7.29,65.44-25.84C896.79,257.5,889.54,213.58,854,200.48Zm33.41,23.59a23.87,23.87,0,0,0,2.7-1c12.75-6.94,26-12.94,40.72-15.55,3.23-.57,3.52-1.89,2.92-4.29-1.11-4.44-1.52-5.08-6.66-4.56a87.9,87.9,0,0,0-36.41,11.92C880.23,216.74,882.63,216.89,887.43,224.07Z" transform="translate(-250.09 -18.53)"/><path class="cls-2" d="M1083.67,486.19c-13.11,2.25-26.36,2.42-39.66,2.71-15.93.35-28.3,15.29-25.83,29.36,1.06,6,4.37,11.25,5.69,17.13,1.68,7.45-.53,14.27-5.83,16.43s-15.17-1.76-19.09-7.49c-.13-.19-.24-.4-.36-.61-1-1.85-2.71-4.17-.33-5.58,3-1.77,3.76,1.35,4.8,2.93,2,3,5.2,4.42,8.55,5.53,3.67,1.22,5.9,0,6.85-3.43,1-3.76-.18-7.31-1.69-10.75-1-2.18-2.69-1.49-4.41-.72a34.78,34.78,0,0,1-16.4,2.77c-4.66-.26-8.22-1.87-10.88-5.48-8.68-11.83-11.18-24.56-6.58-38.09,4.31-12.69,15.1-19.88,28.11-24.69a92,92,0,0,1,24.57-5c10.15-.85,20.35-1.72,30-5,12.92-4.37,21.86-12.33,27-23.78,6.87-9.45,5.91-19.75,3.6-30a77.18,77.18,0,0,1-2.3-20.55,25.15,25.15,0,0,1,1-6.82c.71-2.13,1.58-3.09,4.35-1.86,8.77,3.9,17.87,3.26,27,1,4.81-1.2,7.08-.76,8.39,3,1.75,5,2.69,10.28,3.83,15.47.3,1.39-.15,3-2,3.23s-2.45-1.3-2.81-2.73c-1.19-4.68-2.4-9.35-3.76-14.65-9.72,2.59-19.3,3.57-29.23.64-2,5.62-1,10.79-.35,15.92a64.67,64.67,0,0,0,1.52,6.77c1.63,7.11,2.73,8.11,10.79,9.42,4.56.74,9.2.43,13.8.59,5.24.18,9.65-.3,10.15-7,2.85,1.94,3.33,3.83,3.42,5.83a56.67,56.67,0,0,1-.56,12.41c-2.7,15.27-10.12,28.92-18.51,42.15-3.91,6.17-10.75,9.74-17.09,13.65a4.29,4.29,0,0,1-5-.29c-2.21-1.54-4.3-3.23-6.44-4.86-4-4.75-8.19-9.4-10.74-15-1.24-2.71-3-2.58-5.4-1.31a66.79,66.79,0,0,1-18.58,6.32c-4,.78-4.51,2.49-3.12,5.34,2.08,4.27,5.53,7.67,8.64,11.32,2.27,2.66,4.84,3.25,8,2.76,6.5-1,13-2.23,19.44-3.37,2.49-.38,4.4.1,2.51,2.62C1087.62,484,1085.41,485,1083.67,486.19Zm5.11-20.37c1.26,2.88,3.89,4.76,6.16,6.92,1.46,1.4,2.93,1.47,4.72.43,8.31-4.83,14.66-11,17.64-20.13-9.58-2.3-18.28-5.4-25.58-11.06-.87-.67-1.82.27-2.33,1.13-10.68,9.45-10.85,12.33-1.27,22.37A2.57,2.57,0,0,0,1088.78,465.82Zm10.7-51.67c-.74,7.26-2,14-5.22,20.25-1.08,2.07.51,3.46,2.06,4.71,6,4.91,13.55,7.11,21.16,9.11a2.85,2.85,0,0,0,3.65-1.62c4.16-8.38,8-16.84,8.73-26.17.19-2.48-.29-4-3.58-3.78A78.09,78.09,0,0,1,1099.48,414.15Zm-97.18,59.64c-7.83,3.65-13.57,8.63-17.17,15.42-3.25,6.15-1.77,9.77,4.74,13.13,6.09,3.15,12.9,4,19.64,5.2,2,.34,2.77-.36,3.31-1.87,1.65-4.63,4.88-8.41,8.68-12.14-3.76-3.29-7.84-5.64-11.23-8.71S1005.09,477.6,1002.3,473.79Zm52.09,9.71c-4.85-5.46-8.44-9.61-10-14.79-.82-2.7-2.92-3.62-5.82-3.14-8,1.32-16.28,1.09-24,3.65-1.2.4-2.44.68-3.63,1.08-2.41.78-2.95,2.08-1.8,4.25,3.08,5.8,8,10,13.87,13.42,2.07,1.22,4.42,1.63,6.47.26C1036.4,483.59,1044.36,482.74,1054.39,483.5ZM983,504.2c-1.91,3.69-.17,6.6.59,9.34,4.51,16.4,9.44,18,26.59,13.93a6.86,6.86,0,0,0,2.11-.74c.58-.39,1.45-1.18,1.32-1.55-1.37-4-.64-8.23-1.86-12.2-.47-1.53-2.25-1.73-3.82-1.68C998.91,511.63,990.92,509,983,504.2Z" transform="translate(-250.09 -18.53)"/><path class="cls-2" d="M567.85,715.79c.61-2.86,1.22-5.71,1.84-8.57.26-1.16.84-2.19,2.33-2.19a2.66,2.66,0,0,1,2.8,2.64,47.67,47.67,0,0,1-.5,6.61,15.82,15.82,0,0,0-1.88,5.94c-3.06,16.11-8.66,31.69-12.4,47.67-.65,2.75-1.4,7.8-4.31,7.1-4.5-1.08-1.36-5.5-.71-8.25,2.2-9.21,4.9-18.32,7.43-27.47.61-2.22,1.55-4.39,1-7.34-10.84.9-21.09-1.58-31.07-5.17-2.64-.94-3.73.07-4.33,2.25-2,7.37-4,14.76-6.22,22.07-1.6,5.21-2.72,10.65-7.17,15,.52-16,7.31-30.92,9.86-46.55q7.28-26.06,14.52-52.13c11-39.71,21.8-79.45,35.76-118.45,5.39-15.07,9.84-30.45,12.08-46.24a5.1,5.1,0,0,1,.24-1.36c.67-1.66.82-4.06,3.59-3.71,2.33.29,1.88,2.38,2,3.95.28,4.22-1.21,8.21-2.06,12.25-1.51,7.22-3.59,14.34-5.38,21.5-1.26,5-.73,6.06,4.51,7.81,7,2.34,14,4.28,21.65,4,3-.12,4.89-1.06,5.63-3.65,3.57-12.45,8.27-24.66,9.75-37.54.25-2.19-.36-5.44,3.21-5.19,3.39.23,2.81,3.5,2.51,5.64A115.64,115.64,0,0,1,630,518.54c-6.56,26.26-15.93,51.84-23.38,77.89-4.2,14.69-7.37,29.61-12.44,44.1q-8.19,23.36-16.5,46.69c-.36,1-.43,2.29-2.5,3-1.67-2.74-.83-5.59-.27-8.34,2.25-11.13,6.36-21.79,10.26-32.49,6.78-18.6,10.94-37.8,16.6-56.66,3.27-10.87,6.65-21.72,10-32.58.66-2.2,1.22-4.43,2-7.15-11-.83-21.4-2.51-31.44-7.22-3.18,8.81-6.39,17-9.12,25.35C557.48,619,545.54,667.72,531.72,716a12.88,12.88,0,0,0-.16,2.72,2.13,2.13,0,0,0,1.27,2.87c8,3.25,16.21,5.72,25.08,5.47,7.38-.21,7.47-.48,8.8-7.41C567,718.36,567.47,717.08,567.85,715.79Z" transform="translate(-250.09 -18.53)"/><path class="cls-2" d="M892.47,621.65c3.4-1.48,7-1.58,10.71-1.46A250.66,250.66,0,0,0,886,671a60.64,60.64,0,0,1-6.68,17.6c-5.36,9.14-13.44,9.66-20.23,1.27-5.06-6.26-7.58-13.54-9.56-21-1.48-5.51-2.68-11.08-4.37-18.15a23.49,23.49,0,0,0-3.37,8.66Q828,717.13,814.26,774.86c-2.82,11.94-5.27,23.94-8,35.88-.48,2.1-.38,5.59-3.67,5.19-3.59-.43-2.09-3.63-1.63-5.72Q818.87,730,838.83,650.14c1.79-7.15,5.25-14,4.54-21.6,2.38-1.76,2.55-4.38,3.2-6.78,6.86-25.15,13.62-50.33,23.42-74.73,1-2.53.88-7.65,4.87-6.55,4.77,1.31,1,5.64.18,8.19-3.55,11.24-8.09,22.24-11.6,33.48-4.34,13.89-8,28-12,41.93a2.55,2.55,0,0,0,.87,3.11A177.1,177.1,0,0,0,859,669.5c1.57,5.35,3.55,10.6,7.13,15.19,2.23,2.85,3.69,2.77,5.44-.37a59.77,59.77,0,0,0,5.75-15.7A274.84,274.84,0,0,1,892.47,621.65Z" transform="translate(-250.09 -18.53)"/><path class="cls-2" d="M552.48,289.72a23.59,23.59,0,0,1-8.73,6.85A134,134,0,0,1,542,278c.05-10.57,0-21.14,0-31.71A116.21,116.21,0,0,0,537.18,213a50,50,0,0,0-6.23-14c-3.14-4.64-6-4.86-10.28-.87a25.76,25.76,0,0,0-5.55,8.2A79.84,79.84,0,0,0,508,236.39c-1.23,23.45,8.12,45,14.26,67.18-3.1.57-6.13,1.58-9.38,1.29-3.37-11.58-7-23.11-10.09-34.74-5.79-21.48-6.14-42.87,2.41-63.94C507.28,201,510,196,514.38,192c8.57-7.83,17.8-7.06,24.19,2.21,5,7.34,7.53,15.59,9.51,24,2.9,12.24,3.36,24.65,3.17,37.12C551.08,266.74,550.42,278.27,552.48,289.72Z" transform="translate(-250.09 -18.53)"/><path class="cls-2" d="M266.83,713c-.57-4.14,1-8,2.6-11.73,11.09-26.54,20.14-53.67,28.9-80.86A946.51,946.51,0,0,0,332.7,475.24c1.52-9.81,3.3-19.58,5-29.36a7.1,7.1,0,0,1,.52-2,2.39,2.39,0,0,1,2.28-1.54,2.12,2.12,0,0,1,2.07,1.72c.63,2.53,0,5.05-.41,7.54-6.15,36.89-12.65,73.71-21.72,110.16-11.31,45.46-26.33,89.92-43.19,133.91a80.56,80.56,0,0,1-7.2,15.24C269.42,711.84,269.16,713.17,266.83,713Z" transform="translate(-250.09 -18.53)"/><path class="cls-2" d="M468.32,460c11,3.55,22.55,5.45,33.8,8.27,24.57,6.18,49.5,11.18,73.79,18.27,4.71,1.37,9.68,2.55,13.33,5.95-1.45,2.52-3.31,1.74-4.91,1.35q-22.51-5.54-45-11.16c-19.42-4.88-39.14-8.72-58.4-14.13a9,9,0,0,0-2.27-.06c-15.26-5.3-31.18-8.69-46.78-13-21-5.86-41.38-13.36-62.21-19.71-2.9-.88-5.84-1.67-8.76-2.52-1.48-.42-3-.92-4.26.32s-2.92,2-4.47.26a4.16,4.16,0,0,1-.87-4.55c.7-1.81,2.44-2.4,4.32-2.11a50.58,50.58,0,0,1,7.43,1.68c12.33,3.81,24.7,7.53,36.92,11.62,18.47,6.17,37.28,11.38,56.2,16.27,1.86.48,3.78,1.62,5.86.48l-.09-.08C463.18,459.65,466.2,459,468.32,460Z" transform="translate(-250.09 -18.53)"/><path class="cls-2" d="M487,779.39c-1.47-.4-3-.75-4.4-1.22-55.36-18-112.82-28.34-170.6-37.47-10.58-1.67-21-4.32-31.81-4.68a7.81,7.81,0,0,1-2.92-.69,2.65,2.65,0,0,1-1.26-1.55c-.29-1.1.67-1.7,1.64-2,2.51-.8,5.08-.33,7.61-.1,13.28,1.17,26.19,4.29,39.33,6.2,40,5.82,79.32,14.19,118.46,23.42,10.65,2.51,21,5.91,31.3,9.43,5.5,1.88,10.94,3.92,15.72,7.09C489.49,779.11,488.15,779.14,487,779.39Z" transform="translate(-250.09 -18.53)"/><path class="cls-2" d="M784.77,832c-6.61.7-11.63-1-16.68-2.09-29.14-6.3-58.17-13.1-87.84-17.06-34-4.52-68-8.32-102-12.48-2.09-.26-5.61.67-5.66-2.11-.06-3.43,3.7-2.51,5.92-2.28q18.31,1.86,36.59,4.12c27.92,3.44,56,6,83.65,10.88,23.89,4.22,47.57,9.23,71.18,14.52C774.9,826.59,780.09,827.7,784.77,832Z" transform="translate(-250.09 -18.53)"/><path class="cls-1" d="M413.59,230c9.4-5.81,18.14-12.48,28-17.73a51,51,0,0,1,4.59-2.37,2.78,2.78,0,0,1,2.11.29c1.09.68.66,1.71,0,2.34-4,3.52-7.95,7-12.08,10.43-4.48,3.66-9.5,6.83-12.78,11.56-3.62.5-5.68,2.45-6.44,5.61-7.63,3.58-14.07,8.31-18.34,15.16-4.3.81-6.46,3.57-7.88,7-5.69,2.07-8.14,6.75-11.06,11.06-3.32,2-5.85,4.49-6.87,8.05-5,4.5-7.54,10.2-9.64,16.12-.9,2.53-1.28,5.77-5.51,5.45-2.66-.2-4-3.33-3-7.55,1.49-6.64,5.5-12.23,9.59-17.79,1.9-2.6,4.9-4.84,4.39-8.49,5.55-.13,6.35-4.43,8.35-7.68,5.33-3.06,8.95-7.67,13.18-11.73,8.18-5.24,14.23-12.61,22.21-18.05A6.09,6.09,0,0,0,413.59,230Z" transform="translate(-250.09 -18.53)"/><path class="cls-2" d="M474.37,440.6c15.47,7.19,32.13,11.83,48.13,17.89,11.06,4.2,22.45,7.71,33.25,12.47a7.4,7.4,0,0,1,1.37.61c2.16,1.53,7.34,1.51,5.56,5.07-1.38,2.73-5,.39-7.51-.51-5.69-2.05-11.29-4.3-17-6.37q-28.43-10.31-56.92-20.53a24.85,24.85,0,0,0-3.73-.71,26.15,26.15,0,0,0-3.79-2.29q-39.92-15.87-79.87-31.67c-2.57-1-5.14-2-7.62-3.2a2,2,0,0,1-1.15-2.92c.69-1.24,2.1-1.19,3.34-.83,1.69.49,3.34,1.13,5,1.74,23.85,8.81,47.32,18.42,70.81,28,2.62,1.06,5.15,3.08,8.47,2l-.08-.15C472.25,440.57,473.48,440.41,474.37,440.6Z" transform="translate(-250.09 -18.53)"/><path class="cls-1" d="M311,509.49a366.82,366.82,0,0,1-6.6,39.4c-2.72,11.92-5.17,23.91-10.07,35.34a47.71,47.71,0,0,1-6.11,11.09c-.85,1.08-2,2.44-3.72,1.47-1.2-.69-.71-2-.37-3.18,5.05-17.11,8.44-34.53,12.37-51.85,2.45-10.81,4-21.74,5.6-32.66,0-.23,0-.46.06-.69.47-2.92.29-6.37,4.88-6.68C309.89,501.53,311.07,503.8,311,509.49Z" transform="translate(-250.09 -18.53)"/><path class="cls-1" d="M1143.55,409.68c0-3.91.06-7.81,0-11.72,0-2.28.53-4.26,3.27-4.8,3.26-.64,4.68,1.47,5.35,3.77a33.68,33.68,0,0,1,1.55,9.52c-.17,20.82-4.73,40.61-16.69,58.71-2.63,4-5.49,7.76-9.53,10.71-1.22.9-2.56,1.73-4.1.73s-1.32-2.35-.64-3.71c1.78-3.55,3.29-7.25,5.42-10.63C1138.43,445.93,1144.4,428.59,1143.55,409.68Z" transform="translate(-250.09 -18.53)"/><path class="cls-2" d="M416.94,240.09c.76-3.16,2.82-5.11,6.44-5.61,10.35,7,18.35,16,26.16,25C461.88,273.88,472.85,289.17,486,303a7.64,7.64,0,0,1,1,1.85l-16.75-5.41c-9.62-12.73-19.57-25.26-30-37.43C433.26,254,426,246.28,416.94,240.09Z" transform="translate(-250.09 -18.53)"/><path class="cls-2" d="M761.38,647.18a61.26,61.26,0,0,1,11.18-3.42c-4.56,11-9.47,21.81-12.66,33.21a137,137,0,0,0-5.09,27.86c-.29,4.33-.76,8.71.88,13,.85,2.21.41,4.21-2.42,5-2.66.73-4.4-.65-5.63-2.57-1.6-2.49-1.63-5.3-1.7-8.05a116.21,116.21,0,0,1,3-28.08C751.77,671.41,756.43,659.26,761.38,647.18Z" transform="translate(-250.09 -18.53)"/><path class="cls-2" d="M331.61,634.64c-.08,5.9,2.17,11.94,5.72,17.65,4.53,7.31,10.68,13.47,17.14,19.38,6.27,5.74,12.71,11.33,19.07,17,.89.79,2.18,1.61,1.59,2.84-.84,1.75-2.61,1.07-4,.68a42.26,42.26,0,0,1-13.83-7.26,123,123,0,0,1-25.65-25.49c-4.38-6-7.5-12.57-8.42-19.8a33.59,33.59,0,0,1-.22-6.87c.42-5.09,2.17-7.39,5.16-7.32s3.76,2,3.52,7.79C331.68,633.46,331.66,633.69,331.61,634.64Z" transform="translate(-250.09 -18.53)"/><path class="cls-2" d="M372.79,281.36c1-3.56,3.55-6.08,6.87-8.05A79.28,79.28,0,0,0,390,294.64c10,15,21.55,28.9,38.09,38.77,0,3.25,0,6.49.07,9.74-17.36-9.57-30.32-23-41.55-38C381,297.67,376.75,289.59,372.79,281.36Z" transform="translate(-250.09 -18.53)"/><path class="cls-2" d="M477.94,454.87c2.38,1.48,7.44,2.07,6.28,4.84-1.42,3.39-5.14-.13-7.86-.39-1.45-.14-2.82-1-4.41-.85-2.33-.78-4.65-1.59-7-2.32-1.22-.39-2.44-.47-3,.94l.09.08c1.33-1.42,0-2.07-1.08-2.5-4.68-1.86-9.37-3.74-14.14-5.4q-36.21-12.54-72.46-25a49.63,49.63,0,0,1-4.92-1.92,1.77,1.77,0,0,1-1-2.34,2.14,2.14,0,0,1,2.42-1.32,58.9,58.9,0,0,1,7.31,2c30.9,10.5,62,20.63,92.43,32.15C473,453.75,475.5,454.22,477.94,454.87Z" transform="translate(-250.09 -18.53)"/><path class="cls-1" d="M1086.3,479.81c-6.48,1.14-12.94,2.36-19.44,3.37-3.15.49-5.72-.1-8-2.76-3.11-3.65-6.56-7.05-8.64-11.32-1.39-2.85-.87-4.56,3.12-5.34a66.79,66.79,0,0,0,18.58-6.32c2.38-1.27,4.16-1.4,5.4,1.31,2.55,5.57,6.74,10.22,10.74,15Z" transform="translate(-250.09 -18.53)"/><path class="cls-2" d="M769.62,696.4c1.54-16.31,7.07-31.09,14.32-45.41a22.53,22.53,0,0,1,4-5c1-1,2.38-2,4-1.42,1.83.65,1.41,2.22,1.21,3.58a40.63,40.63,0,0,1-3.39,10.59c-3.84,8.79-7.4,17.65-9.51,26.94a89.25,89.25,0,0,0-2,13c-.33,4.32-2,6.45-4.64,5.89-3.83-.83-4.07-3.69-4-6.57C769.63,697.29,769.62,696.6,769.62,696.4Z" transform="translate(-250.09 -18.53)"/><path class="cls-2" d="M377,261.42c-2,3.25-2.8,7.55-8.35,7.68-3.45-16.94-1.09-33.48,4.21-49.82,1.08-3.32,2.24-6.64,5-9.24,1.26-1.2,2.79-2.21,4.75-1.29,1.72.81,1.4,2.32,1.07,3.66-1.25,5.17-2.57,10.33-3.87,15.49C376.93,239,374.65,250,377,261.42Z" transform="translate(-250.09 -18.53)"/><path class="cls-1" d="M706.34,128.05c.08,4.13.12,8.26.27,12.39.06,1.47.74,2.75,2.74,2.54a2.2,2.2,0,0,0,2-2.54,93.82,93.82,0,0,1,1.26-15.78,19.23,19.23,0,0,1,.5-3.4c1.25-3.7,3.33-4.23,6.39-1.57,3.66,3.19,7.13,6.54,8.8,11a80.49,80.49,0,0,1-4.89,13.59c-.8,1.91-2,3.7-1.66,5.86-5.7-1.42-8.22,4.11-13.09,5.23-.24-2-.09-3.59-.69-5-.85-2-2.37-.71-3.63-.15C703,142.73,704.36,135.36,706.34,128.05Z" transform="translate(-250.09 -18.53)"/><path class="cls-2" d="M571.71,268.55c-2.27,3.19-3.67,7-7.91,8.78-2.62-13.34-3.23-26.83-3.56-40.33a17,17,0,0,1,.18-3.42c.35-2,1.47-3.59,3.83-3.72,2.78-.15,4.15,1.58,4.46,3.83a70,70,0,0,1,.5,7.53C569.47,250.37,569.84,259.52,571.71,268.55Z" transform="translate(-250.09 -18.53)"/><path class="cls-1" d="M895.58,671.13c1.3-12.73,7-24.36,11.53-36.25.9-2.33,2.72-4.22,5.81-3,3.36,1.28,3,4.08,2.12,6.52-4.36,11.5-7.9,23.27-13.62,34.32-.88,1.71-1.3,4.69-4.38,3.84S895.41,673.11,895.58,671.13Z" transform="translate(-250.09 -18.53)"/><path class="cls-2" d="M648.09,179.52a27,27,0,0,1,3.56.4c1.2.3,2.52.64,2.64,2.08a2.44,2.44,0,0,1-1.38,2.29A42.68,42.68,0,0,1,647,187.4c-9.38,3.52-19.12,6.38-26.24,13.5a4.07,4.07,0,0,1-5.53.31,3.37,3.37,0,0,1-.61-5,22.82,22.82,0,0,1,4.47-4.64C627.62,185,637.73,181.53,648.09,179.52Z" transform="translate(-250.09 -18.53)"/><path class="cls-2" d="M1030.84,37c.14,3.9-3.32,7.55-7.65,7.91s-8.44-.64-11.43,3.6c-1,1.4-3.17-.53-3.31-2.31-.26-3.22,3.21-6.17,7.5-6.42,2-.11,4.12.31,6.11.05,2.7-.35,3.28-2,1.86-4-2.2-3.08-5.8-4.45-9.42-5.59a41,41,0,0,1-13.91-7c-1.36-1.11-2.92-2.33-1.25-4,1.2-1.2,3-.73,4.18.16,5,3.74,11.24,5.33,17,7.76C1025.5,29.26,1029.51,32.39,1030.84,37Z" transform="translate(-250.09 -18.53)"/><path class="cls-2" d="M375,402.1c-.95,4.74-4,6.5-7,8.08-5.7,3-11.65,5.71-17.39,8.69-2.85,1.47-7.11,2.52-3.2,6.89,1,1.16-.32,2.62-2.29,2.51-1-.06-1.95-.61-2.95-.68-3-.24-3.66.56-2.31,3a24.23,24.23,0,0,1,1.64,2.29,1.88,1.88,0,0,1-.36,1.81,2.59,2.59,0,0,1-2.07.26c-3.11-1.16-6.33-2.47-6.6-6-.25-3.32,2.48-4.88,5.51-5.8,2-.61,3.45-1.16,3.87-3.48.5-2.76,3.64-3.68,6.07-4.84C356.48,410.7,365.09,406.73,375,402.1Z" transform="translate(-250.09 -18.53)"/><path class="cls-1" d="M269.46,559.14c1.59-10.26,3.27-20.69,4.81-31.14.37-2.52.94-4.65,4.43-4.41a4.15,4.15,0,0,1,4.17,4.9c-1.14,11.23-3.4,22.26-9.13,32.47-.59,1-1.57,2.14-2.94,1.77C269,562.25,268.91,560.78,269.46,559.14Z" transform="translate(-250.09 -18.53)"/><path class="cls-2" d="M1122.91,359.92c-4.06-2.67-5.4-6-7.45-8.84-4.33-6-10.88-6.21-15.38-.26-2.47,3.26-4.24,6.87-3,11,.45,1.47.35,2.89-1.57,3.29-1.73.36-2.84-.74-3.58-2-2.18-3.82.57-12.61,5.34-17.19a15.23,15.23,0,0,1,16.08-3.54C1119.07,344.66,1123.26,351.9,1122.91,359.92Z" transform="translate(-250.09 -18.53)"/><path class="cls-2" d="M752.39,194.58c1.35,3.21,2.67,6.43,4.05,9.62.69,1.6,1.22,3.32-.81,4.22s-3.36-.82-4.15-2.13c-1.71-2.81-3-5.81-4.58-8.68-1.35-2.45-2.88-4.82-4.32-7.23-2.1-5.89-5.58-11.2-8.55-16.73a44.49,44.49,0,0,1-2.25-4.33,1.85,1.85,0,0,1,.91-2.38,2.29,2.29,0,0,1,2.78.29,25.92,25.92,0,0,1,3.34,4.51c3.12,5.47,6.13,11,9.15,16.51A25.37,25.37,0,0,0,752.39,194.58Z" transform="translate(-250.09 -18.53)"/><path class="cls-2" d="M553.21,789c-1.59,3.13-4.68,3.27-7.23,3.39-9,.45-17.79-.51-26-4.24-3.74-1.7-6.68-4.18-8.12-7.84a1.86,1.86,0,0,1,.73-2.45,2.52,2.52,0,0,1,2.81.12,6.31,6.31,0,0,1,1.54,1.51c3.3,4.27,8.27,5.79,13.58,6.92C537.92,788,545.56,787.64,553.21,789Z" transform="translate(-250.09 -18.53)"/><path class="cls-2" d="M668.79,757.78a8.46,8.46,0,0,1-8.13,8.5,8.12,8.12,0,0,1-7.91-8.56c.1-4.67,3.66-8.89,7.64-9.05C664.71,748.49,668.82,753,668.79,757.78Z" transform="translate(-250.09 -18.53)"/><path class="cls-1" d="M398.87,479.49c0,4.72-4.1,9-8.51,9-4.17-.06-7.91-4.13-7.95-8.65-.05-5,4.4-9.7,8.89-9.46C394.93,470.55,398.86,475.3,398.87,479.49Z" transform="translate(-250.09 -18.53)"/><path class="cls-2" d="M479.89,168.39c-5.63-.08-9.27-3-9-7.2.28-4.37,4.83-8,9.79-7.75,4.21.18,8.37,4.48,8.21,8.48S485.1,168.46,479.89,168.39Z" transform="translate(-250.09 -18.53)"/><path class="cls-1" d="M532.37,809.39c-5.75-.73-11.64-1.15-16.37-4.72-2-1.5-4-3.28-2-5.8,1.57-2,4-1.9,6.14-.84,5.7,2.76,12.13,3.18,18.2,4.73,1.46.37,3.21.35,3.32,2.13.09,1.56-1.25,2.43-2.62,3.07A14.6,14.6,0,0,1,532.37,809.39Z" transform="translate(-250.09 -18.53)"/><path class="cls-2" d="M704.33,150.28c1.26-.56,2.78-1.82,3.63.15.6,1.38.45,3,.69,5,4.87-1.12,7.39-6.65,13.09-5.23a10.94,10.94,0,0,1,8,6.77c.47,1.09.66,2.37-.45,3.19s-2.41.18-3.34-.62-1.65-1.74-2.49-2.59c-2.11-2.12-4.39-2-6.7-.31A28.37,28.37,0,0,0,714,159c-2.05,2-4.36,3.38-7.41,2.12-3.26-1.34-4-4-3.59-6.92A22.45,22.45,0,0,1,704.33,150.28Z" transform="translate(-250.09 -18.53)"/><path class="cls-1" d="M854.92,194.93c-5.46-.72-10.45-3.23-16.06-3.34,1-2.59,1.94-5.24,3.17-7.76a7.25,7.25,0,0,1,7.89-4.3c3.51.4,5.19,2.62,6.26,5.39C857.54,188.44,856.48,191.71,854.92,194.93Z" transform="translate(-250.09 -18.53)"/><path class="cls-2" d="M413.59,230a6.09,6.09,0,0,1-1.25,1.68c-8,5.44-14,12.81-22.21,18.05-.32-3.54.72-6.87,2.11-10.09C396.1,230.69,402.8,227.71,413.59,230Z" transform="translate(-250.09 -18.53)"/><path class="cls-1" d="M1057.33,220.34c7.2-6.68,11.78-14.79,15.77-23.23,7.14,9.27,2.35,20.62-9.76,22.93A41.23,41.23,0,0,1,1057.33,220.34Z" transform="translate(-250.09 -18.53)"/><path class="cls-1" d="M984.92,127.26c-10.49,3.6-19.66,9.29-28.9,14.87,2.19-12.27,12.88-18.63,25.9-15.43C982.9,126.94,983.92,127.08,984.92,127.26Z" transform="translate(-250.09 -18.53)"/><path class="cls-1" d="M730.86,123c-2.43-2.23-4.93-4.41-7.27-6.71a16.91,16.91,0,0,0-9.51-4.92c.27-1.63,1.48-2.36,3.16-2.48a40.36,40.36,0,0,0,6.78-.77c6.18-1.47,10,1.39,9.67,7.15A12.23,12.23,0,0,1,730.86,123Z" transform="translate(-250.09 -18.53)"/><path class="cls-1" d="M1033.6,122.65c-2.14-2.49-2.66-5.58-3.91-8.4,1,0,2,0,3,0,11.81-1,16,3.29,13.87,14.26l-9.46-4.13c.68-.67,1.37-1.5.42-2.25C1036.13,121,1034.82,121.82,1033.6,122.65Z" transform="translate(-250.09 -18.53)"/><path class="cls-2" d="M263.44,726.64q-8.24,4.17-12.29-1.42c-2.21-3-.85-7.45,2.94-9.52,1.89-1,3.88-1.41,5.71,0,1.54,1.17,2.24,2.62.11,3.93-1.32.8-4.13-.13-4,2.28.14,2.23,2.56,2.59,4.44,3.24C261.46,725.51,263,725.16,263.44,726.64Z" transform="translate(-250.09 -18.53)"/><path class="cls-1" d="M811.87,363.22c3.67-.13,7.3,2.45,7.67,5.45s-3.14,6.42-6.45,6.52a6.37,6.37,0,0,1-6.37-6.43C806.64,365.26,808.43,363.34,811.87,363.22Z" transform="translate(-250.09 -18.53)"/><path class="cls-1" d="M1075.05,164c-2.7-6.09-5-12.35-8.39-18.16a32.59,32.59,0,0,1,5.21.92C1080.92,150,1082.3,157.6,1075.05,164Z" transform="translate(-250.09 -18.53)"/><path class="cls-1" d="M411,384.46a5.49,5.49,0,0,1-5.48,5.45c-2.92,0-6.39-3.49-6.45-6.56,0-2.87,1.88-4.69,5.08-4.79C407.82,378.45,410.87,381.08,411,384.46Z" transform="translate(-250.09 -18.53)"/><path class="cls-1" d="M578.75,120.24a6,6,0,0,1-5.81,6.09c-2.87,0-5.65-2.94-5.37-5.65.33-3.15,4.13-6.46,7.08-6.17C577.31,114.78,578.84,116.92,578.75,120.24Z" transform="translate(-250.09 -18.53)"/><path class="cls-2" d="M415.32,489.58c-2.79,0-5.3-2.27-5.22-4.89s1.58-4.29,4.66-4.38c2.92-.1,5.67,2.06,5.78,4.41C420.66,487.23,418.13,489.59,415.32,489.58Z" transform="translate(-250.09 -18.53)"/><path class="cls-1" d="M480.24,748.35c-.16,2.43-1.5,4.15-4.64,4.15s-7-3.82-6.51-6.54c.39-2.32,2.17-3.59,4.77-3.57C477.12,742.41,480.25,745.33,480.24,748.35Z" transform="translate(-250.09 -18.53)"/><path class="cls-2" d="M811.73,828.8c-1.32,0-2.55-.34-3.11-1.51a1.56,1.56,0,0,1,1-2.2c2.83-1.16.79-2.25.19-3.63-.92-2.15.53-3.51,2.92-3.14,3.29.52,6.24,3.63,5.84,6.16C818.24,826.77,815,828.78,811.73,828.8Z" transform="translate(-250.09 -18.53)"/><path class="cls-1" d="M419.25,205.85c2.47.26,3.79,1.67,3.77,4.08a5.29,5.29,0,0,1-5.21,4.93c-2.86-.07-4-1.78-4-4.07C413.78,208.18,416.43,205.79,419.25,205.85Z" transform="translate(-250.09 -18.53)"/><path class="cls-1" d="M433.66,196.55a3.59,3.59,0,0,1,3.54,3.72c.11,2.57-2.59,4.89-5.45,4.54-2.22-.27-3.85-1.42-4-3.54S431.18,196.5,433.66,196.55Z" transform="translate(-250.09 -18.53)"/><path class="cls-2" d="M941.76,311.15a4.73,4.73,0,0,1-4.87,5.26c-2.77,0-4.14-1.46-4.22-3.86s2.57-4.74,5.42-4.65A3.38,3.38,0,0,1,941.76,311.15Z" transform="translate(-250.09 -18.53)"/><path class="cls-1" d="M990.24,272.93c-.36,2.39-1.24,4.16-4,4.41-2.35.21-3.9-.68-4.09-2.92s.51-4.18,3.22-4.61S989.31,271.15,990.24,272.93Z" transform="translate(-250.09 -18.53)"/><path class="cls-2" d="M917.1,718.33c-.44,2-1.85,3.13-4.22,3-2.09-.11-3.23-1.34-3.2-3.16,0-2.33,1.68-3.18,4.07-2.94C915.67,715.43,917.14,716.19,917.1,718.33Z" transform="translate(-250.09 -18.53)"/><path class="cls-2" d="M1111,354.53c0,2.57-1.81,3.43-3.8,3.94s-3.84.16-4.23-1.75c-.44-2.1,1.67-2.5,3.44-2.77C1108,353.7,1109.81,353.08,1111,354.53Z" transform="translate(-250.09 -18.53)"/><path class="cls-1" d="M887,314.5c-.28,1.9-1.67,2.68-3.62,2.65s-3.62-.87-3.4-2.77a3.31,3.31,0,0,1,3.52-2.93C885.45,311.51,886.47,312.84,887,314.5Z" transform="translate(-250.09 -18.53)"/><path class="cls-1" d="M923,349.46c-.28,2.07-1.34,3.36-3.44,3.28s-3.33-1.29-3.06-3.21,1.81-2.64,3.84-2.59S922.84,348.23,923,349.46Z" transform="translate(-250.09 -18.53)"/><path class="cls-1" d="M487,779.39c1.19-.25,2.53-.28,3.07-1.58,1.59.37,3.16,1.15,2.45,2.71-.85,1.91-2.51.43-3.76.06A6.67,6.67,0,0,1,487,779.39Z" transform="translate(-250.09 -18.53)"/><path class="cls-2" d="M1109.46,1095.59a1.28,1.28,0,0,1-1.28,1.39c-1.31.16-1.86-.63-1.69-1.65a1.28,1.28,0,0,1,1.62-1C1108.91,1094.44,1109.46,1094.78,1109.46,1095.59Z" transform="translate(-250.09 -18.53)"/><path class="cls-1" d="M714.12,111.34a1.71,1.71,0,0,1-1.83,1.3A1.8,1.8,0,0,1,714.12,111.34Z" transform="translate(-250.09 -18.53)"/><path class="cls-2" d="M857.92,521.79c-16-1.44-32.12-1.55-48.1-3.52-12.39-1.53-24.91-2.22-37.38-3.24q-23.66-1.93-47.32-3.78-20.24-1.61-40.48-3.12-17.57-1.33-35.13-2.67c-2-.16-4.62-.14-4.09-2.83.43-2.23,2.85-2.65,4.91-2.22,6.58,1.37,13.38.22,19.86,1.32,8.35,1.42,16.8,1.1,25.18,2.1,14.16,1.68,28.52,2,42.74,3.29,20.57,1.89,41.22,3,61.78,5,13.68,1.38,27.37,3,41.21,3.38,7.11.18,14.24,1.08,21.4,1.23a17,17,0,0,1,4.44.91c.93.29,1.95.76,1.9,1.9a2.38,2.38,0,0,1-2.49,2.16C863.55,521.91,860.73,521.79,857.92,521.79Z" transform="translate(-250.09 -18.53)"/><path class="cls-2" d="M854.22,491.63c-28.42.49-56.88.91-85.24-.38-34.3-1.56-68.57-.41-102.84-.74-6.11-.06-12.18,1.32-18.35.95-1.53-.1-3.08,0-4.6-.11-1.86-.16-3.75-.66-3.55-2.78.16-1.58,1.74-2.11,3.34-2.29a19.68,19.68,0,0,1,2.3-.11c34.8-.09,69.6-2.44,104.37-1,19.18.8,38.36.5,57.51,1.36,11.49.51,22.91,1.32,34.42.1,3.21-.34,6.59.53,9.88.93,2.73.34,3,2.11,2.7,4.12Z" transform="translate(-250.09 -18.53)"/><path class="cls-3" d="M428.1,333.41c-16.54-9.87-28.05-23.77-38.09-38.77a79.28,79.28,0,0,1-10.35-21.33c2.92-4.31,5.37-9,11.06-11.05a72,72,0,0,0,7.6,21.51C406,298.38,417.84,309.9,431.61,320Z" transform="translate(-250.09 -18.53)"/><path class="cls-2" d="M431.61,320c-13.77-10.08-25.6-21.6-33.29-36.21a72,72,0,0,1-7.6-21.51c1.42-3.44,3.58-6.2,7.88-7,2.14,21.3,13.79,38.11,30.64,52.48,2.19,1.87,4.36,3.77,6.55,5.66C435.51,316.16,433.3,317.94,431.61,320Z" transform="translate(-250.09 -18.53)"/><path class="cls-2" d="M615.71,398.79c0-8,3.67-12.61,10.43-13.49,7.16-.93,14.88,3.88,16.7,10.4,1.54,5.52-4.41,15.68-10.24,17.8a9.4,9.4,0,0,1-8.66-1.17C618.67,409,615.24,404.61,615.71,398.79Z" transform="translate(-250.09 -18.53)"/><path class="cls-2" d="M573.66,371.87c-2.79-1.4-2-3.47-1.66-5.51,1.72-9.79,4.79-19.27,8.16-28.67,3.52-9.85,7.2-19.66,10.85-29.48a39.46,39.46,0,0,1,2-4.45,2.33,2.33,0,0,1,2.52-1.18,2.11,2.11,0,0,1,1.83,2.6,19.27,19.27,0,0,1-1,4q-10.62,30.62-21.32,61.2C574.91,371,574.16,371.38,573.66,371.87Z" transform="translate(-250.09 -18.53)"/><path class="cls-2" d="M562.09,352.28a18.15,18.15,0,0,1,.51-2.11c6.37-17,11.66-34.26,20.19-50.52a29.42,29.42,0,0,1,3-4.75,2.83,2.83,0,0,1,3.47-.59c1.44.67,1.2,1.85.62,3a171.92,171.92,0,0,0-8.33,18.5c-4,10.42-8,20.83-12,31.22-.85,2.17-1.92,4.26-2.87,6.39-.57,1.28-1.06,2.83-3.07,2.3S562.24,353.5,562.09,352.28Z" transform="translate(-250.09 -18.53)"/><path class="cls-2" d="M759.51,499.78c-1.06,1.82-3.06,1.29-4.73,1.36-20,.85-39.87-1.77-59.85-1.45a5.1,5.1,0,0,1-1.52-.11c-1.85-.55-4.63-.53-4.3-3,.24-1.83,2.48-2.05,4.35-2,7.43.09,14.94-.4,22.26.43,7.93.9,15.84.57,23.74,1.07,5.86.37,11.7,1,17.53,1.61C758.16,497.78,759.48,498.24,759.51,499.78Z" transform="translate(-250.09 -18.53)"/><path class="cls-3" d="M567.85,715.79c-.38,1.29-.88,2.57-1.14,3.89-1.33,6.93-1.42,7.2-8.8,7.41-8.87.25-17.1-2.22-25.08-5.47a2.13,2.13,0,0,1-1.27-2.87C543.78,719,555.71,716.35,567.85,715.79Z" transform="translate(-250.09 -18.53)"/><path class="cls-2" d="M669.81,608.37c3.55,0,8.54,4.87,9,8.52.42,3.39-2.66,7.87-6,8.65-2.85.65-5.21-.35-6.39-2.6a13.93,13.93,0,0,1-.48-11.93A4.33,4.33,0,0,1,669.81,608.37Z" transform="translate(-250.09 -18.53)"/><path class="cls-2" d="M878.29,520.05c-1.63.45-3.19.65-3.76-1.19-.49-1.58.67-2.62,1.92-3.45,2.71-1.82,5.74-2.25,8.55-.45s4.69,4.33,3.22,7.7c-1.21,2.79-2.47,5.63-5.73,7.06a3.15,3.15,0,0,1-2.16,0,1.65,1.65,0,0,1-1-2.29c.56-1.28,1.35-2.48,1.88-3.77C882.62,520.28,882.34,520,878.29,520.05Z" transform="translate(-250.09 -18.53)"/><path class="cls-2" d="M854.16,491.69a11.33,11.33,0,0,1,9.72,4.33c2.93,3.43,6,6.77,8.92,10.2.76.89,1.4,2.08.42,3.13a2.78,2.78,0,0,1-4.05-.17c-5.4-5.55-12.61-9.89-14.95-17.55Z" transform="translate(-250.09 -18.53)"/><path class="cls-2" d="M942,431a6.53,6.53,0,0,1-6.2,6.65c-3.4.11-6.28-2.64-6-5.77a7.12,7.12,0,0,1,7.27-6.6C940.41,425.45,942.06,427.35,942,431Z" transform="translate(-250.09 -18.53)"/><path class="cls-3" d="M461.94,457.09c.58-1.41,1.8-1.33,3-.94,2.34.73,4.66,1.54,7,2.32-.7,1.49-2.32,1.2-3.63,1.5C466.2,459,463.18,459.65,461.94,457.09Z" transform="translate(-250.09 -18.53)"/><path class="cls-3" d="M474.37,440.6c-.89-.19-2.12,0-1.73-1.44C473.67,439.2,474,439.89,474.37,440.6Z" transform="translate(-250.09 -18.53)"/><path class="cls-3" d="M783,213.49c.32-2.14,2.29-2.89,4-3.83,13.27-7.18,27.41-12.1,42.94-13.39,3-.25,6.13-.61,9,.88,0,1.14-.09,2.28,0,3.42.14,2.87,1.92,4.6,4.81,5.57s4.88-.45,6.71-2.12c1.25-1.15,2.42-2.36,3.63-3.54,35.52,13.1,42.77,57,19.6,82.67-16.77,18.55-38.79,27.13-65.44,25.84q2.3-9.39,4.58-18.8c1.53-.13,3.07-.23,4.59-.41,22.31-2.61,40-18.95,42.3-39,1.63-14.23-7.93-26.48-22.56-28.53a52.76,52.76,0,0,0-17.58.59c-7.35,1.45-13.87,4.65-20.59,7.45C794.41,224,790.33,217.51,783,213.49Z" transform="translate(-250.09 -18.53)"/><path class="cls-1" d="M783,213.49c7.35,4,11.43,10.55,15.94,16.76a54.49,54.49,0,0,1-11.06,7.3,16.66,16.66,0,0,0-7,6.23c-8.94,14.09-4,30.69,8.46,39a42.81,42.81,0,0,0,23.47,7.44q-2.29,9.4-4.58,18.8c-17.26-.92-32.71-5.61-43.42-18.56-11.7-14.15-14.73-29.46-8.4-46.72,3.94-10.75,10.73-19.1,19.51-26.62C777.88,215.36,779.75,213.33,783,213.49Z" transform="translate(-250.09 -18.53)"/><path class="cls-3" d="M887.43,224.07c-4.8-7.18-7.2-7.33,3.27-13.52a87.9,87.9,0,0,1,36.41-11.92c5.14-.52,5.55.12,6.66,4.56.6,2.4.31,3.72-2.92,4.29-14.76,2.61-28,8.61-40.72,15.55A23.87,23.87,0,0,1,887.43,224.07Z" transform="translate(-250.09 -18.53)"/><path class="cls-1" d="M1035.9,129.48c2.93.64,5.74,1.48,7.59,3.85-1.56,3.93-4.78,6.92-7.17,10.38a34.25,34.25,0,0,0-3.6,6c-.92,2.2.1,3.72,3,3,2.67-.64,5.23-1.67,7.84-2.54,5.19-1.76,10.27-3.87,15.94-4.17a10.81,10.81,0,0,1,4.13,6.93c-8.93,1-16.76,5.35-25.48,7a70.76,70.76,0,0,0-15.07-8.52c.81-5.09,3.91-9.21,7-13.32C1032.15,135.28,1034.86,132.85,1035.9,129.48Z" transform="translate(-250.09 -18.53)"/><path class="cls-3" d="M963.33,144.52a36.9,36.9,0,0,1,16.85-9.25c1.89,4.69,3.77,9.4,5.7,14.09,1,2.31,1.34,4.91,3.87,6.47-4.33,3.26-9.21,5.78-14,8.42-1.7-2.23-3.1-4.71-5.16-6.63A23.12,23.12,0,0,1,963.33,144.52Z" transform="translate(-250.09 -18.53)"/><path class="cls-1" d="M938.33,199.9c-2-9.92-2.82-19.74,3.45-28.87,7.49.08,14.35,3.72,22,3.12l-3.36,7.78c-4.43.19-8.55-1.12-12.71-2.2-2.57-.67-5-1-7,1.13a5.76,5.76,0,0,0-.91,7.09,13.24,13.24,0,0,0,8.16,6.81c4.23,1.39,8.54,1.15,12.87,1.06l3.94,8.35A68,68,0,0,1,938.33,199.9Z" transform="translate(-250.09 -18.53)"/><path class="cls-3" d="M1035.9,129.48c-1,3.37-3.75,5.8-5.85,8.59-3.1,4.11-6.2,8.23-7,13.32h-15c-.93-5.31,1.72-9.68,4.43-14.08,2.49-4,6.6-6.83,9.47-10.54C1027,126,1031.41,127.94,1035.9,129.48Z" transform="translate(-250.09 -18.53)"/><path class="cls-3" d="M1069.69,169.15c2.09,7.82,1.3,15.51-1.35,23.11-8.51-3.92-18.21-6.09-24.41-13.41l.24-3.22C1052.76,173.74,1061.69,172.91,1069.69,169.15Z" transform="translate(-250.09 -18.53)"/><path class="cls-3" d="M963.74,174.15c-7.61.6-14.47-3-22-3.12a5.41,5.41,0,0,1,.5-4.59c3.78-5.8,7.3-11.79,13.41-16,.68,2.94,2.59,5.32,4.39,7.74,2.63,3.55,6.38,6.35,8.39,10.3C966.89,170.36,965.31,172.25,963.74,174.15Z" transform="translate(-250.09 -18.53)"/><path class="cls-3" d="M1065.07,200c-.73,4.37-3.74,7.68-6.37,11.17-4.84.2-7.7-3-11.06-5.28s-6.23-5.33-10.68-6.11c.62-4,3.13-7.33,4.94-10.9C1049.08,193.48,1057.44,196.12,1065.07,200Z" transform="translate(-250.09 -18.53)"/><path class="cls-3" d="M1021.93,234.61a23.91,23.91,0,0,1-12.13,2.57c-3.65-3.26-3.91-7.09-2.47-11.26.9-2.58,1.71-5.18,2.55-7.77a56.89,56.89,0,0,1,10.46-4.69,68.17,68.17,0,0,1,3.22,19.84l0,0A1.63,1.63,0,0,0,1021.93,234.61Z" transform="translate(-250.09 -18.53)"/><path class="cls-3" d="M1051.42,216.79a3.94,3.94,0,0,1-1.85,3.56c-5.18,4-10.4,8-17,10.19l-1.08-6.69c-.91-5.58-2.76-11.08-1.77-16.82l1.48-1.39c4.18.68,6.94,3.42,10.1,5.6S1047.1,216.35,1051.42,216.79Z" transform="translate(-250.09 -18.53)"/><path class="cls-3" d="M964.85,232.2a24.47,24.47,0,0,1-7.49-4.63c-.62-3.15.4-5.66,3.17-7.8,3.62-2.8,7-5.87,10.44-8.82l9.44,5.61c-1.78,3.26-3.54,6.54-5.37,9.79C972.93,230.08,969.81,232.45,964.85,232.2Z" transform="translate(-250.09 -18.53)"/><path class="cls-3" d="M998.87,238.61a77,77,0,0,1-20.11-1.56c-.29-2,1.26-3.4,2.37-4.87a48.64,48.64,0,0,0,7-12.84l12,.31A32.34,32.34,0,0,0,998.87,238.61Z" transform="translate(-250.09 -18.53)"/><path class="cls-3" d="M1059.46,146c-5.67.3-10.75,2.41-15.94,4.17-2.61.87-5.17,1.9-7.84,2.54-2.86.68-3.88-.84-3-3a34.25,34.25,0,0,1,3.6-6c2.39-3.46,5.61-6.45,7.17-10.38A29.21,29.21,0,0,1,1059.46,146Z" transform="translate(-250.09 -18.53)"/><path class="cls-1" d="M1022,126.78c-2.87,3.71-7,6.51-9.47,10.54-2.71,4.4-5.36,8.77-4.43,14.08l-9.54,1.47c0-8.22,3.28-15.44,8.61-22,1-1.27,2.27-2.42,2.51-4.09C1013.75,125.73,1017.85,124.3,1022,126.78Z" transform="translate(-250.09 -18.53)"/><path class="cls-3" d="M1038.1,159.91c8.73-1.63,16.56-5.94,25.49-7a9.82,9.82,0,0,1,3.65,8.31c-7.83,3.89-16.62,4.89-25.11,6.77Z" transform="translate(-250.09 -18.53)"/><path class="cls-3" d="M938.33,199.9a68.06,68.06,0,0,0,26.4,4.27,3.54,3.54,0,0,1,.39,1.27c-5.32,4.93-12.24,8.5-15.73,15C942.68,214.9,940,207.63,938.33,199.9Z" transform="translate(-250.09 -18.53)"/><path class="cls-3" d="M1009.64,126.79c-.24,1.67-1.47,2.82-2.51,4.09-5.33,6.55-8.57,13.77-8.61,22a5.83,5.83,0,0,1-1.11.17,38,38,0,0,1-4.45-9.19c-1.46-4-2.69-8.15-5.28-11.78A48.1,48.1,0,0,1,1009.64,126.79Z" transform="translate(-250.09 -18.53)"/><path class="cls-1" d="M1065.07,200c-7.63-3.86-16-6.5-23.17-11.12q1-5,2-10c6.2,7.32,15.9,9.49,24.41,13.41C1067.75,195,1067,197.71,1065.07,200Z" transform="translate(-250.09 -18.53)"/><path class="cls-1" d="M1042.13,168c8.49-1.88,17.28-2.88,25.11-6.77a12.37,12.37,0,0,1,2.45,7.91c-8,3.76-16.93,4.59-25.53,6.47Q1043.16,171.81,1042.13,168Z" transform="translate(-250.09 -18.53)"/><path class="cls-1" d="M968.47,168.46c-2-4-5.76-6.75-8.39-10.3-1.8-2.42-3.71-4.8-4.39-7.74,1.6-2.95,4.53-4.52,7.64-5.9a23.12,23.12,0,0,0,7.25,13.1c2.06,1.92,3.46,4.4,5.16,6.63C974.07,166.7,971.17,167.44,968.47,168.46Z" transform="translate(-250.09 -18.53)"/><path class="cls-1" d="M987.68,132.07c2.59,3.63,3.82,7.74,5.28,11.78A38.37,38.37,0,0,0,997.4,153a16.28,16.28,0,0,1-7.65,2.79c-2.53-1.56-2.92-4.16-3.87-6.47-1.93-4.69-3.81-9.4-5.7-14.09C982.15,133.21,985,132.79,987.68,132.07Z" transform="translate(-250.09 -18.53)"/><path class="cls-1" d="M1029.76,207c-1,5.74.86,11.24,1.77,16.82l1.08,6.69a12,12,0,0,1-9,2.76,68.17,68.17,0,0,0-3.22-19.84Z" transform="translate(-250.09 -18.53)"/><path class="cls-1" d="M1051.42,216.79c-4.32-.44-6.94-3.39-10.08-5.55s-5.92-4.92-10.1-5.6a15.79,15.79,0,0,1,5.72-5.88c4.45.78,7.3,3.81,10.68,6.11s6.22,5.48,11.06,5.28C1056.78,213.56,1055.13,216.25,1051.42,216.79Z" transform="translate(-250.09 -18.53)"/><path class="cls-1" d="M949.39,220.42c3.49-6.48,10.41-10,15.73-15A20.41,20.41,0,0,1,971,211c-3.47,3-6.82,6-10.44,8.82-2.77,2.14-3.79,4.65-3.17,7.8A19.1,19.1,0,0,1,949.39,220.42Z" transform="translate(-250.09 -18.53)"/><path class="cls-1" d="M988.11,219.34a48.64,48.64,0,0,1-7,12.84c-1.11,1.47-2.66,2.83-2.37,4.87-4.7-1.48-9.71-2.22-13.91-4.85,5,.25,8.08-2.12,10.19-5.85,1.83-3.25,3.59-6.53,5.37-9.79C983.12,217.17,985.9,217.62,988.11,219.34Z" transform="translate(-250.09 -18.53)"/><path class="cls-1" d="M998.87,238.61a32.34,32.34,0,0,1,1.25-19l9.76-1.5c-.84,2.59-1.65,5.19-2.55,7.77-1.44,4.17-1.18,8,2.47,11.26C1006.38,239,1002.59,238.62,998.87,238.61Z" transform="translate(-250.09 -18.53)"/><path class="cls-1" d="M854,200.48c-1.21,1.18-2.38,2.39-3.63,3.54-1.83,1.67-3.79,3.1-6.71,2.12s-4.67-2.7-4.81-5.57c-.06-1.14,0-2.28,0-3.42C844.33,196.81,849.2,198.55,854,200.48Z" transform="translate(-250.09 -18.53)"/><path class="cls-3" d="M1033.6,122.65c1.22-.83,2.53-1.7,4-.56,1,.75.26,1.58-.42,2.25C1035.86,124,1034.44,123.8,1033.6,122.65Z" transform="translate(-250.09 -18.53)"/><path class="cls-1" d="M1021.93,234.61a1.63,1.63,0,0,1,1.61-1.33C1023.47,234.18,1022.81,234.5,1021.93,234.61Z" transform="translate(-250.09 -18.53)"/><path class="cls-1" d="M1002.3,473.79c2.79,3.81,4.51,7.89,8,11s7.47,5.42,11.23,8.71c-3.8,3.73-7,7.51-8.68,12.14-.54,1.51-1.36,2.21-3.31,1.87-6.74-1.18-13.55-2.05-19.64-5.2-6.51-3.36-8-7-4.74-13.13C988.73,482.42,994.47,477.44,1002.3,473.79Z" transform="translate(-250.09 -18.53)"/><path class="cls-1" d="M1054.39,483.5c-10-.76-18,.09-25,4.73-2,1.37-4.4,1-6.47-.26-5.86-3.43-10.79-7.62-13.87-13.42-1.15-2.17-.61-3.47,1.8-4.25,1.19-.4,2.43-.68,3.63-1.08,7.75-2.56,16-2.33,24-3.65,2.9-.48,5,.44,5.82,3.14C1046,473.89,1049.54,478,1054.39,483.5Z" transform="translate(-250.09 -18.53)"/><path class="cls-1" d="M983,504.2c7.94,4.78,15.93,7.43,24.93,7.1,1.57-.05,3.35.15,3.82,1.68,1.22,4,.49,8.21,1.86,12.2.13.37-.74,1.16-1.32,1.55a6.86,6.86,0,0,1-2.11.74c-17.15,4.08-22.08,2.47-26.59-13.93C982.81,510.8,981.07,507.89,983,504.2Z" transform="translate(-250.09 -18.53)"/><path class="cls-1" d="M1089.39,443.11c2.75,7.63.65,15.16-.61,22.71a2.57,2.57,0,0,1-.66-.34C1078.54,455.44,1078.71,452.56,1089.39,443.11Z" transform="translate(-250.09 -18.53)"/><path class="cls-2" d="M812.76,290.19a42.81,42.81,0,0,1-23.47-7.44c-12.48-8.28-17.4-24.88-8.46-39a16.66,16.66,0,0,1,7-6.23,54.49,54.49,0,0,0,11.06-7.3c6.72-2.8,13.24-6,20.59-7.45a52.76,52.76,0,0,1,17.58-.59c14.63,2,24.19,14.3,22.56,28.53-2.29,20.09-20,36.43-42.3,39C815.83,290,814.29,290.06,812.76,290.19Zm0-5.81c23.3,1.21,45.55-21,41.16-41.31-1.76-8.11-7-13.91-16.3-15.62-13.34-2.45-25.18,1-35.79,8.35-5.4,1.8-9,5.84-13.45,8.79s-6.08,7.18-6.43,11.94C780.74,272.66,793.8,284.46,812.71,284.38Z" transform="translate(-250.09 -18.53)"/><path class="cls-2" d="M1009.88,218.15l-9.76,1.5-12-.31c-2.21-1.72-5-2.17-7.7-2.78L971,211a20.41,20.41,0,0,0-5.85-5.51,3.54,3.54,0,0,0-.39-1.27q-2-4.17-4-8.35-.19-6.94-.4-13.89l3.36-7.78c1.57-1.9,3.15-3.79,4.73-5.69,2.7-1,5.6-1.76,7.27-4.21,4.8-2.64,9.68-5.16,14-8.42A16.28,16.28,0,0,0,997.4,153a5.82,5.82,0,0,0,1.12-.17l9.54-1.47h15a70.76,70.76,0,0,1,15.07,8.52c1.33,2.7,2.68,5.4,4,8.1q1,3.8,2,7.61c-.07,1.08-.15,2.16-.23,3.23q-1,5-2,10c-1.81,3.57-4.32,6.89-4.94,10.9a15.79,15.79,0,0,0-5.72,5.88l-1.48,1.39-9.42,6.43A56.89,56.89,0,0,0,1009.88,218.15Zm-34.09-45.74,0,0c-4.78,1.08-7.86,3.51-8,8.23-3.61,4.41-2.59,9.18-1.32,14,1.32,4.36,3,8.49,7.65,11,1.1,3.59,5.22,3.83,7.86,5.7,10.18,4.77,20.33,3.85,30.46-.13,3.28-1.31,6.75-2.56,8.9-5.19,2.59-3.17,5.77-5.72,8.77-8.5,4.49-4.15,7.27-9.52,6.74-15.56a31.86,31.86,0,0,1,.06-8.83c.85-4.61-2.65-9.73-7.37-11.78-1.59-.69-3.44-1.09-4.79-2.05-7-5-14.12-4.05-21.41-.73-1.58.72-3.18,2-4.76,2-9.33,0-15.46,5.17-21.63,10.36C976.15,171.13,975.68,171.59,975.79,172.41Z" transform="translate(-250.09 -18.53)"/><path class="cls-3" d="M960.38,181.93q.2,6.94.4,13.89c-4.33.09-8.64.33-12.87-1.06a13.24,13.24,0,0,1-8.16-6.81,5.76,5.76,0,0,1,.91-7.09c2-2.13,4.44-1.8,7-1.13C951.83,180.81,956,182.12,960.38,181.93Z" transform="translate(-250.09 -18.53)"/><path class="cls-1" d="M801.78,235.8c7.26,11.42,10,23.94,11,36.85.3,3.89,0,7.82-.06,11.73-18.91.08-32-11.72-30.81-27.85.35-4.76,2-9,6.43-11.94S796.38,237.6,801.78,235.8Z" transform="translate(-250.09 -18.53)"/><path class="cls-1" d="M982,211.29c4.25.29,7.18-3,11.38-3.21,6.67-.26,13,.44,19.08,3.08C1002.33,215.14,992.18,216.06,982,211.29Z" transform="translate(-250.09 -18.53)"/><path class="cls-1" d="M966.49,194.59c.76,0,1.54,0,2.29.09,8.68,1,10.13,4,5.36,10.91C969.52,203.08,967.81,199,966.49,194.59Z" transform="translate(-250.09 -18.53)"/><path class="cls-1" d="M975.83,172.39c0,4.86-2.46,7.75-8,8.23C968,175.9,971.05,173.47,975.83,172.39Z" transform="translate(-250.09 -18.53)"/><path class="cls-1" d="M977,170.89a1.29,1.29,0,0,1-1.18,1.52C975.68,171.59,976.15,171.13,977,170.89Z" transform="translate(-250.09 -18.53)"/></svg>