<svg id="Layer_1" data-name="Layer 1" xmlns="http://www.w3.org/2000/svg" viewBox="0 0 789.29 615.15"><defs><style>.cls-1{fill:#fff;}.cls-2{fill:#eaad5f;}.cls-3{fill:#d38523;}</style></defs><title>Librarians</title><path class="cls-1" d="M529.4,389c-.67,5.53.71,11.19-1,16.66a55.64,55.64,0,0,0-13.15.3c-1-1.34-.86-2.93-.91-4.46-.27-8.51-1.58-16.91-2.67-25.33-.27-2.06.11-5.54-3.23-5-2.93.44-1.59,3.41-1.39,5.37,1,9.6,2.65,19.13,2.61,28.82-5.82.46-11.7.18-17.49,1.16-2.84-6.95-4.43-14.28-6.67-21.42a32,32,0,0,0-1.49-4.36c-.61-1.27-1.68-2.21-3.26-1.48-1.26.59-1.4,1.74-1.05,2.95.26.93.63,1.82.9,2.75q3,10.28,5.93,20.56c-5.81.5-5.73.48-7-5.14-1.19-5.24-2.53-10.45-3.83-15.67-.48-1.91-1.06-4.19-3.59-3.52-2.34.62-1.46,2.74-1,4.38,2,6.9,2.44,14.28,6.72,20.61l-5.57.67c-1.8-1.38-2.26-3.56-3.1-5.47-3.17-7.26-6.23-14.57-9.34-21.85a30.36,30.36,0,0,0-4.27-7.54c-.46-.57-1.07-1.21-2-.78a1.61,1.61,0,0,0-.75,2,38.74,38.74,0,0,0,2.53,8.29q5.22,12.58,10.43,25.15a120.52,120.52,0,0,1-14.46,1.09,88.53,88.53,0,0,0-15.48,1.83c-.71-2.31.7-4.1,1.59-6,2.24-4.71,4.61-9.35,6.9-14,.59-1.23,1.24-2.66-.23-3.62-1.71-1.12-3,0-3.81,1.4-1.11,1.81-2,3.76-3,5.59-3.33,5.64-4.92,12.16-8.91,17.46-13.48,1.07-26.29,4.42-37.8,11.7S373.8,440.27,375,453.61c1.38,15.61,7.93,29.32,18,41.35a30.59,30.59,0,0,1-2.9,8.13q-10.87,23.13-21.69,46.29c-5.87,12.64-11.64,25.34-17.43,38a22.78,22.78,0,0,0-2.48,8.88,1.75,1.75,0,0,0,1.12,1.86,1.61,1.61,0,0,0,1.88-1c1.13-2.24,2.38-4.44,3.4-6.73,12.58-28.32,25.84-56.32,39.13-84.3.91-1.9,1.6-4,3.69-5.05.87,2.24,2.7,3.73,4.26,5.42a174.45,174.45,0,0,0,40.15,31.94c15.84,9.37,32.67,16.5,49.9,22.82-1.54,4.23-3.48,8.35-4.18,13.3,2.72-.44,3.31-2.44,4.43-3.84,2-2.53,2.7-6,5.55-7.93,10.19,4.33,20.87,7.11,31.55,9.84,4.27,1.09,8.46,2.91,13,2.41.92,2.68-.62,4.86-1.62,7.05-5.61,12.33-11.26,24.64-17.55,36.65-9,17.14-18.51,34-26.66,51.57-6.51,14-13.24,28-19.2,42.28-.89,2.15-1.85,4.32-1.4,6.72.3,1.59,1.36,1.82,2.5.88,1.7-1.4,2.41-3.47,3.28-5.41,5.24-11.64,10.43-23.31,15.74-34.92,15.46-33.8,35.09-65.52,49.62-99.78.61-1.43,1.28-2.86,3-3.21a40,40,0,0,0,4.43,1.32c18.82,3.43,37.81,5.55,56.85,7.4,11.75,1.14,23.55,1,35.31,1.86a109.52,109.52,0,0,0,21.42-.12c.15,2.33-1.38,4-2.42,5.79a1280.6,1280.6,0,0,0-58.14,117c-4.36,9.92-8.56,19.92-12.69,30-1.5,3.64-3.08,7.34-2.88,11.41,2.1.37,2.4-1,3-1.88,3.63-5.32,6-11.27,8.47-17.16,20.22-48.05,42.6-95.05,68.51-140.32,1-1.84,1.82-3.88,3.73-5.09,4,1.44,8,0,12.06-.09,22.84-.41,45.49-2.9,68.11-5.86a573.1,573.1,0,0,0,98.35-21.66c4.38-1.39,8.56-3.61,13.28-3.85.59.76,1.17,1.53,1.77,2.29,6.3,7.91,5.45,12.67-3.31,17.74A65.48,65.48,0,0,1,849.21,582c-11.83,3-23.86,5.12-35.88,7.2-1.26.22-2.62.91-4-.35-.13-2.41,1.71-4.14,2.52-6.25.75-2,1-3.93-1.13-5.14-2.4-1.38-4.12-.05-5.25,2a87,87,0,0,0-4.12,8.33,7.71,7.71,0,0,1-6.4,5.05c-6.28,1.13-12.47,2.74-18.65,4.36a34.58,34.58,0,0,0-12.14,5.42c-4.73,3.53-6.3,8.14-4.77,13.8a25.21,25.21,0,0,0,3.46,7.32,67.72,67.72,0,0,0,11,12.7c3.75,3.43,3.78,3.46,1.83,8.3-3.84,9.52-7.16,19.23-10.44,29-2.53,7.53-5,15.09-6.17,23-.26,1.72-.41,3.46-.51,5.2-.07,1.18,0,2.58,1.34,2.92s1.82-1,2.26-2.09c2.84-7,5.59-14,8-21.19,3.68-10.81,7.59-21.55,11.47-32.3.49-1.37.69-3,2.2-3.7a2.51,2.51,0,0,1,.72.09c2.15,1.31,4.28,2.63,6.42,3.95,1,2.13.29,4.14-.39,6.17-1.29,3.85-2.62,7.69-3.78,11.57-2.82,9.43-5.91,18.81-6.9,28.68-.19,1.8-1,4.45,1.39,5,2,.46,2.27-2.21,3-3.67,4.08-8.39,6.09-17.49,9-26.29,1.78-5.44,2.48-11.31,6-16.1a166.85,166.85,0,0,0,16.47,8.56c22.73,10.25,46.71,16.26,71.06,21,2.65.51,5.34.87,8,1.12,2,.19,3.94-.34,4.69-2.55s-.38-3.79-2.13-4.9a86.63,86.63,0,0,0-16.13-7.88c-2.44-.94-4.67-.5-5.29,2.62-.33,1.62-1.39,1.58-2.62,1.32s-2.65-.56-4-.86c-23.7-5.35-46.52-13.09-67.75-25.12a5.43,5.43,0,0,1,.06-3.38c1.8-5.07,3.55-10.15,5.37-15.21.85-2.35,1.85-4.63,2.72-7a3.09,3.09,0,0,0-1.31-4c-1.51-.91-3-.34-4.15.87-1.52,1.56-2.2,3.6-3,5.56-2.34,6.08-4.6,12.21-6.89,18.32-1.44-1-2.9-1.93-4.31-3-3.81-2.79-3.91-2.85-2.08-7,4.52-10.27,9.25-20.45,13.66-30.77a8,8,0,0,1,6.88-5.19c5.17-.75,10.31-1.73,15.44-2.71,11.77-2.27,23.64-4.19,35-8.13,5.5-1.91,10.82-4.26,15.35-8,7.08-5.92,8.28-13.33,3.53-21.21-1.09-1.81-2.67-3.33-3.29-5.43,2-.67,4-1.32,6-2,5.1-1.79,9.84-4.54,15.18-5.67,2.67,1.86,5.35,3.7,8,5.57,1.88,1.32,3.91,2.17,5.55,0s.1-4-1.54-5.41-3.25-2.66-4.89-4c5-2.6,10-5.1,14.92-7.82,23.2-12.83,44.69-28,62.57-47.72,6.47-7.15,12.93-14.43,16.59-23.61,2-.7,4-1.3,5.87-2.12,3.43-1.49,7-2.88,8.73-6.67-2.07-1.22-3.52.24-5.11.6s-3.23,1.16-5,1l1.73-4.91c9.68-27.27,7.31-52.85-10.82-76.15A108.86,108.86,0,0,0,962,346.56c-2.61-1.56-4.91-3.83-8.19-4.11a8.12,8.12,0,0,1,.27-4.58,36.93,36.93,0,0,0,.72-16.71c-.79-3.88.68-6.26,3.43-8.44,8.11-6.45,17.53-8.53,27.67-8.88,5.07-.17,8,1.87,9.79,6.25.58,1.47.91,3.2,2.6,3.58,4.12.93,7,4.06,10.71,5.7,3,1.33,5.77,2.63,6.93,6.31.76,2.46,2.6,2.56,4.11.09,1.41-2.31,3.06-1.85,4.95-1.71,1.69.13,2.78,1.23,4,2.23,1.68,1.43,3.8,1.92,5.2.17,2.81-3.52,6.88-3,10.52-4,.09.17.18.34.28.49,1.33,1.95,2,5.29,5.21,4.16,3.64-1.3,1.51-4.42,1.2-6.87,4.57-2.31,8.21-6.47,13.81-6.79a3.19,3.19,0,0,0,3-3.06c.22-2.74,2-4.53,3.54-6.49,11.48-14.25,13.56-29.92,7.07-46.89-.34-.9-.84-1.76-1.09-2.68-.48-1.75-.77-3.46,1.63-4.18,2.85-.85,2.7-2.85,1.81-5.09a14.93,14.93,0,0,0-3.4-5.35c-.69-.67-1.44-1.44-2.48-1.07s-.94,1.52-1,2.48c-.07,1.67,1.33,3.3.16,5-2.15.22-2.55-1.44-3.1-2.83-4.36-11.15-10.34-21.58-14.39-32.87-2-5.46-4.34-10.77-6.69-16.08-.86-2-1.45-5.31-4.57-3.87-3,1.37-1,4.07-.2,6.09,4.52,11.12,9.13,22.19,13.66,33.3.54,1.31,1.86,2.68.2,4.33-3.52-1.13-7.41-1.84-6.58-7.13a3.38,3.38,0,0,0-.52-1.65c-7.12-16.32-12.65-33.29-20.2-49.43a25.42,25.42,0,0,0-1.91-3.57,2.3,2.3,0,0,0-3.06-.86,2.44,2.44,0,0,0-1.29,2.93,12.35,12.35,0,0,0,1,2.71c7.15,15.69,12.47,32.11,19.3,47.93.5,1.15,1.48,2.36.15,3.75a10,10,0,0,0-6.65.06,18.75,18.75,0,0,1-10.76,1.05c-1.91-.43-2.77-.38-4.43.93-2.59,2-5.82,4-9.39,1.23-1.66-1.31-3.48-.59-3.46,1.18,0,3.82-3.34,4.41-5.17,6.45-1.62-.26-2.58-1.59-3.89-2.37a3.23,3.23,0,0,0-3.78-.07,3.29,3.29,0,0,0-1.29,3.58c.27,1.31.65,2.6,1,3.9a3,3,0,0,1-2.56.6c-1.3-2.54-3.59-4-5.92-2.37s-1.07,4.38.28,6.51a6.45,6.45,0,0,0,1.23,1.15c-.84,2-1.47,4.09-3.69,5.05a7.11,7.11,0,0,0-4.24-1.63c-1.58-.06-3.09.08-4,1.65-1.08,1.79-.4,3.35.68,4.79a8,8,0,0,0,4.66,3.22,38.21,38.21,0,0,0-.76,5.57c0,3.09-2.4,5.17-3,7.8s3.69,4.44,2.57,7.75L982.47,286c-11.42-1-21.89,1.52-31.32,8.23-1.84,1.31-3.28,4.25-5.48,3.68-1.94-.5-3.36-3-5-4.56-8.27-7.82-18-11.81-29.49-11.38-16.82.63-30.8,7.9-43.42,18.38-3.17,2.63-4.91,6.42-7.33,9.66-1.67-.86-2.09-2.45-2.81-3.77q-12.27-22.42-24.45-44.88c-2.21-4.08-4.1-8.34-6.19-12.48-.72-1.42-1.76-2.88-3.57-2.3-2.14.68-2.21,2.62-1.51,4.33a103.06,103.06,0,0,0,4.59,10c8.42,15.47,17,30.87,25.43,46.33,1.93,3.53,4.35,6.87,5,11a319.8,319.8,0,0,0-67.66,3.46A430.13,430.13,0,0,0,691,348.49c-24.4,9.92-48.45,20.66-70.32,35.55-8.27,5.64-17.29,9.48-26.61,12.68-19.44,6.67-39.8,7.39-60.06,8.53q0-9.9,0-19.8c.9-1.55.54-2.61-1.22-3.13-3.36-.25-3.15,2.16-3.25,4.34A1.54,1.54,0,0,0,529.4,389Zm278-129.11c.11,3.05-1.09,6.11.2,9.15,1.54,3.62,4.38,4.66,7.24,2.26,1.79-1.5,3.18-3,6-2.72,2,.19,2.27-1.84,1.47-3.4-1-1.92-2.79-2.49-4.89-2.35-1.5.1-2.57,1.69-4.64,1.09v-5c1.37-3.69.33-7.93,2.62-11.4,1.63.89,3.37,1.33,4.31-.71s-.62-3.14-2.14-4a18.29,18.29,0,0,0-6.52-1.66,16.31,16.31,0,0,0-11.62-5.73c-3.78-.28-7,.91-8.79,4.4s-.81,6.91,1.75,9.67C796.61,254,801.3,258,807.44,259.84Zm16.77,357.81c2.77-1.56,5.25-1.71,7.7-2,16.53-2.09,33-4.43,48.91-9.72a78.66,78.66,0,0,0,22.09-11.44c3-2.2,5.66-4.72,7-8.32,1-2.6.8-5-1.52-6.81-1.17-.91-3-1.24-2.94.79.18,3.68-2.46,5-4.65,6.79-9.38,7.58-20.26,12-31.83,14.91-13,3.32-26.21,5.11-39.45,6.93a36.48,36.48,0,0,0-7.35,1.6c-6,2.15-7.36,6.74-3.68,11.89a38,38,0,0,0,7.85,7.72,114.06,114.06,0,0,0,23.42,13.89c21.43,9.7,44.35,15,66.49,22.61a7.41,7.41,0,0,0,4,.33,3,3,0,0,0,2.46-2.19,3,3,0,0,0-1.08-3.1,11.12,11.12,0,0,0-4.23-1.84c-16.38-5.34-32.81-10.52-49.12-16.07-12.12-4.14-23.8-9.32-34.29-16.84C830.57,624.3,827,621.91,824.21,617.65ZM607,257.1A62.72,62.72,0,0,1,617.21,222c3.81-5.81,7.07-6.07,12.22-1.24,3.26,3.06,5.77,6.77,8.56,10.24,3.27,4.07,6.27,8.41,10.44,11.66,7.15,5.56,13.39,4.29,17.68-3.7A42.16,42.16,0,0,0,670,227.37c2.13-10.23,2.79-20.73,5.76-30.8,2.73-9.3,7.49-17.31,15.13-23.42.87-.69,1.43-1.29,1-2.34-.57-1.35-1.67-1.42-2.89-1a12.89,12.89,0,0,0-5,3.88,54.56,54.56,0,0,0-13.58,26.57c-1.35,7-2.37,14.12-3.59,21.18-1,5.93-2.11,11.86-5.44,17-2.28,3.56-4.73,4.18-8.34,2.07a24.46,24.46,0,0,1-4.07-3.26c-3.56-3.32-6.34-7.3-9.33-11.11a58.21,58.21,0,0,0-10-10.53c-4.82-3.71-9.27-3.28-13.39,1.1a26.1,26.1,0,0,0-3.17,4.14,67.66,67.66,0,0,0-10.26,32.9,95.79,95.79,0,0,0,.29,10.44c.07,1.11.69,2.38,2.13,2.33s1.7-1.32,1.72-2.5C607,261.75,607,259.43,607,257.1Zm84.66,63.44c-1.41.27-3.53.55-5.57,1.1-6.89,1.89-13.8,3.73-20.61,5.86a121.64,121.64,0,0,0-26.95,12,39.18,39.18,0,0,0-8.16,6.45c-1.53,1.62-2.84,3.52-1,5.6s3.86,1,5.5-.56c5.45-5.12,12.07-8.26,18.76-11.32,10.78-4.92,22.23-7.74,33.58-10.88a25.09,25.09,0,0,0,8-3.31c1.13-.8,2.34-1.71,1.85-3.26-.4-1.23-1.74-1.39-2.9-1.52C693.47,320.6,692.89,320.6,691.61,320.54ZM342.66,622.17c-1.36.13-2.17.85-2.09,2.25s1.05,2.48,1.9,3.52c3.67,4.49,7.11,9.23,11.16,13.37,14.62,15,29.45,29.71,44.21,44.53a25,25,0,0,0,3.12,2.6c.87.62,1.86,1.86,3,.64,1-1.06.05-2.24-.53-3.15a28.31,28.31,0,0,0-3.16-4.14c-3.31-3.54-6.8-6.9-10.07-10.47-14.63-16-31.85-29.52-44.76-47.15A4.52,4.52,0,0,0,342.66,622.17Zm671.05-139.78a3.6,3.6,0,0,0-1-2.63c-1.45-1.51-3.66-1.17-5.34,1.24a74,74,0,0,1-7.37,9.64,148.53,148.53,0,0,1-19.78,16.94c-3.43,2.48-6.64,5.28-9.92,8-.74.61-1.4,1.43-.8,2.49s1.6,1,2.55.9a16.51,16.51,0,0,0,6-2.08c12.87-6.79,23.14-16.64,32.27-27.76A17.66,17.66,0,0,0,1013.71,482.39Zm-359.17-215c-4.31-4.77-8.4-9.3-12.5-13.81a31.85,31.85,0,0,0-2.48-2.45c-5.88-5.27-11.81-4.46-15.94,2.26a34.14,34.14,0,0,0-4.51,12.45A112.42,112.42,0,0,0,618,278.54c-.06,1-.31,2.08-1.46,2.15a3.15,3.15,0,0,1-2-1,12,12,0,0,1-3-5.53c-.39-1.3-.94-2.83-2.73-2.18-1.63.61-1.37,2.25-1,3.52,1,3.61,2.64,6.88,6,8.88,3.54,2.09,6.36,1.05,7.77-2.8.82-2.23.62-4.57.75-6.88.34-6.2,1.06-12.34,4.07-17.93,3.26-6.05,6.26-6.53,11.14-1.72,3.31,3.25,6.37,6.74,9.67,10C649.08,266.94,651.13,268.8,654.54,267.4ZM355.3,602.89a21.59,21.59,0,0,0,1.58-2.1A616.3,616.3,0,0,0,386,540.87a17.76,17.76,0,0,0,.92-2.75c.4-1.65,1.27-3.72-1-4.44-1.84-.58-2.57,1.25-3.15,2.7-.72,1.79-1.33,3.63-2.1,5.4-6.05,14-12.94,27.64-19.61,41.37a112.49,112.49,0,0,0-6.18,15C354.4,599.5,353.34,601,355.3,602.89Zm688.88-430.27c1.24,0,2.19,0,3.13,0,4.5-.12,6.17-1.15,6.58-4a6.48,6.48,0,0,0-5-7.25,3.47,3.47,0,0,1-2.6-1.79,3.9,3.9,0,0,0-3.82-2.19c-3,.39-4.87-.7-6.47-3.24-.74-1.17-2.51-1.72-3.86-2.46-4-2.21-6.76-1.94-8.75.81s-1.65,8.63.73,10.82a2.52,2.52,0,0,0,3.17.55,2.37,2.37,0,0,0,1.16-2.45c-.12-1.58-1.62-3.14,0-5.19,2.61,1.08,5,3.09,8.12,2.08.52-.17,1.27-.14,1.47.5,1.12,3.44,3.74,3.93,6.9,3.88,1.51,0,3.06,3.42,2.12,3.68-3.22.89-4.22,3.76-6.19,5.82-3.18,3.34-3.62,7-.5,10.31.68.72,1.51,1.44,2.5,1.15s1.22-1.39,1.21-2.38C1044,178.55,1043.28,175.87,1044.18,172.62Zm-497.32,577c-3.78-3.15-8.12-4.62-12.6-5.71-9.75-2.37-19.51-4.76-29.3-7-6-1.35-12.12-2.4-18.19-3.52-1.34-.25-3-.36-3.43,1.28-.57,2,1.14,2.57,2.61,3.1a6.23,6.23,0,0,0,1.14.23c16.94,3,33.5,7.63,50.27,11.33C540.39,750,543.56,751.14,546.86,749.57Zm-72-18c-7.56.61-14.15-1.4-20.82-2.94-10.63-2.46-20.08-6.91-26.88-15.86a7.17,7.17,0,0,0-.76-.88,2.12,2.12,0,0,0-3.48,2.4,10.82,10.82,0,0,0,1.54,2.44c12,13.82,27.71,18.18,45.23,18A5.38,5.38,0,0,0,474.86,731.57ZM717.32,160.11a13.65,13.65,0,0,0-.7-3.2c-1.53-3.27-3.1-6.36-2.77-10.28.19-2.27-2.51-3.41-4.78-2.57a4.3,4.3,0,0,0-3.12,3.18c-.41,2.87-2.45,4.09-4.54,5.54a11.23,11.23,0,0,0-4.5,5.9c-.58,1.86-1.22,3.69-.35,5.64.41.94.94,1.8,2.06,1.63a1.82,1.82,0,0,0,1.43-1.65,28.19,28.19,0,0,1,.35-3.45c1.07-4.21,4.83-6.78,8.6-6,3.36.68,4.49,3.3,3.65,8.42a39.66,39.66,0,0,1-4,12.63c-.64,1.19-.95,2.21.25,3s2.14-.23,2.93-1.06a6.17,6.17,0,0,0,1-1.42A43.68,43.68,0,0,0,717.32,160.11ZM844.94,308.54a13.94,13.94,0,0,0-2-6.34c-4.2-7.62-8.42-15.24-12.75-22.79-1.08-1.89-1.79-4.7-4.93-3.86-1.92.52-1.83,2.68.33,6.54,4.54,8.11,9.35,16.06,13.34,24.47a15.16,15.16,0,0,0,2.37,3.26,2.29,2.29,0,0,0,2.57.86C845,310.26,844.92,309.19,844.94,308.54ZM704.33,183.82c-1.87-2.54-3.86-1.31-5.6-.15a19.48,19.48,0,0,0-5.92,7c-6.15,10.8-7.43,22.62-7.3,34.72,0,2.08-1,5.57,2.2,5.55,2.8,0,1.76-3.36,1.76-5.28,0-7.76.59-15.46,2.73-22.94S697.73,188.51,704.33,183.82ZM505.92,365.89c-.29-1-.28-1.44-.5-1.6a8.78,8.78,0,0,0-2-1.11,73.54,73.54,0,0,0-32.57-4.09,17.5,17.5,0,0,0-9.57,3.87c-1.24,1-2.35,2.32-1.06,4,1.1,1.37,2.48.72,3.63-.09a18.72,18.72,0,0,1,11.49-3.43c3.67.08,7.34.33,11,.64C492.79,364.59,499.24,365.25,505.92,365.89ZM683.35,238.21a3.24,3.24,0,0,0-2.19,2.84c-.91,4.95-1.73,9.91-2.74,14.83-.86,4.16-1.71,8.35-3.8,12.13-2.32,4.2-5.09,4.84-9,2-1.24-.91-2.27-2.1-3.44-3.1a1.67,1.67,0,0,0-2.13-.26,1.71,1.71,0,0,0-.4,2.55c2.44,3.37,5.38,6.17,9.76,6.63s6.69-2.53,8.74-5.64a20.52,20.52,0,0,0,2.05-4.78,78.41,78.41,0,0,0,3.34-15.27A41.3,41.3,0,0,0,683.35,238.21ZM473.85,707.07c-2.17-3.49-5.7-4.13-8.78-5.4-9.28-3.79-18.88-7-26-14.64-.8-.87-1.89-1.55-3-.63-1.35,1.08-.92,2.39-.16,3.62a16.81,16.81,0,0,0,5,4.81c8.16,5.68,17.24,9.45,26.64,12.46C469.39,707.9,471.53,708.45,473.85,707.07ZM388.42,387.23c.11-3.64-3.48-8.88-6.07-8.85-3.15,0-6.83,4.33-7,8.17s2.82,7.43,6.5,7.45A6.84,6.84,0,0,0,388.42,387.23Zm65,353a13.64,13.64,0,0,0-2-1c-8.46-2.18-16.59-5-23-11.34a7.73,7.73,0,0,0-1.9-1.28,1.9,1.9,0,0,0-2.16.2,1.93,1.93,0,0,0-.41,2.61,10.48,10.48,0,0,0,2.15,2.67A39.3,39.3,0,0,0,442.77,741C446,741.75,449.53,742.88,453.46,740.23ZM558.17,287.94c0-3.81-2.48-6.81-5.64-6.73s-6.31,3.53-6.41,7.08a6.51,6.51,0,0,0,5.94,6.63C555.41,295.09,558.14,292,558.17,287.94Zm538,7.26c-1.43.63-1.66,1.34-1.62,2.14.32,6.82,3.06,13.06,4.81,19.53a2.33,2.33,0,0,0,3.09,1.83c1.9-.58,2-2.17,1.7-3.76C1102.71,308,1100.72,301.21,1096.15,295.2Zm-347,346.35c.05-3.44-2-5.8-5.08-5.69-4,.14-6.8,2.34-6.94,5.53-.17,3.74,2.68,7.24,5.93,7.28S749.09,645.5,749.14,641.55ZM1028.87,380c-3.73.13-8,5.37-7.26,9a4.75,4.75,0,0,0,5.59,3.76c3.57-.46,7-4.68,6.7-8.22A4.91,4.91,0,0,0,1028.87,380ZM743.33,671.36c0-3.42-1.91-6-4.69-6.18-3-.18-5.77,2.59-5.87,5.8-.12,3.8,2.22,7.15,5.06,7.24S743.27,675.16,743.33,671.36ZM483.57,371.54c2.5,0,5,0,7.5,0,.93,0,2.07.1,2.38-1.1.36-1.38-.68-2.05-1.69-2.64a7.75,7.75,0,0,0-3.92-.82q-6.06,0-12.13,0a13.17,13.17,0,0,0-5.59,1.27c-1.23.59-2.55,1.39-2,3s2.16,1.49,3.42,1.08C475.48,371,479.53,371.32,483.57,371.54Zm-151,241.54-.53-.91c-1.87-3.26-1.87-3.33,1.51-3.26,1.21,0,2.39.24,2.87-1.14.61-1.75-.25-3-1.74-3.81-2.56-1.34-4.91-.45-7,1.11a5.53,5.53,0,0,0-2.06,6.65,4.41,4.41,0,0,0,5.53,2.91C331.89,614.43,332.52,614,332.52,613.08Zm709.16-167.79-.67-1.51c-3.11.72-6.23,1.41-9.32,2.16a47,47,0,0,0-5.52,1.56c-1.28.48-2.38,1.41-1.92,3.05a2.36,2.36,0,0,0,2.63,1.78C1032.61,451.53,1037.72,449.47,1041.68,445.29Zm43-179.45a37.33,37.33,0,0,0,5.25,11,2.1,2.1,0,0,0,2.58.7,2.25,2.25,0,0,0,1.56-2.74c-1.36-4.4-3-8.72-6.74-11.73a1.6,1.6,0,0,0-2.09-.24C1084.58,263.37,1084.44,264.13,1084.66,265.84Zm22.43,76.24c.26,1.72.48,3.82.93,5.86.34,1.54,1.09,3,3,2.77s2.22-1.87,2.09-3.48a18.63,18.63,0,0,0-1.64-6.65c-.64-1.33-1.14-3.45-2.84-3.16C1106.38,337.81,1107.49,340.17,1107.09,342.08ZM445.14,373.56c1,0,5-5.69,4.72-6.64a4.45,4.45,0,0,0-4.93-3.09,4.86,4.86,0,0,0-3.65,5.22A5,5,0,0,0,445.14,373.56Zm653.95,28.55a22.14,22.14,0,0,0-6.66,9,2.49,2.49,0,0,0,4.35,2.4A13.4,13.4,0,0,0,1099.09,402.11Zm15.39-16.65c-.34-1.57.23-4.9-1.77-5.13-2.79-.32-2.34,3.21-3.18,5.15a4.14,4.14,0,0,0-.24,1.12c-.24,1.8-.22,3.78,1.94,4.13,2.58.43,3-1.71,3.24-3.69A15.09,15.09,0,0,0,1114.48,385.46Zm-55.68,49.36c-2.25.7-4.68,1.34-7,2.24a2.14,2.14,0,0,0-1.28,2.86,2.45,2.45,0,0,0,2.78,1.59,8.7,8.7,0,0,0,6.86-4.72C1060.78,435.72,1060.14,435,1058.8,434.82ZM566.45,709.2c2.35.12,4.62-1.61,4.72-3.57s-.45-3.92-2.79-4.36c-1.72-.32-4.52,2.39-4.64,4.4A3.06,3.06,0,0,0,566.45,709.2ZM435.34,544.31c-.12-3-2.15-5.43-4.16-5.35a2.94,2.94,0,0,0-3.13,3.31c0,2.22,2.39,4.61,4.46,4.4C434.17,546.49,435.37,545.63,435.34,544.31Zm646.85-120.07c-.23-.35-.36-.79-.65-.95-1.75-1-7.31,1.88-7.54,3.85a2.16,2.16,0,0,0,1.29,2.34c1.64.74,3-.09,4.18-1.11S1082.13,426.15,1082.19,424.24ZM545,712.7c-.18-2.27-2.09-4.59-3.72-4.39a1.88,1.88,0,0,0-1.73,2.45,4.44,4.44,0,0,0,3.83,3.73C544.52,714.65,545,713.81,545,712.7Zm25.18,44.47a3.9,3.9,0,0,0-3.33-2.25,1.68,1.68,0,0,0-1.91,1.66c0,2,1.53,2.38,3.16,2.35C569,758.91,570,758.73,570.14,757.17Z" transform="translate(-325.2 -143.78)"/><path class="cls-2" d="M435.82,409.47a87.82,87.82,0,0,1,15.49-1.84,120.52,120.52,0,0,0,14.46-1.09c1.35,3,2.82,5.9,4,8.93,6.95,17.21,14,34.38,22.6,50.86,4,7.73,7.53,15.69,10.82,23.75,2.85,7,5.39,14.07,7.79,21.22,1.36,4.09,2.9,5.21,6.35,4.24,8.44-2.36,16,.05,23.49,3.56a98.25,98.25,0,0,1,19.81,12,26.84,26.84,0,0,0,5.08,2.79c1.27.62,2.7.86,3.78-.29,3.73-4,8.88-5.45,13.66-7.18,29.83-10.75,58.71-23.85,88.29-35.22,9-3.46,18-7.09,27-10.62.85-.33,1.88-1,2.59.08a2.57,2.57,0,0,1-.22,3.23c-1,1.12-2.49,1.91-3.36,3.13s-.49,3.12,1.24,2.94c4-.43,8-1.44,11.14-4.19,1.35-1.18,1.5-3.11-.7-3.48-3-.5-2.38-1.95-2-4.07.65-3.8-.6-4.91-4.54-4.25a30.77,30.77,0,0,0-6.09,1.86c-16,6.25-32.15,12.22-48,18.94q-26.68,11.33-53.7,21.81c-3.55,1.39-7.06,3.49-11.16,3.53a2.6,2.6,0,0,1,1.23-2.27c7-5.73,13.9-11.69,21.19-17.07,10.41-7.68,21.24-14.8,31.7-22.41,11.41-8.29,23.29-15.89,34.87-23.93,2.94-2.05,5.84-1.89,8.8-.94,2,.64,3.75,2,5.64,3,4.17,2.17,7.75,5.53,12.37,6.66.6-.91.59-1.49.21-1.95a40.94,40.94,0,0,0-16-12.06c-5.51-2.33-10.34-2.45-15,1.69-1.84,1.63-3.88,3.25-6.59,3.36l-.06-.05c1.16-4.95,4.37-9,5.84-13.85.55-1.83,2.06-3.86-.31-5.09s-3.25,1.17-4.3,2.72a6.21,6.21,0,0,0-.52,1c-2.8,6.37-5.73,12.68-8.31,19.13a9.69,9.69,0,0,1-3.73,4.84c-8.62,5.87-17.21,11.8-25.62,17.95-7.64,5.59-15.8,10.42-23.11,16.48-11.58,9.61-23.35,19-34.91,28.63-1.72,1.44-2.91,1.66-4.46.25-3.31-3-7.3-5.07-11.11-7.34-9.41-5.6-19.24-9.86-30.64-9-4.79.38-4.89.09-6.39-4.6a274.62,274.62,0,0,0-16.77-40.07C490.8,451.71,484.53,438,479,424c-2.27-5.72-5.3-11.16-6.72-17.21l5.57-.68c-4.28-6.33-4.72-13.71-6.72-20.61-.48-1.64-1.36-3.76,1-4.38,2.53-.67,3.11,1.61,3.59,3.52,1.3,5.22,2.64,10.43,3.83,15.67,1.27,5.62,1.19,5.64,7,5.14,1.34,2,.95,4.49,1.6,6.72,5,17.22,9.87,34.49,14.95,51.69,1.32,4.46,2.56,9.06,6,13.86,1.36-5.86.22-10.48-1-15q-7.84-28.14-15.83-56.24c5.79-1,11.67-.7,17.49-1.16-.05,6.76.59,13.47,1,20.2.6,9.82,2.11,19.53,2.75,29.33a104,104,0,0,0,2.51,14.78c.33,1.54.9,4,2.93,3.68s2.27-2.77,2.2-4.73a16.39,16.39,0,0,0-.4-1.68c-1.36-10.88-2.84-21.74-4-32.64a236.78,236.78,0,0,1-1.41-28.31,55.64,55.64,0,0,1,13.15-.3,230.74,230.74,0,0,0,1.09,31.65c.22,2.12.36,4.37,2.4,6,1.56-2.11,1-4.09,1-5.93.11-8.85.08-17.71.18-26.57,0-1.85-.62-3.89,1-5.49,20.26-1.14,40.62-1.86,60.06-8.53,9.32-3.2,18.34-7,26.61-12.68,21.87-14.89,45.92-25.63,70.32-35.55a430.13,430.13,0,0,1,98.27-26.74,319.8,319.8,0,0,1,67.66-3.46c.76,1.12.17,2.19,0,3.32a45,45,0,0,0,0,17.24c2.65,12.59,9,22.93,19.75,30.21,9.43,6.38,20,9.45,31.3,8,20-2.63,34.56-13.26,43.69-31.29.6-1.17.89-2.59,2.21-3.29,3.28.28,5.58,2.55,8.19,4.11A108.86,108.86,0,0,1,992.55,373c18.13,23.3,20.5,48.88,10.82,76.15l-1.73,4.91a43.26,43.26,0,0,0-5.45,1.31c-2.79,1-2.94,2.1-.85,4.5a10.15,10.15,0,0,0,1.81,1.35c-3.66,9.18-10.12,16.46-16.59,23.61-17.88,19.77-39.37,34.89-62.57,47.72-4.91,2.72-9.94,5.22-14.91,7.82-2.91.31-5.52,1.16-7.14,3.85-5.34,1.13-10.08,3.88-15.18,5.67-2,.71-4,1.36-6,2-2.28,1.44-5.47,1.08-7.21,3.62-4.72.24-8.9,2.46-13.28,3.85a573.1,573.1,0,0,1-98.35,21.66c-22.62,3-45.27,5.45-68.11,5.86-4,.08-8,1.53-12.06.1a13.59,13.59,0,0,1,.82-2.76q6.6-11.91,13.3-23.77c4-7.07,8.27-14,11.44-21.47,3.68-8.72,6.76-17.69,11.36-26a15.31,15.31,0,0,0,1.52-3.74,2.74,2.74,0,0,0-1.56-3.4c-1.31-.54-2.26.4-2.92,1.33a37.56,37.56,0,0,0-2.32,4c-5.87,10.7-8.93,22.65-14.93,33.3-4.54,8.09-8.74,16.37-13.52,24.31-3.68,6.12-6.15,12.95-10.77,18.51a109.52,109.52,0,0,1-21.42.12c-11.76-.83-23.56-.72-35.31-1.86-19-1.85-38-4-56.85-7.4a40,40,0,0,1-4.43-1.32,10.45,10.45,0,0,1,1.11-5q3.62-7.56,7-15.21c2.11-4.74,4.1-9.54,6.14-14.31.63-1.49,1.19-3.05-.73-4-2.1-1-3.22.36-4.07,2-.7,1.38-1.39,2.76-2,4.16Q550.91,559.3,544.26,574a1.8,1.8,0,0,1-1.89,1c-4.58.5-8.77-1.32-13-2.41-10.68-2.73-21.36-5.51-31.55-9.84.14-2.84,1.92-5,3-7.48q4.41-10.1,8.91-20.14c.71-1.57,1.09-3-.76-3.93s-3,.16-3.79,1.62-1.41,2.76-2.05,4.17q-5.58,12.11-11.11,24.23c-17.23-6.32-34.06-13.45-49.9-22.82a174.45,174.45,0,0,1-40.15-31.94c-1.56-1.69-3.39-3.18-4.26-5.41a12,12,0,0,1,1.3-5c11-21.91,18.9-45.15,28.24-67.77C429.85,422,431.85,415.26,435.82,409.47ZM687,491.69c-2.16.65-4.24,1.12-6.2,1.9-5.56,2.22-11.19,4.24-16.85,6.2-12,4.18-24.3,7.7-36.16,12.41-12.19,4.85-24.27,10-36.9,13.67a44.9,44.9,0,0,0-11.13,4.86c-1.11.69-1.73,1.62-1.19,2.88a2.2,2.2,0,0,0,3.32,1.2,52,52,0,0,1,5.81-2.63c27.56-8.92,54.15-20.58,81.92-28.91a125.58,125.58,0,0,0,14-5.39,9.8,9.8,0,0,0,4.6-3.41,1.86,1.86,0,0,0,.13-2.16C688.11,491.94,687.41,491.87,687,491.69ZM569.75,516.8a16.79,16.79,0,0,0,1.81-.87,29.3,29.3,0,0,0,6.32-5c6-6.61,12.86-12.29,19.5-18.17,12.14-10.75,24.34-21.43,36-32.67,1.39-1.33,2.92-2.51,4.38-3.77,5.59-4.79,10.62-10.15,15.79-15.38.85-.86,1.49-1.9.61-3.07a2.46,2.46,0,0,0-3.59-.59,8.37,8.37,0,0,0-1.74,1.52c-6.24,6.9-13.63,12.57-20.28,19-5.54,5.38-11.07,10.82-17.06,15.68-5.28,4.28-9.63,9.53-14.93,13.71a242.35,242.35,0,0,0-24.27,22.36,35.25,35.25,0,0,0-3.78,5.1C567.91,515.6,568.13,516.47,569.75,516.8ZM616,504.43a46.59,46.59,0,0,0,14.85-5.94c8.39-5.13,16.81-10.19,25.2-15.32,8.22-5,16.4-10.11,24.62-15.15,1.42-.87,2.74-1.93,1.72-3.66-.8-1.36-2.41-1.1-3.67-.51a73.08,73.08,0,0,0-7.22,3.68c-15,9.14-30,18.24-44.8,27.58C622.74,497.6,618.21,499.6,616,504.43Zm-73.56,47.34c.67-.23,2.18.49,2.61-1s-.92-1.92-1.88-2.51a14,14,0,0,0-1.53-.82,126.32,126.32,0,0,1-22.08-12.61,10.13,10.13,0,0,0-3.11-1.48c-1.12-.32-2.36-.31-3,1a2.18,2.18,0,0,0,.76,2.58c.56.52,1.29.85,1.89,1.34,6.67,5.37,14.36,9,22,12.62A8.59,8.59,0,0,0,542.44,551.77Zm180.84-66.12c1.41.33,1.4,1.32.7,2.13-1.76,2.05-3.72,3.92-5.52,5.94a2.08,2.08,0,0,0-.23,2.67c.68.93,1.68.74,2.62.36,3.19-1.26,5.38-3.77,7.51-6.25,2.64-3.08,2.28-5.91-.74-8.55-3.32-2.92-8.94-1.72-11.38,2.43-.86,1.45-1.25,3.06.27,4.15a2.43,2.43,0,0,0,3.55-.82C720.86,486.6,721.67,485.5,723.28,485.65ZM718.75,460c-.11-.36-.35-1.08-.59-1.8-2.52-7.58-8.41-12.15-14.66-16.39a11.36,11.36,0,0,0-2.18-.71c-1.51-.6-3.11-1.18-3.89.82-.65,1.65.71,2.47,2,3,3.53,1.41,6,4.14,8.51,6.78,2.78,2.92,6,5.48,8.08,9a1.67,1.67,0,0,0,1.88,1C718.49,461.51,718.75,461,718.75,460Zm201.19-2.39c.58,0,1.17,0,1.74,0,.92-.08,2.13.17,2.47-1,.43-1.5-.81-2-1.9-2.36-4.49-1.46-8.2-4.25-12.07-6.81-1.4-.93-3.11-2.16-4.53-.06-1.27,1.88,0,3.34,1.33,4.5C910.73,455,914.88,457.38,919.94,457.6Zm-35.4-37.13c-1.4.08-2.72,1.46-2.23,2.76,2.15,5.7,5.11,10.85,10.83,13.77.69.35,1.45.68,2.11,0a1.68,1.68,0,0,0,.11-2.13c-2.49-4.13-5-8.27-7.53-12.36A3.59,3.59,0,0,0,884.54,420.47Zm-28.31-70.31c-.16-4.57-2-8.59-4.28-12.41-.69-1.13-1.77-2.33-3.31-1.69s-2,2.39-1.47,3.94a72.42,72.42,0,0,0,3.24,8,32.79,32.79,0,0,0,3.15,4.83,2,2,0,0,0,1.46.7c.92-.05,1.15-.87,1.2-1.67C856.25,351.32,856.23,350.74,856.23,350.16ZM973.66,459.92V460c-2.31,0-4.62-.05-6.93,0-1.41,0-2.78.47-3,2.14s1.05,2.44,2.24,3.06c3,1.53,12.36-.31,14.76-2.86a2.45,2.45,0,0,0,.5-1.51c0-.74-.74-.88-1.26-.9C977.9,459.89,975.78,459.92,973.66,459.92Zm-450.2,32.72c0-1.75,0-3.56-1.84-4.46a2.49,2.49,0,0,0-3.41,1.22c-1.1,1.84-1.56.57-2.3-.29-1.14-1.33-2.79-2.05-3.66-.1-1.05,2.35.5,4.44,2,6.22,1.14,1.4,2.52,2.78,3.67-.17.31-.78.79,0,1.23.23C522.57,497.12,523.42,496.59,523.46,492.64ZM867.59,378.26c-1.23-3-1.82-6.7-3.8-9.84a2.55,2.55,0,0,0-3.48-1.15,2.4,2.4,0,0,0-1.54,2.82c1,3.74,2.25,7.39,4.83,10.4.64.74,1.49,1.41,2.5,1C867.31,381,867.74,380,867.59,378.26Zm78.87,87.41c1.6,0,2.38,0,3.15,0,1.15,0,2.51.07,2.85-1.37s-.85-2.06-1.93-2.46c-3.43-1.25-6.77-2.87-10.5-3.05-1.34-.07-2.84-.15-3.33,1.56-.53,1.88.54,3,2.15,3.53A35.76,35.76,0,0,0,946.46,465.67Zm-274.1,65.11a5.2,5.2,0,0,0-.42-1.38c-1.18-2-5.1-1.95-7.78,0-2.19,1.6-2.86,4.25-1.48,6a3.57,3.57,0,0,0,1.33,1C666.61,537.54,672.27,533.82,672.36,530.78Zm204.7-127.43a10.23,10.23,0,0,0-1.77-7.31,2.68,2.68,0,0,0-4.81,2.17,31.75,31.75,0,0,0,2.71,5.71c.64,1.07,1.52,2.55,3.14,1.78C877.56,405.11,877,403.66,877.06,403.35ZM706,469.74a2.68,2.68,0,0,0-2.42-2.62,1.51,1.51,0,0,0-1.86,1.56,2.45,2.45,0,0,0,2.36,2.64C705.15,471.46,705.76,470.84,706,469.74Z" transform="translate(-325.2 -143.78)"/><path class="cls-3" d="M953.85,342.45c-1.32.7-1.61,2.12-2.21,3.29-9.13,18-23.71,28.66-43.69,31.29-11.3,1.48-21.87-1.59-31.3-8-10.75-7.28-17.1-17.62-19.75-30.21a45,45,0,0,1,0-17.24c.21-1.13.8-2.2,0-3.32-.67-4.12-3.09-7.46-5-11-8.45-15.46-17-30.86-25.43-46.33a103.06,103.06,0,0,1-4.59-10c-.7-1.71-.63-3.65,1.51-4.33,1.81-.58,2.85.88,3.57,2.3,2.09,4.14,4,8.4,6.19,12.48q12.14,22.49,24.45,44.88c.72,1.32,1.14,2.91,2.81,3.77,2.42-3.24,4.16-7,7.33-9.66,12.62-10.48,26.6-17.75,43.42-18.38,11.5-.43,21.22,3.56,29.49,11.38,1.67,1.58,3.09,4.06,5,4.56,2.2.57,3.64-2.37,5.48-3.68,9.43-6.71,19.9-9.22,31.32-8.23,1.45.72,1.78.25,1.23-1.15,1.12-3.31-3.18-5-2.57-7.75s3-4.71,3-7.8a38.21,38.21,0,0,1,.76-5.57c1.58-2.46,3.05-4.95,2.93-8,2.22-1,2.85-3.08,3.69-5.05,1.66-1.61,3.72-2.87,4.41-5.29a3,3,0,0,0,2.56-.6c2.5-1.93,5.93-2.4,8-5,1.83-2,5.21-2.63,5.17-6.45,0-1.77,1.8-2.49,3.46-1.18,3.57,2.82,6.8.82,9.39-1.23,1.66-1.31,2.52-1.36,4.43-.93a18.75,18.75,0,0,0,10.76-1.05,10,10,0,0,1,6.65-.06c1.33-1.39.35-2.6-.15-3.75-6.83-15.82-12.15-32.24-19.3-47.93a12.35,12.35,0,0,1-1-2.71,2.44,2.44,0,0,1,1.29-2.93,2.3,2.3,0,0,1,3.06.86,25.42,25.42,0,0,1,1.91,3.57c7.55,16.14,13.08,33.11,20.2,49.43a3.38,3.38,0,0,1,.52,1.65c-.83,5.29,3.06,6,6.58,7.13,1.66-1.65.34-3-.2-4.33-4.53-11.11-9.14-22.18-13.66-33.3-.82-2-2.76-4.72.2-6.09,3.12-1.44,3.71,1.91,4.57,3.87,2.35,5.31,4.73,10.62,6.69,16.08,4,11.29,10,21.72,14.39,32.87.55,1.39.95,3.05,3.1,2.83,1.17-1.7-.23-3.33-.16-5,0-1-.17-2.07,1-2.48s1.79.4,2.48,1.07a14.93,14.93,0,0,1,3.4,5.35c.89,2.24,1,4.24-1.81,5.09-2.4.72-2.11,2.43-1.63,4.18.25.92.75,1.78,1.09,2.68,6.49,17,4.41,32.64-7.07,46.89-1.58,2-3.32,3.75-3.54,6.49a3.19,3.19,0,0,1-3,3.06c-5.6.32-9.24,4.48-13.81,6.79-2.18.89-4.65.9-6.69,2.22-3.64,1-7.71.49-10.52,4-1.4,1.75-3.52,1.26-5.2-.17-1.18-1-2.27-2.1-4-2.23-1.89-.14-3.54-.6-4.95,1.71-1.51,2.47-3.35,2.37-4.11-.09-1.16-3.68-3.92-5-6.93-6.31-3.7-1.64-6.59-4.77-10.71-5.7-1.69-.38-2-2.11-2.6-3.58-1.75-4.38-4.72-6.42-9.79-6.25-10.14.35-19.56,2.43-27.67,8.88-2.75,2.18-4.22,4.56-3.43,8.44a36.93,36.93,0,0,1-.72,16.71A8.12,8.12,0,0,0,953.85,342.45Zm117.59-50c1.44-.81,2-1.94,1.34-3.54,2.2-.07,2.1-1.72,2.21-3.22a11.09,11.09,0,0,0,1.13-7.86,3.66,3.66,0,0,0,0-5.2c0-.77-.07-1.54-.1-2.31,0-1.56.31-3.17-.51-4.65l-1.74-6-2.53-4.64c-1.21-1.77-1.34-4.64-4.5-4.44.06-1.19-.27-2.15-1.58-2.48,0-2.71-1.38-4-4.09-4a3.54,3.54,0,0,0-3.36-3c-2-3-5.23-3.82-8.47-4.58-1.64-.17-3.09-1.26-4.82-1l-2-.05-4.71-.18c-1.85.12-3.84-.44-5.37,1.16-2.14.2-4.43-.58-6.35,1-2,.6-5-1.07-5.66,2.5-2.61-.24-5.15-.12-7.42,1.42L1009.2,247a15.58,15.58,0,0,0-13.45,8.8c-1.1.48-2,1.12-1.91,2.51-1.62,2.68-3.26,5.37-2.7,8.73-1.73,1.37-1.65,3.17-1.22,5.06-1.92,2.94-1,6.07-.62,9.17,0,2.45.21,4.87,1.7,7,.19,1.5-.24,3.22,1.45,4.2.32.57.63,1.14.94,1.71,0,1.43.23,2.73,1.92,3.12-1.21,2.92,1.1,4,2.8,5.45a3.33,3.33,0,0,0,3.06,2.59c.37,2.23,1.51,3.58,3.93,3.49,0,1.64,1,2.26,2.5,2.26,1.4,2.62,3.87,3.65,6.53,4.4,2.73,1.32,5.47,2.61,8.63,2.43l2.59.53a7.65,7.65,0,0,0,4.68.28c1.47.5,2.7-.1,3.89-.88l5.11.06a6.34,6.34,0,0,0,3.27-1,8.87,8.87,0,0,0,4.93-2c1.25-.31,2.75-.17,3.32-1.76a8,8,0,0,0,6-3.11,3.67,3.67,0,0,0,3.22-2.54,3.5,3.5,0,0,0,2.9-3.19,3.48,3.48,0,0,0,2.89-2.43c2.53-1.13,3.33-3.57,4.42-5.79C1071.53,295.24,1071.48,293.85,1071.44,292.47ZM864.5,319.13c-3.45,5.68-2.37,11.64-1.6,17.81,2.41,19.57,24,37.63,45.91,33.65,11.31-2.06,21-6.43,28.75-14.81,4.41-4.79,8.76-9.87,9.4-16.87,1.75-1,2-2.77,2.22-4.48,1.63-11.84-.64-22.73-8.14-32.22-8.39-10.6-19.13-16-32.9-14.4-7.14.83-14,2.89-20.76,5.16-1,.34-2.45.52-2.52,2-.13,2.81-2.27,3.29-4.32,3.9-8.12,2.42-12.72,8.37-15.82,15.81C864.12,316.11,863.66,317.6,864.5,319.13Zm123.07-21.05c-.5-1.76-.9-3.23-1.33-4.68-.51-1.72-1.52-2.36-3.44-2.17-2.68.28-5.41,0-8.11.15a37.29,37.29,0,0,0-20.47,7.27c-5.67,4.13-5.74,4.61-2.25,10.73.14.25.63.3,1.22.55C962.82,301.34,974.75,298.74,987.57,298.08Z" transform="translate(-325.2 -143.78)"/><path class="cls-3" d="M662,454.13c2.71-.11,4.75-1.73,6.59-3.36,4.7-4.14,9.53-4,15-1.69a40.94,40.94,0,0,1,16,12.06c.38.46.39,1-.21,1.95-4.62-1.13-8.2-4.49-12.37-6.66-1.89-1-3.65-2.32-5.64-3-3-1-5.86-1.11-8.8.94-11.58,8-23.46,15.64-34.87,23.93-10.46,7.61-21.29,14.73-31.7,22.41-7.29,5.38-14.15,11.34-21.19,17.07a2.6,2.6,0,0,0-1.23,2.27c4.1,0,7.61-2.14,11.16-3.53q27-10.54,53.7-21.81c15.83-6.72,32-12.69,48-18.94a30.77,30.77,0,0,1,6.09-1.86c3.94-.66,5.19.45,4.54,4.25-.36,2.12-1,3.57,2,4.07,2.2.37,2,2.3.7,3.48-3.14,2.75-7.13,3.76-11.14,4.19-1.73.18-2.16-1.63-1.24-2.94s2.32-2,3.36-3.13a2.57,2.57,0,0,0,.22-3.23c-.71-1.1-1.74-.41-2.59-.08-9,3.53-17.94,7.16-27,10.62C641.9,502.55,613,515.65,583.19,526.4c-4.78,1.73-9.93,3.21-13.66,7.18-1.08,1.15-2.51.91-3.78.29a26.84,26.84,0,0,1-5.08-2.79,98.25,98.25,0,0,0-19.81-12c-7.47-3.51-15.05-5.92-23.49-3.56-3.45,1-5-.15-6.35-4.24-2.4-7.15-4.94-14.24-7.79-21.22-3.29-8.06-6.79-16-10.82-23.75-8.59-16.48-15.65-33.65-22.6-50.86-1.22-3-2.69-6-4-8.93q-5.2-12.57-10.43-25.15a38.74,38.74,0,0,1-2.53-8.29,1.61,1.61,0,0,1,.75-2c.89-.43,1.5.21,2,.78a30.36,30.36,0,0,1,4.27,7.54c3.11,7.28,6.17,14.59,9.34,21.85.84,1.91,1.3,4.09,3.1,5.47,1.42,6.06,4.45,11.5,6.72,17.22,5.58,14,11.85,27.72,18.65,41.2a274.62,274.62,0,0,1,16.77,40.07c1.5,4.69,1.6,5,6.39,4.6,11.4-.89,21.23,3.37,30.64,9,3.81,2.27,7.8,4.31,11.11,7.34,1.55,1.41,2.74,1.19,4.46-.25,11.56-9.63,23.33-19,34.91-28.63,7.31-6.06,15.47-10.89,23.11-16.48,8.41-6.15,17-12.08,25.62-17.95a9.69,9.69,0,0,0,3.73-4.84c2.58-6.45,5.51-12.76,8.31-19.13a6.21,6.21,0,0,1,.52-1c1.05-1.55,1.92-3.95,4.3-2.72s.86,3.26.31,5.09c-1.47,4.83-4.68,8.9-5.84,13.85l-.45.53Z" transform="translate(-325.2 -143.78)"/><path class="cls-3" d="M867.52,555.57c1.74-2.54,4.93-2.18,7.21-3.62.62,2.1,2.2,3.62,3.29,5.43,4.75,7.88,3.55,15.29-3.53,21.21-4.53,3.78-9.85,6.13-15.35,8-11.38,3.94-23.25,5.86-35,8.13-5.13,1-10.27,2-15.44,2.71a8,8,0,0,0-6.88,5.19c-4.41,10.32-9.14,20.5-13.66,30.77-1.83,4.16-1.73,4.22,2.08,7,1.41,1,2.87,2,4.31,3-.08,2.66,0,5.41-3.49,6.16-2.14-1.32-4.27-2.64-6.42-3.95a2.51,2.51,0,0,0-.72-.09c-1.51.66-1.71,2.33-2.2,3.7-3.88,10.75-7.79,21.49-11.47,32.3-2.43,7.16-5.18,14.19-8,21.19-.44,1.08-.8,2.46-2.26,2.09s-1.41-1.74-1.34-2.92c.1-1.74.25-3.48.51-5.2,1.2-7.88,3.64-15.44,6.17-23,3.28-9.73,6.6-19.44,10.44-29,1.95-4.84,1.92-4.87-1.83-8.3a67.72,67.72,0,0,1-11-12.7,25.21,25.21,0,0,1-3.46-7.32c-1.53-5.66,0-10.27,4.77-13.8a34.58,34.58,0,0,1,12.14-5.42c6.18-1.62,12.37-3.23,18.65-4.36a7.71,7.71,0,0,0,6.4-5.05,87,87,0,0,1,4.12-8.33c1.13-2,2.85-3.37,5.25-2,2.1,1.21,1.88,3.19,1.13,5.14-.81,2.11-2.65,3.84-2.52,6.25,1.34,1.26,2.7.57,4,.35,12-2.08,24-4.17,35.88-7.2A65.48,65.48,0,0,0,866,575.6c8.76-5.07,9.61-9.83,3.31-17.74C868.69,557.1,868.11,556.33,867.52,555.57Zm-86.93,77.11c4.94-11.06,9.49-21.23,14.48-32.42-9.19,2-17.61,3.15-25.16,7.28-4.2,2.29-4.88,4.75-2.75,9.2C770.13,623,774.87,627.72,780.59,632.68Z" transform="translate(-325.2 -143.78)"/><path class="cls-2" d="M393,495c-10-12-16.58-25.74-18-41.35-1.19-13.34,4-24.32,15.53-31.62s24.32-10.63,37.8-11.7a17.49,17.49,0,0,1-2,6.62c-9.19,20.24-15.9,41.48-25.16,61.66C398.63,484.11,397.26,490.3,393,495Z" transform="translate(-325.2 -143.78)"/><path class="cls-3" d="M824.21,617.65c2.82,4.26,6.36,6.65,9.81,9.11,10.49,7.52,22.17,12.7,34.29,16.84,16.31,5.55,32.74,10.73,49.12,16.07a11.12,11.12,0,0,1,4.23,1.84,3,3,0,0,1,1.08,3.1,3,3,0,0,1-2.46,2.19,7.41,7.41,0,0,1-4-.33c-22.14-7.58-45.06-12.91-66.49-22.61A114.06,114.06,0,0,1,826.36,630a38,38,0,0,1-7.85-7.72c-3.68-5.15-2.3-9.74,3.68-11.89a36.48,36.48,0,0,1,7.35-1.6c13.24-1.82,26.48-3.61,39.45-6.93,11.57-3,22.45-7.33,31.83-14.91,2.19-1.76,4.83-3.11,4.65-6.79-.1-2,1.77-1.7,2.94-.79,2.32,1.8,2.5,4.21,1.52,6.81-1.36,3.6-4,6.12-7,8.32a78.66,78.66,0,0,1-22.09,11.44c-15.89,5.29-32.38,7.63-48.91,9.72C829.46,615.94,827,616.09,824.21,617.65Z" transform="translate(-325.2 -143.78)"/><path class="cls-3" d="M668.14,587.34c4.62-5.56,7.09-12.39,10.77-18.51,4.78-7.94,9-16.22,13.52-24.31,6-10.65,9.06-22.6,14.93-33.3a37.56,37.56,0,0,1,2.32-4c.66-.93,1.61-1.87,2.92-1.33a2.74,2.74,0,0,1,1.56,3.4,15.31,15.31,0,0,1-1.52,3.74c-4.6,8.32-7.68,17.29-11.36,26-3.17,7.49-7.46,14.4-11.44,21.47q-6.69,11.87-13.3,23.77a13.59,13.59,0,0,0-.82,2.76c-1.91,1.2-2.68,3.24-3.73,5.08-25.91,45.27-48.29,92.27-68.51,140.32-2.48,5.89-4.84,11.84-8.47,17.16-.6.88-.9,2.25-3,1.88-.2-4.07,1.38-7.77,2.88-11.41,4.13-10,8.33-20,12.69-30a1280.6,1280.6,0,0,1,58.14-117C666.76,591.31,668.29,589.67,668.14,587.34Z" transform="translate(-325.2 -143.78)"/><path class="cls-3" d="M393,495c4.31-4.66,5.68-10.85,8.22-16.39,9.26-20.18,16-41.42,25.16-61.66a17.49,17.49,0,0,0,2-6.62c4-5.3,5.58-11.82,8.91-17.46,1.07-1.83,1.94-3.78,3-5.59.85-1.4,2.1-2.52,3.81-1.4,1.47,1,.82,2.39.23,3.62-2.29,4.69-4.66,9.33-6.9,14-.89,1.86-2.3,3.65-1.59,6-4,5.79-6,12.49-8.62,18.87C417.87,451,410,474.2,399,496.11a12,12,0,0,0-1.3,5c-2.09,1-2.78,3.14-3.69,5-13.29,28-26.55,56-39.13,84.3-1,2.29-2.27,4.49-3.4,6.73a1.61,1.61,0,0,1-1.88,1,1.75,1.75,0,0,1-1.12-1.86,22.78,22.78,0,0,1,2.48-8.88c5.79-12.68,11.56-25.38,17.43-38q10.77-23.18,21.69-46.29A30.59,30.59,0,0,0,393,495Z" transform="translate(-325.2 -143.78)"/><path class="cls-3" d="M542.37,575.05a1.8,1.8,0,0,0,1.89-1q6.66-14.73,13.32-29.46c.63-1.4,1.32-2.78,2-4.16.85-1.67,2-3,4.07-2,1.92.92,1.36,2.48.73,4-2,4.77-4,9.57-6.14,14.31q-3.4,7.65-7,15.21a10.45,10.45,0,0,0-1.11,5c-1.77.35-2.44,1.78-3,3.21-14.53,34.26-34.16,66-49.62,99.78-5.31,11.61-10.5,23.28-15.74,34.92-.87,1.94-1.58,4-3.28,5.41-1.14.94-2.2.71-2.5-.88-.45-2.4.51-4.57,1.4-6.72,6-14.3,12.69-28.24,19.2-42.28,8.15-17.58,17.68-34.43,26.66-51.57,6.29-12,11.94-24.32,17.55-36.65C541.75,579.91,543.29,577.73,542.37,575.05Z" transform="translate(-325.2 -143.78)"/><path class="cls-3" d="M801.69,648.22c21.23,12,44,19.77,67.75,25.12,1.32.3,2.65.57,4,.86s2.29.3,2.62-1.32c.62-3.12,2.85-3.56,5.29-2.62a86.63,86.63,0,0,1,16.13,7.88c1.75,1.11,2.88,2.71,2.13,4.9s-2.65,2.74-4.69,2.55c-2.69-.25-5.38-.61-8-1.12-24.35-4.73-48.33-10.74-71.06-21a166.85,166.85,0,0,1-16.47-8.56C799.16,652.35,798.6,649.64,801.69,648.22Z" transform="translate(-325.2 -143.78)"/><path class="cls-2" d="M607,257.1c0,2.33,0,4.65,0,7,0,1.18-.18,2.46-1.72,2.5s-2.06-1.22-2.13-2.33a95.79,95.79,0,0,1-.29-10.44,67.66,67.66,0,0,1,10.26-32.9,26.1,26.1,0,0,1,3.17-4.14c4.12-4.38,8.57-4.81,13.39-1.1a58.21,58.21,0,0,1,10,10.53c3,3.81,5.77,7.79,9.33,11.11a24.46,24.46,0,0,0,4.07,3.26c3.61,2.11,6.06,1.49,8.34-2.07,3.33-5.18,4.42-11.11,5.44-17,1.22-7.06,2.24-14.15,3.59-21.18a54.56,54.56,0,0,1,13.58-26.57,12.89,12.89,0,0,1,5-3.88c1.22-.44,2.32-.37,2.89,1,.44,1.05-.12,1.65-1,2.34-7.64,6.11-12.4,14.12-15.13,23.42-3,10.07-3.63,20.57-5.76,30.8a42.16,42.16,0,0,1-3.85,11.54c-4.29,8-10.53,9.26-17.68,3.7C644.26,239.36,641.26,235,638,231c-2.79-3.47-5.3-7.18-8.56-10.24-5.15-4.83-8.41-4.57-12.22,1.24A62.72,62.72,0,0,0,607,257.1Z" transform="translate(-325.2 -143.78)"/><path class="cls-2" d="M801.69,648.22c-3.09,1.42-2.53,4.13-2.36,6.7-3.54,4.79-4.24,10.66-6,16.1-2.88,8.8-4.89,17.9-9,26.29-.71,1.46-1,4.13-3,3.67-2.36-.55-1.58-3.2-1.39-5,1-9.87,4.08-19.25,6.9-28.68,1.16-3.88,2.49-7.72,3.78-11.57.68-2,1.38-4,.39-6.17,3.47-.75,3.41-3.5,3.49-6.16,2.29-6.11,4.55-12.24,6.89-18.32.76-2,1.44-4,3-5.56,1.18-1.21,2.64-1.78,4.15-.87a3.09,3.09,0,0,1,1.31,4c-.87,2.34-1.87,4.62-2.72,7-1.82,5.06-3.57,10.14-5.37,15.21A5.43,5.43,0,0,0,801.69,648.22Z" transform="translate(-325.2 -143.78)"/><path class="cls-3" d="M691.61,320.54c1.28.06,1.86.06,2.44.12,1.16.13,2.5.29,2.9,1.52.49,1.55-.72,2.46-1.85,3.26a25.09,25.09,0,0,1-8,3.31c-11.35,3.14-22.8,6-33.58,10.88-6.69,3.06-13.31,6.2-18.76,11.32-1.64,1.55-3.61,2.76-5.5.56s-.49-4,1-5.6a39.18,39.18,0,0,1,8.16-6.45,121.64,121.64,0,0,1,26.95-12c6.81-2.13,13.72-4,20.61-5.86C688.08,321.09,690.2,320.81,691.61,320.54Z" transform="translate(-325.2 -143.78)"/><path class="cls-3" d="M515.2,405.91a236.78,236.78,0,0,0,1.41,28.31c1.16,10.9,2.64,21.76,4,32.64a16.39,16.39,0,0,1,.4,1.68c.07,2,0,4.37-2.2,4.73s-2.6-2.14-2.93-3.68a104,104,0,0,1-2.51-14.78c-.64-9.8-2.15-19.51-2.75-29.33-.42-6.73-1.06-13.44-1-20.2,0-9.69-1.63-19.22-2.61-28.82-.2-2-1.54-4.93,1.39-5.37,3.34-.51,3,3,3.23,5,1.09,8.42,2.4,16.82,2.67,25.33C514.34,403,514.21,404.57,515.2,405.91Z" transform="translate(-325.2 -143.78)"/><path class="cls-3" d="M492.12,406.44q7.94,28.11,15.83,56.24c1.26,4.55,2.4,9.17,1,15-3.4-4.8-4.64-9.4-6-13.86-5.08-17.2-9.93-34.47-14.95-51.69-.65-2.23-.26-4.68-1.6-6.72q-3-10.29-5.93-20.56c-.27-.93-.64-1.82-.9-2.75-.35-1.21-.21-2.36,1.05-2.95,1.58-.73,2.65.21,3.26,1.48a32,32,0,0,1,1.49,4.36C487.69,392.16,489.28,399.49,492.12,406.44Z" transform="translate(-325.2 -143.78)"/><path class="cls-3" d="M342.67,622.17a4.52,4.52,0,0,1,2.74,2c12.91,17.63,30.13,31.16,44.76,47.15,3.27,3.57,6.76,6.93,10.07,10.47a28.31,28.31,0,0,1,3.16,4.14c.58.91,1.5,2.09.53,3.15-1.11,1.22-2.1,0-3-.64a25,25,0,0,1-3.12-2.6c-14.76-14.82-29.59-29.57-44.21-44.53-4.05-4.14-7.49-8.88-11.16-13.37-.85-1-1.82-2.09-1.9-3.52S341.3,622.3,342.67,622.17Z" transform="translate(-325.2 -143.78)"/><path class="cls-2" d="M1013.71,482.39a17.66,17.66,0,0,1-3.36,6.72c-9.13,11.12-19.4,21-32.27,27.76a16.51,16.51,0,0,1-6,2.08c-1,.1-2,.1-2.55-.9s.06-1.88.8-2.49c3.28-2.7,6.49-5.5,9.92-8A148.53,148.53,0,0,0,1000,490.64a74,74,0,0,0,7.37-9.64c1.68-2.41,3.89-2.75,5.34-1.24A3.6,3.6,0,0,1,1013.71,482.39Z" transform="translate(-325.2 -143.78)"/><path class="cls-2" d="M654.54,267.4c-3.41,1.4-5.46-.46-7.33-2.32-3.3-3.27-6.36-6.76-9.67-10-4.88-4.81-7.88-4.33-11.14,1.72-3,5.59-3.73,11.73-4.07,17.93-.13,2.31.07,4.65-.75,6.88-1.41,3.85-4.23,4.89-7.77,2.8-3.39-2-5-5.27-6-8.88-.35-1.27-.61-2.91,1-3.52,1.79-.65,2.34.88,2.73,2.18a12,12,0,0,0,3,5.53,3.15,3.15,0,0,0,2,1c1.15-.07,1.4-1.18,1.46-2.15a112.42,112.42,0,0,1,1.13-12.69,34.14,34.14,0,0,1,4.51-12.45c4.13-6.72,10.06-7.53,15.94-2.26a31.85,31.85,0,0,1,2.48,2.45C646.14,258.1,650.23,262.63,654.54,267.4Z" transform="translate(-325.2 -143.78)"/><path class="cls-2" d="M355.3,602.89c-2-1.94-.9-3.39-.47-4.75a112.49,112.49,0,0,1,6.18-15c6.67-13.73,13.56-27.35,19.61-41.37.77-1.77,1.38-3.61,2.1-5.4.58-1.45,1.31-3.28,3.15-2.7,2.3.72,1.43,2.79,1,4.44a17.76,17.76,0,0,1-.92,2.75,616.3,616.3,0,0,1-29.1,59.92A21.59,21.59,0,0,1,355.3,602.89Z" transform="translate(-325.2 -143.78)"/><path class="cls-3" d="M1044.18,172.62c-.9,3.25-.14,5.93-.09,8.62,0,1-.18,2.07-1.21,2.38s-1.82-.43-2.5-1.15c-3.12-3.32-2.68-7,.5-10.31,2-2.06,3-4.93,6.19-5.82.94-.26-.61-3.7-2.12-3.68-3.16.05-5.78-.44-6.9-3.88-.2-.64-1-.67-1.47-.5-3.07,1-5.51-1-8.12-2.08-1.66,2.05-.16,3.61,0,5.19a2.37,2.37,0,0,1-1.16,2.45,2.52,2.52,0,0,1-3.17-.55c-2.38-2.19-2.76-8-.73-10.82s4.74-3,8.75-.81c1.35.74,3.12,1.29,3.86,2.46,1.6,2.54,3.43,3.63,6.47,3.24a3.9,3.9,0,0,1,3.82,2.19,3.47,3.47,0,0,0,2.6,1.79,6.48,6.48,0,0,1,5,7.25c-.41,2.88-2.08,3.91-6.58,4C1046.37,172.64,1045.42,172.62,1044.18,172.62Z" transform="translate(-325.2 -143.78)"/><path class="cls-2" d="M815.39,247.44c-2.29,3.47-1.25,7.71-2.62,11.4a8.18,8.18,0,0,0-5.33,1c-6.14-1.86-10.83-5.85-15.06-10.42-2.56-2.76-3.47-6.19-1.75-9.67s5-4.68,8.79-4.4A16.31,16.31,0,0,1,811,241.08c-3.39,1.32-5.49,3.43-4.92,7.44.26,1.81.38,3.64,2.49,4.07s3.1-1.08,3.31-3C812.17,247.31,813.16,246.41,815.39,247.44Z" transform="translate(-325.2 -143.78)"/><path class="cls-3" d="M546.86,749.57c-3.3,1.57-6.47.41-9.5-.25C520.59,745.62,504,741,487.09,738a6.23,6.23,0,0,1-1.14-.23c-1.47-.53-3.18-1.08-2.61-3.1.46-1.64,2.09-1.53,3.43-1.28,6.07,1.12,12.17,2.17,18.19,3.52,9.79,2.2,19.55,4.59,29.3,7C538.74,745,543.08,746.42,546.86,749.57Z" transform="translate(-325.2 -143.78)"/><path class="cls-3" d="M474.86,731.57a5.38,5.38,0,0,1-5.17,3.15c-17.52.19-33.27-4.17-45.23-18a10.82,10.82,0,0,1-1.54-2.44,2.12,2.12,0,0,1,3.48-2.4,7.17,7.17,0,0,1,.76.88c6.8,9,16.25,13.4,26.88,15.86C460.71,730.17,467.3,732.18,474.86,731.57Z" transform="translate(-325.2 -143.78)"/><path class="cls-2" d="M717.32,160.11a43.68,43.68,0,0,1-4.5,16.3,6.17,6.17,0,0,1-1,1.42c-.79.83-1.65,1.89-2.93,1.06s-.89-1.81-.25-3a39.66,39.66,0,0,0,4-12.63c.84-5.12-.29-7.74-3.65-8.42-3.77-.77-7.53,1.8-8.6,6a28.19,28.19,0,0,0-.35,3.45,1.82,1.82,0,0,1-1.43,1.65c-1.12.17-1.65-.69-2.06-1.63-.87-1.95-.23-3.78.35-5.64a11.23,11.23,0,0,1,4.5-5.9c2.09-1.45,4.13-2.67,4.54-5.54a4.3,4.3,0,0,1,3.12-3.18c2.27-.84,5,.3,4.78,2.57-.33,3.92,1.24,7,2.77,10.28A13.65,13.65,0,0,1,717.32,160.11Z" transform="translate(-325.2 -143.78)"/><path class="cls-3" d="M534,405.25c-1.6,1.6-1,3.64-1,5.49-.1,8.86-.07,17.72-.18,26.57,0,1.84.57,3.82-1,5.93-2-1.61-2.18-3.86-2.4-6a230.74,230.74,0,0,1-1.09-31.65c1.76-5.47.38-11.13,1-16.66,1-.73,1.1-1.5.07-2.29.1-2.18-.11-4.59,3.25-4.34.16,1.14.2,2.33,1.22,3.13Q534,395.35,534,405.25Z" transform="translate(-325.2 -143.78)"/><path class="cls-3" d="M844.94,308.54c0,.65.08,1.72-1.05,2.14a2.29,2.29,0,0,1-2.57-.86,15.16,15.16,0,0,1-2.37-3.26c-4-8.41-8.8-16.36-13.34-24.47-2.16-3.86-2.25-6-.33-6.54,3.14-.84,3.85,2,4.93,3.86,4.33,7.55,8.55,15.17,12.75,22.79A13.94,13.94,0,0,1,844.94,308.54Z" transform="translate(-325.2 -143.78)"/><path class="cls-2" d="M704.33,183.82c-6.6,4.69-10,11.45-12.13,18.92s-2.69,15.18-2.73,22.94c0,1.92,1,5.26-1.76,5.28-3.23,0-2.17-3.47-2.2-5.55-.13-12.1,1.15-23.92,7.3-34.72a19.48,19.48,0,0,1,5.92-7C700.47,182.51,702.46,181.28,704.33,183.82Z" transform="translate(-325.2 -143.78)"/><path class="cls-3" d="M492,561.27q5.55-12.12,11.11-24.23c.64-1.41,1.3-2.82,2.05-4.17s2-2.51,3.79-1.62,1.47,2.36.76,3.93q-4.51,10.05-8.91,20.14c-1.08,2.46-2.86,4.64-3,7.48-2.85,1.94-3.53,5.4-5.55,7.93-1.12,1.4-1.71,3.4-4.43,3.84C488.5,569.62,490.44,565.5,492,561.27Z" transform="translate(-325.2 -143.78)"/><path class="cls-3" d="M505.92,365.89c-6.68-.64-13.13-1.3-19.58-1.86-3.67-.31-7.34-.56-11-.64a18.72,18.72,0,0,0-11.49,3.43c-1.15.81-2.53,1.46-3.63.09-1.29-1.63-.18-2.93,1.06-4a17.5,17.5,0,0,1,9.57-3.87,73.54,73.54,0,0,1,32.57,4.09,8.78,8.78,0,0,1,2,1.11C505.64,364.45,505.63,364.92,505.92,365.89Z" transform="translate(-325.2 -143.78)"/><path class="cls-2" d="M683.35,238.21a41.3,41.3,0,0,1,.22,12,78.41,78.41,0,0,1-3.34,15.27,20.52,20.52,0,0,1-2.05,4.78c-2,3.11-4.41,6.1-8.74,5.64s-7.32-3.26-9.76-6.63a1.71,1.71,0,0,1,.4-2.55,1.67,1.67,0,0,1,2.13.26c1.17,1,2.2,2.19,3.44,3.1,3.88,2.81,6.65,2.17,9-2,2.09-3.78,2.94-8,3.8-12.13,1-4.92,1.83-9.88,2.74-14.83A3.24,3.24,0,0,1,683.35,238.21Z" transform="translate(-325.2 -143.78)"/><path class="cls-3" d="M473.85,707.07c-2.32,1.38-4.46.83-6.36.22-9.4-3-18.48-6.78-26.64-12.46a16.81,16.81,0,0,1-5-4.81c-.76-1.23-1.19-2.54.16-3.62,1.15-.92,2.24-.24,3,.63,7.09,7.68,16.69,10.85,26,14.64C468.15,702.94,471.68,703.58,473.85,707.07Z" transform="translate(-325.2 -143.78)"/><path class="cls-3" d="M388.42,387.23a6.84,6.84,0,0,1-6.58,6.77c-3.68,0-6.69-3.47-6.5-7.45s3.86-8.13,7-8.17C384.94,378.35,388.53,383.59,388.42,387.23Z" transform="translate(-325.2 -143.78)"/><path class="cls-2" d="M453.46,740.23c-3.93,2.65-7.42,1.52-10.69.74a39.3,39.3,0,0,1-16.68-8.87,10.48,10.48,0,0,1-2.15-2.67,1.93,1.93,0,0,1,.41-2.61,1.9,1.9,0,0,1,2.16-.2,7.73,7.73,0,0,1,1.9,1.28c6.44,6.31,14.57,9.16,23,11.34A13.64,13.64,0,0,1,453.46,740.23Z" transform="translate(-325.2 -143.78)"/><path class="cls-3" d="M558.17,287.94c0,4-2.76,7.15-6.11,7a6.51,6.51,0,0,1-5.94-6.63c.1-3.55,3.22-7,6.41-7.08S558.21,284.13,558.17,287.94Z" transform="translate(-325.2 -143.78)"/><path class="cls-3" d="M807.44,259.84a8.18,8.18,0,0,1,5.33-1v5c2.07.6,3.14-1,4.64-1.09,2.1-.14,3.91.43,4.89,2.35.8,1.56.56,3.59-1.47,3.4-2.77-.25-4.16,1.22-6,2.72-2.86,2.4-5.7,1.36-7.24-2.26C806.35,266,807.55,262.89,807.44,259.84Z" transform="translate(-325.2 -143.78)"/><path class="cls-3" d="M1096.15,295.2c4.57,6,6.56,12.77,8,19.74.33,1.59.2,3.18-1.7,3.76a2.33,2.33,0,0,1-3.09-1.83c-1.75-6.47-4.49-12.71-4.81-19.53C1094.49,296.54,1094.72,295.83,1096.15,295.2Z" transform="translate(-325.2 -143.78)"/><path class="cls-3" d="M749.14,641.55c0,4-2.81,7.17-6.09,7.12s-6.1-3.54-5.93-7.28c.14-3.19,2.91-5.39,6.94-5.53C747.09,635.75,749.19,638.11,749.14,641.55Z" transform="translate(-325.2 -143.78)"/><path class="cls-3" d="M1028.87,380a4.91,4.91,0,0,1,5,4.54c.31,3.54-3.13,7.76-6.7,8.22a4.75,4.75,0,0,1-5.59-3.76C1020.91,385.38,1025.14,380.14,1028.87,380Z" transform="translate(-325.2 -143.78)"/><path class="cls-3" d="M743.33,671.36c-.06,3.8-2.59,7-5.5,6.86s-5.18-3.44-5.06-7.24c.1-3.21,2.91-6,5.87-5.8C741.42,665.35,743.38,667.94,743.33,671.36Z" transform="translate(-325.2 -143.78)"/><path class="cls-2" d="M483.57,371.54c-4-.22-8.09-.5-12,.8-1.26.41-2.86.62-3.42-1.08s.77-2.44,2-3a13.17,13.17,0,0,1,5.59-1.27q6.06,0,12.13,0a7.75,7.75,0,0,1,3.92.82c1,.59,2.05,1.26,1.69,2.64-.31,1.2-1.45,1.08-2.38,1.1C488.57,371.57,486.07,371.54,483.57,371.54Z" transform="translate(-325.2 -143.78)"/><path class="cls-3" d="M815.39,247.44c-2.23-1-3.22-.13-3.47,2.13-.21,1.94-1,3.48-3.31,3s-2.23-2.26-2.49-4.07c-.57-4,1.53-6.12,4.92-7.44a18.29,18.29,0,0,1,6.52,1.66c1.52.85,3.06,2,2.14,4S817,248.33,815.39,247.44Z" transform="translate(-325.2 -143.78)"/><path class="cls-3" d="M332.52,613.08c0,.95-.63,1.35-1.41,1.55a4.41,4.41,0,0,1-5.53-2.91,5.53,5.53,0,0,1,2.06-6.65c2.08-1.56,4.43-2.45,7-1.11,1.49.79,2.35,2.06,1.74,3.81-.48,1.38-1.66,1.16-2.87,1.14-3.38-.07-3.38,0-1.51,3.26Z" transform="translate(-325.2 -143.78)"/><path class="cls-3" d="M895.94,544.25c1.62-2.69,4.23-3.54,7.14-3.85,1.63,1.32,3.31,2.59,4.88,4s3.21,3.18,1.54,5.41-3.67,1.35-5.55,0C901.29,548,898.61,546.11,895.94,544.25Z" transform="translate(-325.2 -143.78)"/><path class="cls-3" d="M1041.68,445.29c-4,4.18-9.07,6.24-14.8,7a2.36,2.36,0,0,1-2.63-1.78c-.46-1.64.64-2.57,1.92-3.05a47,47,0,0,1,5.52-1.56c3.09-.75,6.21-1.44,9.32-2.16Z" transform="translate(-325.2 -143.78)"/><path class="cls-3" d="M1084.66,265.84c-.22-1.71-.08-2.47.56-3a1.6,1.6,0,0,1,2.09.24c3.79,3,5.38,7.33,6.74,11.73a2.25,2.25,0,0,1-1.56,2.74,2.1,2.1,0,0,1-2.58-.7A37.33,37.33,0,0,1,1084.66,265.84Z" transform="translate(-325.2 -143.78)"/><path class="cls-3" d="M997.15,461.25a10.15,10.15,0,0,1-1.81-1.35c-2.09-2.4-1.94-3.47.85-4.5a43.26,43.26,0,0,1,5.45-1.31c1.77.13,3.34-.66,5-1s3-1.82,5.11-.6c-1.74,3.79-5.3,5.18-8.73,6.67C1001.11,460,999.11,460.55,997.15,461.25Z" transform="translate(-325.2 -143.78)"/><path class="cls-3" d="M1107.09,342.08c.4-1.91-.71-4.27,1.59-4.66,1.7-.29,2.2,1.83,2.84,3.16a18.63,18.63,0,0,1,1.64,6.65c.13,1.61-.12,3.21-2.09,3.48s-2.71-1.23-3-2.77C1107.57,345.9,1107.35,343.8,1107.09,342.08Z" transform="translate(-325.2 -143.78)"/><path class="cls-3" d="M445.14,373.56a5,5,0,0,1-3.86-4.51,4.86,4.86,0,0,1,3.65-5.22,4.45,4.45,0,0,1,4.93,3.09C450.13,367.87,446.12,373.58,445.14,373.56Z" transform="translate(-325.2 -143.78)"/><path class="cls-3" d="M1099.09,402.11a13.4,13.4,0,0,1-2.31,11.38,2.49,2.49,0,0,1-4.35-2.4A22.14,22.14,0,0,1,1099.09,402.11Z" transform="translate(-325.2 -143.78)"/><path class="cls-2" d="M987.83,255.74c.12,3.08-1.35,5.57-2.93,8a8,8,0,0,1-4.66-3.22c-1.08-1.44-1.76-3-.68-4.79.94-1.57,2.45-1.71,4-1.65A7.11,7.11,0,0,1,987.83,255.74Z" transform="translate(-325.2 -143.78)"/><path class="cls-3" d="M1114.48,385.46a15.09,15.09,0,0,1,0,1.58c-.24,2-.66,4.12-3.24,3.69-2.16-.35-2.18-2.33-1.94-4.13a4.14,4.14,0,0,1,.24-1.12c.84-1.94.39-5.47,3.18-5.15C1114.71,380.56,1114.14,383.89,1114.48,385.46Z" transform="translate(-325.2 -143.78)"/><path class="cls-3" d="M1058.8,434.82c1.34.2,2,.9,1.36,2a8.7,8.7,0,0,1-6.86,4.72,2.45,2.45,0,0,1-2.78-1.59,2.14,2.14,0,0,1,1.28-2.86C1054.12,436.16,1056.55,435.52,1058.8,434.82Z" transform="translate(-325.2 -143.78)"/><path class="cls-2" d="M566.45,709.2a3.06,3.06,0,0,1-2.71-3.53c.12-2,2.92-4.72,4.64-4.4,2.34.44,2.89,2.3,2.79,4.36S568.8,709.32,566.45,709.2Z" transform="translate(-325.2 -143.78)"/><path class="cls-3" d="M435.34,544.31c0,1.32-1.17,2.18-2.83,2.36-2.07.21-4.43-2.18-4.46-4.4a2.94,2.94,0,0,1,3.13-3.31C433.19,538.88,435.22,541.29,435.34,544.31Z" transform="translate(-325.2 -143.78)"/><path class="cls-3" d="M1082.19,424.24c-.06,1.91-1.44,3-2.72,4.13s-2.54,1.85-4.18,1.11a2.16,2.16,0,0,1-1.29-2.34c.23-2,5.79-4.81,7.54-3.85C1081.83,423.45,1082,423.89,1082.19,424.24Z" transform="translate(-325.2 -143.78)"/><path class="cls-2" d="M1006.47,239.76c-2.05,2.64-5.48,3.11-8,5-.33-1.3-.71-2.59-1-3.9a3.29,3.29,0,0,1,1.29-3.58,3.23,3.23,0,0,1,3.78.07C1003.89,238.17,1004.85,239.5,1006.47,239.76Z" transform="translate(-325.2 -143.78)"/><path class="cls-2" d="M995.93,245.4c-.69,2.42-2.75,3.68-4.41,5.29a6.45,6.45,0,0,1-1.23-1.15c-1.35-2.13-2.76-4.77-.28-6.51S994.63,242.86,995.93,245.4Z" transform="translate(-325.2 -143.78)"/><path class="cls-2" d="M1044.71,322.45c2-1.32,4.51-1.33,6.69-2.22.31,2.45,2.44,5.57-1.2,6.87-3.16,1.13-3.88-2.21-5.21-4.16C1044.89,322.79,1044.8,322.62,1044.71,322.45Z" transform="translate(-325.2 -143.78)"/><path class="cls-3" d="M545,712.69c0,1.12-.44,2-1.62,1.8a4.44,4.44,0,0,1-3.83-3.73,1.88,1.88,0,0,1,1.73-2.45C542.87,708.11,544.78,710.43,545,712.69Z" transform="translate(-325.2 -143.78)"/><path class="cls-3" d="M570.14,757.17c-.18,1.56-1.13,1.74-2.08,1.76-1.63,0-3.13-.34-3.16-2.35a1.68,1.68,0,0,1,1.91-1.66A3.9,3.9,0,0,1,570.14,757.17Z" transform="translate(-325.2 -143.78)"/><path class="cls-2" d="M533.94,385.45c-1-.8-1.06-2-1.22-3.13C534.48,382.84,534.84,383.9,533.94,385.45Z" transform="translate(-325.2 -143.78)"/><path class="cls-2" d="M529.47,386.66c1,.79,1,1.56-.07,2.29A1.54,1.54,0,0,1,529.47,386.66Z" transform="translate(-325.2 -143.78)"/><path class="cls-3" d="M687,491.69c.43.18,1.13.25,1.4.62a1.86,1.86,0,0,1-.13,2.16,9.8,9.8,0,0,1-4.6,3.41,125.58,125.58,0,0,1-14,5.39c-27.77,8.33-54.36,20-81.92,28.91a52,52,0,0,0-5.81,2.63,2.2,2.2,0,0,1-3.32-1.2c-.54-1.26.08-2.19,1.19-2.88a44.9,44.9,0,0,1,11.13-4.86c12.63-3.69,24.71-8.82,36.9-13.67,11.86-4.71,24.12-8.23,36.16-12.41,5.66-2,11.29-4,16.85-6.2C682.74,492.81,684.82,492.34,687,491.69Z" transform="translate(-325.2 -143.78)"/><path class="cls-3" d="M569.75,516.8c-1.62-.33-1.84-1.2-1.21-2.16a35.25,35.25,0,0,1,3.78-5.1,242.35,242.35,0,0,1,24.27-22.36c5.3-4.18,9.65-9.43,14.93-13.71,6-4.86,11.52-10.3,17.06-15.68,6.65-6.47,14-12.14,20.28-19a8.37,8.37,0,0,1,1.74-1.52,2.46,2.46,0,0,1,3.59.59c.88,1.17.24,2.21-.61,3.07-5.17,5.23-10.2,10.59-15.79,15.38-1.46,1.26-3,2.44-4.38,3.77-11.69,11.24-23.89,21.92-36,32.67-6.64,5.88-13.52,11.56-19.5,18.17a29.3,29.3,0,0,1-6.32,5A16.79,16.79,0,0,1,569.75,516.8Z" transform="translate(-325.2 -143.78)"/><path class="cls-3" d="M616,504.43c2.21-4.83,6.74-6.83,10.7-9.32,14.84-9.34,29.83-18.44,44.8-27.58a73.08,73.08,0,0,1,7.22-3.68c1.26-.59,2.87-.85,3.67.51,1,1.73-.3,2.79-1.72,3.66-8.22,5-16.4,10.12-24.62,15.15-8.39,5.13-16.81,10.19-25.2,15.32A46.59,46.59,0,0,1,616,504.43Z" transform="translate(-325.2 -143.78)"/><path class="cls-3" d="M542.44,551.77a8.59,8.59,0,0,1-4.27-.87c-7.67-3.65-15.36-7.25-22-12.62-.6-.49-1.33-.82-1.89-1.34a2.18,2.18,0,0,1-.76-2.58c.6-1.33,1.84-1.34,3-1a10.13,10.13,0,0,1,3.11,1.48,126.32,126.32,0,0,0,22.08,12.61,14,14,0,0,1,1.53.82c1,.59,2.29,1.1,1.88,2.51S543.11,551.54,542.44,551.77Z" transform="translate(-325.2 -143.78)"/><path class="cls-3" d="M723.28,485.65c-1.61-.15-2.42,1-3.22,2.06a2.43,2.43,0,0,1-3.55.82c-1.52-1.09-1.13-2.7-.27-4.15,2.44-4.15,8.06-5.35,11.38-2.43,3,2.64,3.38,5.47.74,8.55-2.13,2.48-4.32,5-7.51,6.25-.94.38-1.94.57-2.62-.36a2.08,2.08,0,0,1,.23-2.67c1.8-2,3.76-3.89,5.52-5.94C724.68,487,724.69,486,723.28,485.65Z" transform="translate(-325.2 -143.78)"/><path class="cls-3" d="M718.75,460c0,1-.26,1.52-.88,1.69a1.67,1.67,0,0,1-1.88-1c-2.12-3.52-5.3-6.08-8.08-9-2.51-2.64-5-5.37-8.51-6.78-1.26-.51-2.62-1.33-2-3,.78-2,2.38-1.42,3.89-.82a11.36,11.36,0,0,1,2.18.71c6.25,4.24,12.14,8.81,14.66,16.39C718.4,458.91,718.64,459.63,718.75,460Z" transform="translate(-325.2 -143.78)"/><path class="cls-3" d="M919.94,457.6c-5.06-.22-9.21-2.56-13-5.72-1.36-1.16-2.6-2.62-1.33-4.5,1.42-2.1,3.13-.87,4.53.06,3.87,2.56,7.58,5.35,12.07,6.81,1.09.36,2.33.86,1.9,2.36-.34,1.15-1.55.9-2.47,1C921.11,457.64,920.52,457.6,919.94,457.6Z" transform="translate(-325.2 -143.78)"/><path class="cls-3" d="M884.54,420.47a3.59,3.59,0,0,1,3.29,2c2.56,4.09,5,8.23,7.53,12.36a1.68,1.68,0,0,1-.11,2.13c-.66.71-1.42.38-2.11,0-5.72-2.92-8.68-8.07-10.83-13.77C881.82,421.93,883.14,420.55,884.54,420.47Z" transform="translate(-325.2 -143.78)"/><path class="cls-3" d="M856.23,350.16c0,.58,0,1.16,0,1.73-.05.8-.28,1.62-1.2,1.67a2,2,0,0,1-1.46-.7,32.79,32.79,0,0,1-3.15-4.83,72.42,72.42,0,0,1-3.24-8c-.53-1.55-.22-3.22,1.47-3.94s2.62.56,3.31,1.69C854.26,341.57,856.07,345.59,856.23,350.16Z" transform="translate(-325.2 -143.78)"/><path class="cls-3" d="M973.66,459.92c2.12,0,4.24,0,6.36,0,.52,0,1.26.16,1.26.9a2.45,2.45,0,0,1-.5,1.51c-2.4,2.55-11.79,4.39-14.76,2.86-1.19-.62-2.41-1.49-2.24-3.06s1.54-2.1,3-2.14c2.31-.07,4.62,0,6.93,0Z" transform="translate(-325.2 -143.78)"/><path class="cls-3" d="M523.46,492.64c0,3.95-.89,4.48-4.35,2.65-.44-.24-.92-1-1.23-.23-1.15,2.95-2.53,1.57-3.67.17-1.46-1.78-3-3.87-2-6.22.87-1.95,2.52-1.23,3.66.1.74.86,1.2,2.13,2.3.29a2.49,2.49,0,0,1,3.41-1.22C523.48,489.08,523.49,490.89,523.46,492.64Z" transform="translate(-325.2 -143.78)"/><path class="cls-3" d="M867.59,378.26c.15,1.69-.28,2.78-1.49,3.25-1,.39-1.86-.28-2.5-1-2.58-3-3.83-6.66-4.83-10.4a2.4,2.4,0,0,1,1.54-2.82,2.55,2.55,0,0,1,3.48,1.15C865.77,371.56,866.36,375.25,867.59,378.26Z" transform="translate(-325.2 -143.78)"/><path class="cls-3" d="M946.46,465.67a35.76,35.76,0,0,1-7.61-1.8c-1.61-.5-2.68-1.65-2.15-3.53.49-1.71,2-1.63,3.33-1.56,3.73.18,7.07,1.8,10.5,3.05,1.08.4,2.28,1,1.93,2.46s-1.7,1.33-2.85,1.37C948.84,465.69,948.06,465.67,946.46,465.67Z" transform="translate(-325.2 -143.78)"/><path class="cls-3" d="M672.36,530.78c-.09,3-5.75,6.76-8.35,5.71a3.57,3.57,0,0,1-1.33-1c-1.38-1.77-.71-4.42,1.48-6,2.68-2,6.6-2,7.78,0A5.2,5.2,0,0,1,672.36,530.78Z" transform="translate(-325.2 -143.78)"/><path class="cls-3" d="M877.06,403.35c0,.31.5,1.76-.73,2.35-1.62.77-2.5-.71-3.14-1.78a31.75,31.75,0,0,1-2.71-5.71,2.68,2.68,0,0,1,4.81-2.17A10.23,10.23,0,0,1,877.06,403.35Z" transform="translate(-325.2 -143.78)"/><path class="cls-3" d="M706,469.74c-.2,1.1-.81,1.72-1.92,1.58a2.45,2.45,0,0,1-2.36-2.64,1.51,1.51,0,0,1,1.86-1.56A2.68,2.68,0,0,1,706,469.74Z" transform="translate(-325.2 -143.78)"/><path class="cls-2" d="M947,338.91c-.64,7-5,12.08-9.4,16.87-7.71,8.38-17.44,12.75-28.75,14.81-21.93,4-43.5-14.08-45.91-33.65-.77-6.17-1.85-12.13,1.6-17.81a16.26,16.26,0,0,1,6.94.26,19.47,19.47,0,0,1-.35,3.44c-3.39,12.18,1.12,21.89,9.42,30.43a8.66,8.66,0,0,0,6,3c1.4,0,2.38-.74,1.52-2.16a32.53,32.53,0,0,0-3.78-5.1,35.31,35.31,0,0,1-7.08-11.2c-2.24-6-2.1-12,1.42-17.59,9.07.19,17.84,2.33,26.65,4.14,10.16,2.09,19.9,5.67,29.84,8.51a15.74,15.74,0,0,1-4.56,11.47,25,25,0,0,0-4.31,6.11,2.48,2.48,0,0,0,.31,2.73,2.43,2.43,0,0,0,3.17.45,13.23,13.23,0,0,0,3.12-2.52A28.53,28.53,0,0,0,940.68,336C943,336.51,945.3,337,947,338.91Zm-41.17,25.58c3.24-.68,7.64-1.31,11.67-3.29,1.55-.77,3.82-1.8,3.27-3.52-.78-2.49-3.2-1.05-5-.77-4,.62-7.84,1.91-12,1.88-2.39,0-4.52-.94-6.8-1.22-1.34-.16-2.87-.23-3.28,1.53a2.54,2.54,0,0,0,1.57,2.82A19.68,19.68,0,0,0,905.79,364.49Z" transform="translate(-325.2 -143.78)"/><path class="cls-1" d="M871.44,319.39a16.26,16.26,0,0,0-6.94-.26c-.84-1.53-.38-3,.22-4.45,3.1-7.44,7.7-13.39,15.82-15.81,2.05-.61,4.19-1.09,4.32-3.9.07-1.48,1.5-1.66,2.52-2,6.78-2.27,13.62-4.33,20.76-5.16,13.77-1.6,24.51,3.8,32.9,14.4,7.5,9.49,9.77,20.38,8.14,32.22-.24,1.71-.47,3.49-2.22,4.48-1.66-1.9-4-2.4-6.28-2.91-.16-3.28-.15-6.59-.52-9.85A30.54,30.54,0,0,0,931,307.2c-1.56-1.52-3.36-4.2-5.73-1.81-2.14,2.17.46,3.78,1.83,5.24a29.23,29.23,0,0,1,8,22.27c-9.94-2.84-19.68-6.42-29.84-8.51-8.81-1.81-17.58-3.95-26.65-4.14.2-4.78,2.65-7.84,7.17-9.26,1.49-.46,2.42-1.39,2.07-2.95s-1.73-1.89-3.18-1.86c-3.4.08-5.84,2-7.7,4.52C875,313.48,873.28,316.48,871.44,319.39Zm41.91-16.31c2.5,0,5,0,7.51,0,.94,0,2.06,0,2.22-1.27.14-1.07-.71-1.71-1.51-2.26a12.93,12.93,0,0,0-5.44-1.8c-6.59-1-13.09-1.09-19.1,2.38-1.34.78-2.67,1.91-1.74,3.73a2.65,2.65,0,0,0,4,1C903.71,302.17,908.55,302.77,913.35,303.08Z" transform="translate(-325.2 -143.78)"/><path class="cls-1" d="M987.57,298.08c-12.82.66-24.75,3.26-34.38,11.85-.59-.25-1.08-.3-1.22-.55-3.49-6.12-3.42-6.6,2.25-10.73a37.29,37.29,0,0,1,20.47-7.27c2.7-.14,5.43.13,8.11-.15,1.92-.19,2.93.45,3.44,2.17C986.67,294.85,987.07,296.32,987.57,298.08Z" transform="translate(-325.2 -143.78)"/><path class="cls-2" d="M989.3,281.27c-.37-3.1-1.3-6.23.62-9.17,1.6-.82,3.79,0,5.21-1.37-.82-2.14-3-2.2-4-3.69-.56-3.36,1.08-6.05,2.7-8.73,1.7.39,2.91,2.28,5.59,1.9l-3.68-4.41a15.58,15.58,0,0,1,13.45-8.8l5.38,6.93c-3.79-.67-6.94,1.35-10.32,2.41l-1.5.07-1.18-1.2-.28-.3.35.24a1.39,1.39,0,0,0,1.18,1.18c0,.72,0,1.44,0,2.17a13.67,13.67,0,0,1-3.53,7.17c-.83.34-1.17.69,0,1.09-1.1,4.28-2.64,8.47-2.37,13Z" transform="translate(-325.2 -143.78)"/><path class="cls-2" d="M1026.07,237.56c1.92-1.6,4.21-.82,6.36-1,1.75,1.54,2,4.52,4.8,5.31a14.82,14.82,0,0,0,.56-6.47l4.71.18c-.15,3.12-.18,6.26-1.41,9.21-6-.35-11.72,1.06-17.48,2.31-1.53-.17-2.44-2.24-4.36-1.69,1.78,8.76,1.7,9-3.24,11.45l-.54-2.54c1.86-2,.42-4-.1-5.87-.63-2.36-2.25-4.4-2.38-7,2.27-1.54,4.81-1.66,7.42-1.42,2.22.49,3,3.73,5.84,3.13C1027.52,241.23,1025.81,239.43,1026.07,237.56Z" transform="translate(-325.2 -143.78)"/><path class="cls-2" d="M1044.45,235.61c1.73-.28,3.18.81,4.82,1-.23,2.86-.15,5.69,1.24,8.3,1.24,2.33,2.6,2.51,4.35.47a45,45,0,0,0,2.88-4.19,3.54,3.54,0,0,1,3.36,3,15.55,15.55,0,0,1,0,2.16c-.34,2.21.15,3.25,2.55,2a5.81,5.81,0,0,1,1.59-.25c1.31.33,1.64,1.29,1.58,2.48a10.25,10.25,0,0,1-7.44,3.41c-2.54.38-4.73-1.83-7.34-1l-1.52-2.41c-.17-3.11-2.33-4.23-4.91-4.92Z" transform="translate(-325.2 -143.78)"/><path class="cls-2" d="M1022.76,317.88c-3.16.18-5.9-1.11-8.63-2.43a36.37,36.37,0,0,0,0-11.12c1.46-.88,1.42-2.31,1.37-3.74,3.2.68,3.18,3.32,3.5,5.75.29,2.09-.54,4.34.61,6.49l3.13-2c2.14.34,4.4,0,6.39,1.17l.85,6.72a7.72,7.72,0,0,1-4.68-.27c.29-1.1.71-2.67-.41-3C1023.08,314.79,1023.2,316.76,1022.76,317.88Z" transform="translate(-325.2 -143.78)"/><path class="cls-2" d="M1071.27,255.05l2.53,4.64c-2.84.77-4.62,2.78-6.78,5.07,3.19,1.2,5.87,1,8.52.93.82,1.48.49,3.09.51,4.65l-9.33,0,.08.09-.87-.86c-.5-2.75-1-5.51-1.49-8.27Z" transform="translate(-325.2 -143.78)"/><path class="cls-2" d="M1059.8,307.4a3.67,3.67,0,0,1-3.22,2.54c-5.24-3.72-5.24-3.72-5.9,2.55a5.66,5.66,0,0,1-.13.56c-.57,1.59-2.07,1.45-3.32,1.76-.19-.22-.38-.45-.56-.68.1-2.16.2-4.31.29-6.47.63-1.36,1.36-2.69,1.13-4.27,1.29-3,4-1,6-1.75C1054.89,304.64,1058.47,304.9,1059.8,307.4Z" transform="translate(-325.2 -143.78)"/><path class="cls-2" d="M1075,285.71c-.11,1.5,0,3.15-2.21,3.22a7.77,7.77,0,0,1-4.88-3.35c0-2.78,0-5.55,0-8.33l8.2-4.6a3.66,3.66,0,0,1,0,5.2c-2,.95-4.76,1.46-5.15,3.82S1073.39,284.57,1075,285.71Z" transform="translate(-325.2 -143.78)"/><path class="cls-1" d="M1071.27,255.05l-6.83,6.21c-2.88-1.58-4.79-3.85-5.11-7.24a10.25,10.25,0,0,0,7.44-3.41C1069.93,250.41,1070.06,253.28,1071.27,255.05Z" transform="translate(-325.2 -143.78)"/><path class="cls-2" d="M995.31,297.26c-1.69-.39-1.9-1.69-1.92-3.12,2.32-.56,4.46-1.78,6.92-1.76,2.49,1.33,3.4,3.92,4.84,6.09-1.33,2.27-2.12,4.86-4,6.83a3.33,3.33,0,0,1-3.06-2.59c.78-2,2.48-3.6,2.87-5.91C998.87,296.41,997.17,297.86,995.31,297.26Z" transform="translate(-325.2 -143.78)"/><path class="cls-1" d="M1057.74,241.17a45,45,0,0,1-2.88,4.19c-1.75,2-3.11,1.86-4.35-.47-1.39-2.61-1.47-5.44-1.24-8.3C1052.51,237.35,1055.74,238.13,1057.74,241.17Z" transform="translate(-325.2 -143.78)"/><path class="cls-2" d="M1047.23,314.81a8.87,8.87,0,0,1-4.93,2c-.2-1.15-.37-2.68-1.67-2.71s-1.63,1.39-1.71,2.59a6.4,6.4,0,0,0,.11,1.15l-5.11-.06q.91-3.24,1.84-6.49l7.69-1.46c1.33,1.23,1.54,3.3,3.21,4.27Z" transform="translate(-325.2 -143.78)"/><path class="cls-1" d="M1014.18,304.33a36.37,36.37,0,0,1,0,11.12c-2.66-.75-5.13-1.78-6.53-4.4a9.08,9.08,0,0,0,4.57-6.31Z" transform="translate(-325.2 -143.78)"/><path class="cls-1" d="M1001.17,305.3c1.86-2,2.65-4.56,4-6.84a12.81,12.81,0,0,1,4.43,4.41c-2,1.57-3.2,3.79-4.48,5.92C1002.68,308.88,1001.54,307.53,1001.17,305.3Z" transform="translate(-325.2 -143.78)"/><path class="cls-1" d="M1013,241.48c.13,2.55,1.75,4.59,2.38,7,.52,1.92,2,3.89.1,5.87a4.92,4.92,0,0,0-.89-.37L1009.2,247Z" transform="translate(-325.2 -143.78)"/><path class="cls-1" d="M1076.15,272.65l-8.2,4.6-1.23-6.95,9.33,0C1076.08,271.11,1076.12,271.88,1076.15,272.65Z" transform="translate(-325.2 -143.78)"/><path class="cls-1" d="M989.3,281.27l7.58-1.52.36,3.45c-2.47,1.19-4.21,3.29-6.24,5C989.51,286.14,989.32,283.72,989.3,281.27Z" transform="translate(-325.2 -143.78)"/><path class="cls-2" d="M991,288.23c2-1.74,3.77-3.84,6.24-5,1.23,1.23.82,2.83,1,4.3l-5.78,4.93C990.76,291.45,991.19,289.73,991,288.23Z" transform="translate(-325.2 -143.78)"/><path class="cls-2" d="M1005.1,308.79c1.28-2.13,2.45-4.35,4.48-5.92,1.27.06,2.29.47,2.59,1.87a9.08,9.08,0,0,1-4.57,6.31C1006.09,311.05,1005.13,310.43,1005.1,308.79Z" transform="translate(-325.2 -143.78)"/><path class="cls-1" d="M1035.76,311.32q-.93,3.26-1.84,6.49c-1.19.78-2.42,1.38-3.89.88q-.43-3.36-.85-6.72Z" transform="translate(-325.2 -143.78)"/><path class="cls-1" d="M1075.54,265.69c-2.65,0-5.33.27-8.52-.93,2.16-2.29,3.94-4.3,6.78-5.07Z" transform="translate(-325.2 -143.78)"/><path class="cls-1" d="M1044.45,235.61l1.11,10.06c-1.49-.3-3.28.9-4.47-.89,1.23-3,1.26-6.1,1.41-9.22Z" transform="translate(-325.2 -143.78)"/><path class="cls-1" d="M1059.8,307.4c-1.33-2.5-4.91-2.76-5.75-5.76l-.08.07,5.83-2.25a8.48,8.48,0,0,0,2.9,4.75A3.5,3.5,0,0,1,1059.8,307.4Z" transform="translate(-325.2 -143.78)"/><path class="cls-1" d="M1070,296c-1.09,2.22-1.89,4.66-4.42,5.79-.94-1.68-1.47-3.66-3.27-4.76a2.54,2.54,0,0,1,2-2.46C1066,295.82,1068,296,1070,296Z" transform="translate(-325.2 -143.78)"/><path class="cls-1" d="M1026.07,237.56c-.26,1.87,1.45,3.67.18,5.63-2.84.6-3.62-2.64-5.84-3.13C1021.09,236.49,1024.08,238.16,1026.07,237.56Z" transform="translate(-325.2 -143.78)"/><path class="cls-1" d="M1067.9,285.58a7.77,7.77,0,0,0,4.88,3.35c.68,1.6.1,2.73-1.34,3.54a16.29,16.29,0,0,0-5.71-1.36C1066.05,289.11,1066.41,287.12,1067.9,285.58Z" transform="translate(-325.2 -143.78)"/><path class="cls-1" d="M1075,285.71c-1.6-1.14-4.42-1.64-4-4s3.16-2.87,5.15-3.82A11.09,11.09,0,0,1,1075,285.71Z" transform="translate(-325.2 -143.78)"/><path class="cls-1" d="M995.31,297.26c1.86.6,3.56-.85,5.67-.46-.39,2.31-2.09,3.91-2.87,5.91C996.41,301.29,994.1,300.18,995.31,297.26Z" transform="translate(-325.2 -143.78)"/><path class="cls-2" d="M1062.32,297c1.8,1.1,2.33,3.08,3.27,4.76a3.48,3.48,0,0,1-2.89,2.43,8.48,8.48,0,0,1-2.9-4.75A3,3,0,0,1,1062.32,297Z" transform="translate(-325.2 -143.78)"/><path class="cls-1" d="M992.45,292.43l5.78-4.93a5.8,5.8,0,0,1,2.08,4.88c-2.46,0-4.6,1.2-6.92,1.76C993.08,293.57,992.77,293,992.45,292.43Z" transform="translate(-325.2 -143.78)"/><path class="cls-2" d="M1065.73,291.11a16.29,16.29,0,0,1,5.71,1.36c0,1.38.09,2.77-1.43,3.52-2,0-4-.17-5.66-1.43C1064.3,293.21,1065.11,292.2,1065.73,291.11Z" transform="translate(-325.2 -143.78)"/><path class="cls-1" d="M1050.55,313.05a5.66,5.66,0,0,0,.13-.56c.66-6.27.66-6.27,5.9-2.55A8,8,0,0,1,1050.55,313.05Z" transform="translate(-325.2 -143.78)"/><path class="cls-1" d="M1037.79,235.38a14.82,14.82,0,0,1-.56,6.47c-2.78-.79-3-3.77-4.8-5.31C1034,234.94,1035.94,235.5,1037.79,235.38Z" transform="translate(-325.2 -143.78)"/><path class="cls-1" d="M1065.19,248.13a5.81,5.81,0,0,0-1.59.25c-2.4,1.2-2.89.16-2.55-2a15.55,15.55,0,0,0,0-2.16C1063.81,244.11,1065.18,245.42,1065.19,248.13Z" transform="translate(-325.2 -143.78)"/><path class="cls-1" d="M991.14,267c1,1.49,3.17,1.55,4,3.69-1.42,1.42-3.61.55-5.21,1.37C989.49,270.21,989.41,268.41,991.14,267Z" transform="translate(-325.2 -143.78)"/><path class="cls-1" d="M995.75,255.8l3.68,4.41c-2.68.38-3.89-1.51-5.59-1.9C993.76,256.92,994.65,256.28,995.75,255.8Z" transform="translate(-325.2 -143.78)"/><path class="cls-1" d="M1022.76,317.88c.44-1.12.32-3.09,2.18-2.49,1.12.36.7,1.93.41,3Z" transform="translate(-325.2 -143.78)"/><path class="cls-1" d="M1039,317.87a6.4,6.4,0,0,1-.11-1.15c.08-1.2.46-2.62,1.71-2.59s1.47,1.56,1.67,2.71A6.34,6.34,0,0,1,1039,317.87Z" transform="translate(-325.2 -143.78)"/><path class="cls-1" d="M983.7,284.89c.55,1.4.22,1.87-1.23,1.15Z" transform="translate(-325.2 -143.78)"/><path class="cls-2" d="M662,454.13l-.51.48.45-.53Z" transform="translate(-325.2 -143.78)"/><path class="cls-1" d="M780.59,632.68c-5.72-5-10.46-9.73-13.43-15.94-2.13-4.45-1.45-6.91,2.75-9.2,7.55-4.13,16-5.24,25.16-7.28C790.08,611.45,785.53,621.62,780.59,632.68Z" transform="translate(-325.2 -143.78)"/><path class="cls-3" d="M871.44,319.39c1.84-2.91,3.54-5.91,5.56-8.69,1.86-2.55,4.3-4.44,7.7-4.52,1.45,0,2.83.29,3.18,1.86s-.58,2.49-2.07,2.95c-4.52,1.42-7,4.48-7.17,9.26-3.52,5.61-3.66,11.6-1.42,17.59A35.31,35.31,0,0,0,884.3,349a32.53,32.53,0,0,1,3.78,5.1c.86,1.42-.12,2.18-1.52,2.16a8.66,8.66,0,0,1-6-3c-8.3-8.54-12.81-18.25-9.42-30.43A19.47,19.47,0,0,0,871.44,319.39Z" transform="translate(-325.2 -143.78)"/><path class="cls-3" d="M935.13,332.9a29.23,29.23,0,0,0-8-22.27c-1.37-1.46-4-3.07-1.83-5.24,2.37-2.39,4.17.29,5.73,1.81a30.54,30.54,0,0,1,9.18,18.95c.37,3.26.36,6.57.52,9.85a28.54,28.54,0,0,1-7.82,15.14,13.23,13.23,0,0,1-3.12,2.52,2.43,2.43,0,0,1-3.17-.45,2.48,2.48,0,0,1-.31-2.73,25,25,0,0,1,4.31-6.11A15.74,15.74,0,0,0,935.13,332.9Z" transform="translate(-325.2 -143.78)"/><path class="cls-3" d="M905.79,364.49a19.68,19.68,0,0,1-10.51-2.57,2.54,2.54,0,0,1-1.57-2.82c.41-1.76,1.94-1.69,3.28-1.53,2.28.28,4.41,1.21,6.8,1.22,4.12,0,8-1.26,12-1.88,1.78-.28,4.2-1.72,5,.77.55,1.72-1.72,2.75-3.27,3.52C913.43,363.18,909,363.81,905.79,364.49Z" transform="translate(-325.2 -143.78)"/><path class="cls-3" d="M913.35,303.08c-4.8-.31-9.64-.91-14.08,1.78a2.65,2.65,0,0,1-4-1c-.93-1.82.4-3,1.74-3.73,6-3.47,12.51-3.39,19.1-2.38a12.93,12.93,0,0,1,5.44,1.8c.8.55,1.65,1.19,1.51,2.26-.16,1.24-1.28,1.25-2.22,1.27C918.35,303.11,915.85,303.08,913.35,303.08Z" transform="translate(-325.2 -143.78)"/><path class="cls-3" d="M1000.31,292.38a5.8,5.8,0,0,0-2.08-4.88c-.17-1.47.24-3.07-1-4.3l-.36-3.45c-.27-4.52,1.27-8.71,2.37-13a3.07,3.07,0,0,0,0-1.09,13.67,13.67,0,0,0,3.53-7.17c1.11-.31,1.34-1.19,1.44-2.16,3.38-1.06,6.53-3.08,10.32-2.41a4.92,4.92,0,0,1,.89.37l.54,2.54c-.64,1.47-1.94,1.74-3.34,1.86a5.69,5.69,0,0,0-4.28,2.71c-5.28,7.77-7.71,16.15-3.82,25.17a35.46,35.46,0,0,0,11,14c.05,1.43.09,2.86-1.37,3.74l-2,.41c-.3-1.4-1.32-1.81-2.59-1.87a12.81,12.81,0,0,0-4.43-4.41C1003.71,296.3,1002.8,293.71,1000.31,292.38Z" transform="translate(-325.2 -143.78)"/><path class="cls-1" d="M1004.26,256.34c-.1,1-.33,1.85-1.44,2.16,0-.73,0-1.45,0-2.17l-.07.08Z" transform="translate(-325.2 -143.78)"/><path class="cls-1" d="M999.29,265.67a3.07,3.07,0,0,1,0,1.09C998.12,266.36,998.46,266,999.29,265.67Z" transform="translate(-325.2 -143.78)"/><polygon class="cls-1" points="676.45 111.37 676.09 111.13 676.38 111.43 676.45 111.37"/><path class="cls-1" d="M1002.83,256.33a1.39,1.39,0,0,1-1.18-1.18l-.07.06,1.18,1.2Z" transform="translate(-325.2 -143.78)"/><path class="cls-1" d="M1015.55,300.59a35.46,35.46,0,0,1-11-14c-3.89-9-1.46-17.4,3.82-25.17a5.69,5.69,0,0,1,4.28-2.71c1.4-.12,2.7-.39,3.34-1.86,4.94-2.42,5-2.69,3.24-11.45,1.92-.55,2.83,1.52,4.36,1.69-.56,1.68-2.57,3.29-.56,5.12,1.61,1.46,3.21.33,4.73-.47,3.39-1.77,7.06-1.4,10.67-1.38,4,0,8,.15,12,.24L1052,253c-1.36,2.63.86,3.81,2.2,5.3,10.3,11.41,10.74,24.95,1.17,36.79-.48.59-.94,1.21-1.41,1.81-1.24,1.61-.89,3.21,0,4.81l.08-.07c-1.94.74-4.67-1.21-6,1.75-7.84,1.27-15.5,4.93-23.69,1.69a2.72,2.72,0,0,0-3.17.71c-1.16,1.38-.18,2.48.58,3.59l1,1.42-3.13,2c-1.15-2.15-.32-4.4-.61-6.49C1018.73,303.91,1018.75,301.27,1015.55,300.59Z" transform="translate(-325.2 -143.78)"/><path class="cls-3" d="M1050.47,250.59c-4-.09-8-.21-12-.24-3.61,0-7.28-.39-10.67,1.38-1.52.8-3.12,1.93-4.73.47-2-1.83,0-3.44.56-5.12,5.76-1.25,11.51-2.66,17.48-2.31,1.19,1.8,3,.6,4.47.9C1048.14,246.36,1050.3,247.48,1050.47,250.59Z" transform="translate(-325.2 -143.78)"/><path class="cls-3" d="M1054,301.71c-.91-1.6-1.26-3.2,0-4.81.47-.6.93-1.22,1.41-1.81,9.57-11.84,9.13-25.38-1.17-36.79-1.34-1.49-3.56-2.67-2.2-5.3,2.61-.81,4.8,1.4,7.34,1,.32,3.39,2.23,5.66,5.11,7.24.5,2.76,1,5.52,1.49,8.27l.87.86-.08-.09,1.23,6.95c0,2.78,0,5.55,0,8.33-1.49,1.54-1.85,3.53-2.17,5.53-.62,1.09-1.43,2.1-1.38,3.45a2.54,2.54,0,0,0-2,2.46,3,3,0,0,0-2.52,2.44Z" transform="translate(-325.2 -143.78)"/><path class="cls-3" d="M1022.79,310.8l-1-1.42c-.76-1.11-1.74-2.21-.58-3.59a2.72,2.72,0,0,1,3.17-.71c8.19,3.24,15.85-.42,23.69-1.69.23,1.58-.5,2.91-1.13,4.27a4.82,4.82,0,0,0-3.51,2.2l-7.69,1.46-6.58.65C1027.19,310.79,1024.93,311.14,1022.79,310.8Z" transform="translate(-325.2 -143.78)"/><path class="cls-1" d="M1066.8,270.39l-.87-.86Z" transform="translate(-325.2 -143.78)"/><path class="cls-1" d="M1043.45,309.86a4.82,4.82,0,0,1,3.51-2.2c-.09,2.16-.19,4.31-.29,6.47C1045,313.16,1044.78,311.09,1043.45,309.86Z" transform="translate(-325.2 -143.78)"/></svg>