<svg id="Layer_1" data-name="Layer 1" xmlns="http://www.w3.org/2000/svg" viewBox="0 0 611.46 627.76"><defs><style>.cls-1{fill:#88a2dc;}.cls-2{fill:#3163d4;}</style></defs><title>Snack_Search</title><path class="cls-1" d="M544.1,451.35c.12-2.32,1.6-4,2.77-5.81,13.33-20.77,28.2-40.46,42.86-60.29,7.54-10.2,15.27-20.28,22.9-30.39l9.84-11.32c1.14-1.32,2.89-2.32,2.38-4.52,4.11-2.2,6.43-6.33,9.87-9.26,5-4.24,9.75-8.7,14.61-13.06,2.61-1.44,5.72-2.3,6.53-5.77,1.81.44,3-.71,4.47-1.51,5.69-3.2,11.41-6.32,18-7.54,6.22-1.17,11.93-.58,16.57,4.21a5.39,5.39,0,0,0,4.37,1.74c20.87-.88,39.88,6.42,58.81,13.75,10.29,4,20.25,8.86,30.34,13.37a26.15,26.15,0,0,1,2.78,1.66c-.89,2-1.73,4-2.67,5.93-7.3,15.1-10.22,30.82-7.46,47.56,4,24.08,16.39,42.67,36,56.73a89.68,89.68,0,0,0,29.56,13.48,109.72,109.72,0,0,0,48,1.83c7-1.25,13.54-4.08,20.53-5.23,3.24,6.27,4.87,13.17,7.85,19.54,3.52,7.53,7,15,12,21.76-3.57,1.3-7.11,2.64-10.57,4.22A133.67,133.67,0,0,0,890,525c-6.22,5.62-11.29,12.25-16,19.12-1.26,1.83-1.81,3.82.35,5.22s3.37-.43,4.41-1.9a119.16,119.16,0,0,1,18-20.17c12-10.67,25.8-18,40.78-23.34,9.43,14.82,16.53,30.41,18.47,48.23,1.54,14.18-1.28,27.46-6.51,40.3-10,24.5-24.15,46.23-44,64a154.16,154.16,0,0,1-28.55,19.77,6.63,6.63,0,0,0-4.06,2.51,7.77,7.77,0,0,0-3.62,1,112.35,112.35,0,0,1-45.92,9.06c-5.07-1.93-8.42-6.06-12.11-9.71-16.64-16.51-20.38-37-17.6-59.19,1.46-11.67,6-22.39,11.82-32.54,5.1-8.91,11.54-16.76,20.22-22.41,4-2.6,8.43-4.4,13.33-1.91,1.35.69,2.81,1.23,3.74-.57a3,3,0,0,0-1.11-4.28c-2.65-1.62-5.48-2.87-8.73-2.17a34.41,34.41,0,0,0-16.3,8.22,81.88,81.88,0,0,0-15.82,19.28c-11,18.87-16.51,38.89-13.2,60.91,2.29,15.23,8.57,28.31,19.57,39.13,1.39,1.36,3.21,2.46,3.62,4.62-5.84,1.31-11.58-.3-17.27-1-17.64-2.18-35-6-52.23-10.21-7.89-2-15.68-4.45-23.75-5.79-32.11-8.37-64.44-16-95.32-28.51-4.61-1.86-9.74-2.84-13.44-6.62-.12-1,.51-1.59,1.24-2.21,8.46-7.21,15.9-15.26,21.63-24.91a117.12,117.12,0,0,0,16.13-50.79,104,104,0,0,0-2-31.88c-3.72-16.25-10.66-30.83-22.49-42.68-16-16-35.77-24.89-57.69-29.45C558.49,452.61,551.27,452.24,544.1,451.35ZM871.65,602.41a42.3,42.3,0,0,0,7-.67c9.27-1.9,17.22-6.34,24.77-11.87a44.29,44.29,0,0,0,13.51-16.06c2.92-5.84,5.21-12,2.85-18.8-2-5.82-5.79-7.44-11.45-4.86-4.15,1.9-7.8,4.61-11.56,7.12-11.8,7.88-24,14.82-38,18.09a25.67,25.67,0,0,0-10,5.29c-3.4,2.7-4.06,5.78-2.1,9.59,2.06,4,4.92,7.18,9.19,8.83A46.88,46.88,0,0,0,871.65,602.41ZM732.93,551a5.88,5.88,0,0,0,5.17-5.86c-.19-2.85-3-5.83-5.44-5.81-2.14,0-4.68,3.19-4.69,5.84C728,548.7,730.05,551.16,732.93,551ZM857.5,676.15c0-2.47-1.37-4.08-3.46-3.9-2.25.21-3,1.74-3.08,3.75-.09,2.18,1.48,4.32,3.17,4.37S857.47,678.31,857.5,676.15Zm11.84-22.4c-1.86.1-3,1.25-3.09,3.36s1.25,3.75,3,3.63a3.6,3.6,0,0,0,3.45-3.46C873,655.32,871.59,653.8,869.34,653.75ZM735.94,455.3c-.24-2-1.8-2.62-3.37-2.9-1.8-.32-2.59,1-2.68,2.58a2.81,2.81,0,0,0,2.81,3.25C734.73,458.41,735.51,457,735.94,455.3Z" transform="translate(-436.71 -170.71)"/><path class="cls-1" d="M532.15,472.23c1.16-5.46,5.21-9.53,7.07-14.65,5.58.3,11.23.16,16.73,1,16.09,2.37,31.45,7,45.45,15.6,7.94,4.86,15.41,10.26,21.33,17.54C639.34,512.1,643.79,536,641.3,561.3a103.8,103.8,0,0,1-16,46.37c-6.53,10.19-14.39,19.09-25,25.22-16.88-8-33.21-17-48.2-28.31-19.12-14.39-31-33.19-34.71-57-2.56-16.41-.48-32.49,3.95-48.32,1.94-6.95,3.94-13.93,7.65-20.24,3.64.72,6-.06,6.53-2.34C536.15,474,534.37,472.91,532.15,472.23Z" transform="translate(-436.71 -170.71)"/><path class="cls-1" d="M797.73,339.45c3.21.07,5.88,1.8,8.63,3.07,17.95,8.27,35.44,17.38,51.92,28.38,24.2,16.15,41.48,37.53,50.59,65.3,1.51,4.62,3.94,9,4.12,14a21.73,21.73,0,0,1-2.86,1.51A104,104,0,0,1,856,456.08c-20.76-3.79-38.68-12.94-52.21-29.82q-24.35-30.39-14.93-67.93C790.55,351.54,793,344.9,797.73,339.45Z" transform="translate(-436.71 -170.71)"/><path class="cls-2" d="M655.86,310.93c-.81,3.47-3.92,4.33-6.53,5.77-1.43-2.88-4.05-2.73-6.61-2.47-4.77.47-9.17,2.21-13.51,4.1-12.06,5.27-23.09,12.27-33.67,20C579.76,349.9,565.9,363.48,553,378.11c-3.84,4.36-7.88,8.56-11.91,12.75a29.77,29.77,0,0,1-7.75,5.95c-5.73,2.95-10.89,1.05-13.31-4.94-2-5-1.87-10.33-1.38-15.6a176,176,0,0,1,4.58-26.3c4.59-18.52,9.37-37,14-55.5a70.41,70.41,0,0,0,2.22-12.88c.22-3.63-.74-4.35-4.12-3.08a38.78,38.78,0,0,0-9.07,4.95c-30.55,22.07-53.66,49.84-65.72,86-1,3.09-1.7,6.31-2.51,9.47-.54,2.13-1.57,3.72-4,3.67-2.15-.05-3.59-1.8-3.72-4.57a20.42,20.42,0,0,1,1.1-6.42,155.21,155.21,0,0,1,25.82-51.94,195.41,195.41,0,0,1,42.59-41.89,66.78,66.78,0,0,1,10.79-6.37,23.29,23.29,0,0,1,6.18-2.06c6.28-1,10.25,2,11,8.28.48,3.84-.17,7.61-.87,11.37-3,16.1-7.59,31.81-11.74,47.63a292.59,292.59,0,0,0-7.7,36.8c-.56,4.33-1.06,8.69-.14,13,.57,2.66,1.55,3.09,3.77,1.52a35.14,35.14,0,0,0,5.34-4.63c5.59-6,11.07-12,16.59-18.07,18.18-19.86,38.69-36.81,62.39-49.74,7-3.83,14.26-7.22,22.12-9.08a28.76,28.76,0,0,1,8.66-.8C650.22,306,653.7,307.25,655.86,310.93Z" transform="translate(-436.71 -170.71)"/><path class="cls-2" d="M797.73,339.45c-4.75,5.45-7.18,12.09-8.88,18.88q-9.42,37.57,14.93,67.93c13.53,16.88,31.45,26,52.21,29.82a104,104,0,0,0,54.14-4.41,21.73,21.73,0,0,0,2.86-1.51,3,3,0,0,0,1.08,0c18.56-6.72,34.8-16.63,44.8-34.34,10.86-19.23,11-39.58,2.64-59.36-14.14-33.28-39.34-52.75-75.86-56.34-5.9-.58-11.86-2-17.83-.32a1,1,0,0,1-1.29-.62,2,2,0,0,1,.22-1.5c1.5-2.1,3.86-2.56,6.18-3,6.17-1.27,12.35-.56,18.43.41,39.24,6.32,65.25,28.86,77.68,66.14,7.57,22.74,4.55,44.92-10,64.72-7.13,9.68-16.53,16.78-27,22.45-4.31,2.32-8.84,4.23-13.26,6.33-1.28.6-2.87.72-3.6,2.22-7,1.15-13.53,4-20.53,5.23a109.72,109.72,0,0,1-48-1.83,89.68,89.68,0,0,1-29.56-13.48c-19.64-14.06-32-32.65-36-56.73-2.76-16.74.16-32.46,7.46-47.56.94-2,1.78-4,2.67-5.93,2.43-1.25,3.29-3.8,4.74-5.82,7.09-9.87,15.59-18.11,26.53-23.62a30.65,30.65,0,0,1,9.21-3.2,10.62,10.62,0,0,1,6.85,1,2.42,2.42,0,0,1,1.37,2.7,2.06,2.06,0,0,1-2.37,1.77c-11.22-1.38-18.63,5.67-26.27,12a61.66,61.66,0,0,0-11.34,13.12C798.87,336.07,797.59,337.45,797.73,339.45Z" transform="translate(-436.71 -170.71)"/><path class="cls-2" d="M600.25,632.89c10.63-6.13,18.49-15,25-25.22a103.8,103.8,0,0,0,16-46.37c2.49-25.35-2-49.2-18.57-69.61-5.92-7.28-13.39-12.68-21.33-17.54-14-8.56-29.36-13.23-45.45-15.6-5.5-.81-11.15-.67-16.73-1-12.47.24-24.53,2.07-35.28,9-1.27.82-2.64,1.64-3.91.3-1.43-1.54-.57-3,.65-4.28a19.06,19.06,0,0,1,6.38-4.06,72.53,72.53,0,0,1,22-5.75c4.74-.21,9.58.87,14.18-1.12a2.51,2.51,0,0,1,.87-.34c7.17.89,14.39,1.26,21.49,2.74,21.92,4.56,41.7,13.42,57.69,29.45,11.83,11.85,18.77,26.43,22.49,42.68a104,104,0,0,1,2,31.88,117.12,117.12,0,0,1-16.13,50.79c-5.73,9.65-13.17,17.7-21.63,24.91-.73.62-1.36,1.17-1.24,2.21a7.53,7.53,0,0,0-4.55,1.55c-35,22.87-77.2,14.08-102.9-6.66-20.29-16.37-34.18-37.44-43.75-61.49a47.72,47.72,0,0,1-2.48-25.21,25.64,25.64,0,0,1,3.21-9.78c1.44-2.34,3.13-4.43,6-4.74.71.52,1,1.06.72,1.55-5.61,10.89-6.83,22.47-2.79,33.8,9.23,25.88,23.78,48.59,46.6,64.32,27.13,18.7,56.38,22,86.63,6.91C597.18,635.39,599.16,634.74,600.25,632.89Z" transform="translate(-436.71 -170.71)"/><path class="cls-2" d="M624.85,339c.51,2.2-1.24,3.2-2.38,4.52l-9.84,11.32a13.88,13.88,0,0,0-5.92,2.37c-19.23,12.5-35.26,28.55-50.72,45.26-7,7.6-13.93,15.35-22.16,21.73a52,52,0,0,1-13,7.84c-7.9,3-13.95.64-17.6-6.94A45.54,45.54,0,0,1,499.42,411c-1.94-15.23-1.36-30.48-.32-45.73.38-5.62,1-11.22,1.41-16.84.13-1.74.77-3.53-.08-5.26-1.47-.1-1.82,1.11-2.36,2-8.87,14.31-15.77,29.46-19.52,46A50.15,50.15,0,0,0,477,404.53c.15,3.39-1.12,5.09-3.39,5.21s-4.06-1.6-4.61-4.54a27.21,27.21,0,0,1,.28-9.22c2.83-18,9.75-34.56,18.8-50.26,2.27-3.92,5-7.6,7.49-11.38a12.29,12.29,0,0,1,1.35-1.7c2.17-2.29,4.45-4.65,8-3.5,3.8,1.24,4.26,4.66,4.37,8,.24,7.11-.77,14.15-1.36,21.21-1.28,15.59-2.11,31.19-.76,46.83a54.31,54.31,0,0,0,2.77,14.41c2.05,5.56,4.25,6.46,9.55,3.92a56.06,56.06,0,0,0,15.42-11.1c5.66-5.64,11.16-11.45,16.63-17.28,13.82-14.74,28-29,44.64-40.71A120.11,120.11,0,0,1,624.85,339Z" transform="translate(-436.71 -170.71)"/><path class="cls-2" d="M717.52,671.14c8.07,1.34,15.86,3.83,23.75,5.79-2,1.69.13,2.11.93,2.65q12.39,8.42,24.88,16.69c8.78,5.82,17.91,11.11,26.37,17.41a30.38,30.38,0,0,1,6.69,6.36c4,5.61,2.67,10.9-3.54,13.86a36.79,36.79,0,0,1-10,2.71c-10.67,1.74-21.37,1.37-32.07.47-6.31-.54-12.61-1.15-19.45-1.77,1.54,3.14,4.08,4.29,6.25,5.74,9.68,6.46,20,11.81,30.25,17.33,10.86,5.87,21.73,11.74,33.52,15.64a9.33,9.33,0,0,1,3.8,2.08,4,4,0,0,1,1.17,4.45,3.71,3.71,0,0,1-3.81,2.55,13.69,13.69,0,0,1-4.22-.91c-2.89-1.07-5.76-2.23-8.56-3.52A584.82,584.82,0,0,1,741.63,751c-3.28-1.94-6.38-4.18-9.5-6.37a32.11,32.11,0,0,1-6.75-6.31c-1.85-2.36-3.35-4.93-1.82-8,1.39-2.82,4.08-3.48,6.91-3.46,3.08,0,6.17.15,9.24.43,8.69.8,17.36,1.76,26.08,2,7.1.17,14.18.09,21.17-1.36,2.06-.42,5.18-.16,5.7-2.25.63-2.5-2.39-3.74-4.21-5-4.71-3.39-9.54-6.62-14.38-9.84-11.35-7.54-22.79-14.93-34.06-22.58-6.46-4.38-12.69-9.11-19-13.73C719.73,673.5,718.23,672.73,717.52,671.14Z" transform="translate(-436.71 -170.71)"/><path class="cls-2" d="M810.77,688.15c-.41-2.16-2.23-3.26-3.62-4.62-11-10.82-17.28-23.9-19.57-39.13-3.31-22,2.24-42,13.2-60.91a81.88,81.88,0,0,1,15.82-19.28A34.41,34.41,0,0,1,832.9,556c3.25-.7,6.08.55,8.73,2.17a3,3,0,0,1,1.11,4.28c-.93,1.8-2.39,1.26-3.74.57-4.9-2.49-9.33-.69-13.33,1.91-8.68,5.65-15.12,13.5-20.22,22.41-5.81,10.15-10.36,20.87-11.82,32.54-2.78,22.22,1,42.68,17.6,59.19,3.69,3.65,7,7.78,12.11,9.71,1.24,1.92,3.23,2.89,5.14,3.91,25.91,14,53.23,17.5,81.86,10.85A287.77,287.77,0,0,0,947.7,691.6c3.36-1.28,6.45-3,8.77-7,1.33,4-.42,5.84-2.2,7.56a33.12,33.12,0,0,1-10.17,6.25c-14.74,6.4-30,11.09-46,13-30.47,3.6-58.5-3-83.52-21.18A33.1,33.1,0,0,0,810.77,688.15Z" transform="translate(-436.71 -170.71)"/><path class="cls-2" d="M937.53,503.9c-15,5.36-28.77,12.67-40.78,23.34a119.16,119.16,0,0,0-18,20.17c-1,1.47-2.32,3.26-4.41,1.9s-1.61-3.39-.35-5.22c4.75-6.87,9.82-13.5,16-19.12a133.67,133.67,0,0,1,34.45-22.54c3.46-1.58,7-2.92,10.57-4.22,10.32-3.62,20.78-6.59,31.76-7.34a79.21,79.21,0,0,1,16.86.66c22.26,3.28,35.35,17.34,42.87,37.35,6.61,17.61,7.08,35.83,4.08,54.28-3.3,20.29-11.71,38.48-22.46,55.74a21.7,21.7,0,0,1-6.51,7.24c-.77.49-1.65.9-2.48.11s0-1.62.35-2.37c4.14-7.67,8.36-15.3,12.41-23,10-19,15.16-39.28,14.72-60.8-.26-12.85-2.83-25.26-8.71-36.83-9-17.74-23.57-26.47-43.38-26.91-11.81-.26-23.09,2.23-34.18,6A16.13,16.13,0,0,0,937.53,503.9Z" transform="translate(-436.71 -170.71)"/><path class="cls-1" d="M555.35,337.49c5.37-3.84,8.33-8.66,11.89-12.89,4.67-5.54,8.73-11.59,14-16.62a26.31,26.31,0,0,1,2.36-2.25c1.49-1.07,2.88-.49,3.16,1.28a8.57,8.57,0,0,1-.72,4.25,36.56,36.56,0,0,1-5.25,10.11C575,329,569.21,336.7,562.47,343.6c-.63.65-1.26,1.31-1.93,1.93-2.29,2.14-4.65,4.23-8.16,3.1s-4.86-4.36-5.37-7.59a54.65,54.65,0,0,1-.11-15.22A115.6,115.6,0,0,1,554.44,297a17.77,17.77,0,0,1,2.3-4.3c1.16-1.52,2.83-2.44,4.77-1.41a3.75,3.75,0,0,1,2.08,4.57c-.48,1.74-1.24,3.4-1.8,5.13-3.47,10.7-7,21.41-6.69,32.87C555.13,334.71,555.22,335.61,555.35,337.49Z" transform="translate(-436.71 -170.71)"/><path class="cls-1" d="M788.27,798.43c-3.59-.94-7.33-1.71-10.78-3.4-18.45-9-36.21-19.18-52.06-32.38a44.92,44.92,0,0,1-5.45-5.32c-2.19-2.57-2.22-4.62-.48-6.25s3.71-1.6,6.2.73c9.73,9.08,20.64,16.55,32.09,23.23,6.57,3.84,13.38,7.26,20.08,10.89a56.21,56.21,0,0,1,12.47,8.66c.77.74,1.65,1.57.91,2.8S789.49,798.53,788.27,798.43Z" transform="translate(-436.71 -170.71)"/><path class="cls-2" d="M489.7,575.21c0-4.88,3.86-7.28,8.14-4.86a56.73,56.73,0,0,1,10.07,7.4c8.07,7.28,13.89,16.22,19,25.68a10.45,10.45,0,0,1,.69,1.48c.6,1.71,1.49,3.58-.5,4.9-1.77,1.19-3-.19-4.24-1.3-7.55-6.8-15.36-13.29-23.35-19.57a44,44,0,0,1-7-6.82A10.84,10.84,0,0,1,489.7,575.21Z" transform="translate(-436.71 -170.71)"/><path class="cls-1" d="M1048.16,518.49c-.15,2.41.34,5.15-2.24,5.87s-3-2.13-4.07-3.65c-2-2.87-2.91-6.24-4.13-9.45-5.62-14.7-15.2-25.78-29.6-32.46-2.16-1-3.7-2.42-3.09-5,.53-2.26,2.9-3.43,5.67-2.76a17.23,17.23,0,0,1,4.58,1.69c16.75,9.78,28.36,23.49,32.47,42.85C1048,516.6,1048.05,517.69,1048.16,518.49Z" transform="translate(-436.71 -170.71)"/><path class="cls-1" d="M436.71,512.57c.36-6.4,2.3-12.46,4.29-18.48,1.36-4.14,3.1-8.15,4.71-12.19a9,9,0,0,1,2.74-4,4.19,4.19,0,0,1,4.61-.46c1.76.87,2.06,2.57,1.64,4.22a33.89,33.89,0,0,1-2,5.05c-4.16,9.51-6,19.82-10.14,29.33-.66,1.53-.61,4.13-3.11,3.72-2.16-.36-2-2.78-2.47-4.45A14.27,14.27,0,0,1,436.71,512.57Z" transform="translate(-436.71 -170.71)"/><path class="cls-1" d="M646.44,286.16c2.95-.35,6.1.59,9.25,1.38a9.94,9.94,0,0,1,4.77,2.51c2.49,2.51,1.77,5.08-1.61,6.12a6.29,6.29,0,0,1-3.72-.14,31.48,31.48,0,0,0-20.24.76c-2.93,1.11-4.92.09-5.74-2.26-.94-2.7.8-4.09,2.77-5.17A28.54,28.54,0,0,1,646.44,286.16Z" transform="translate(-436.71 -170.71)"/><path class="cls-2" d="M464.1,507.79a23.57,23.57,0,0,1,.51-2.86c3.27-10.24,7.07-20.25,13.93-28.72,1.48-1.82,2.75-4.79,6-3.29,1.8.82,1.32,2.57-1.72,6.31-3.84,4.7-6.34,10.13-8.69,15.65-2,4.67-3.62,9.5-6.2,13.91-.54.92-.9,2.2-2.29,1.9C464,510.33,464.24,508.85,464.1,507.79Z" transform="translate(-436.71 -170.71)"/><path class="cls-2" d="M550.57,739.34a7.53,7.53,0,0,1-7.2,7.88,6.7,6.7,0,0,1-6.88-6.22c-.28-4.49,3.42-9.28,7.2-9.32C547.2,731.64,550.46,735.26,550.57,739.34Z" transform="translate(-436.71 -170.71)"/><path class="cls-1" d="M489.68,408.49c-.51,4.75-.95,9.63-1.61,14.48-.18,1.3-.21,3.18-2.17,3.31-1.66.1-2.59-1.23-3.28-2.52a18.4,18.4,0,0,1-1.36-3.53c-1.43-4.89-.17-9.75.48-14.55.43-3.11,2.45-4.34,4.91-3.91,2.89.49,3.07,2.66,3,5C489.67,407.27,489.68,407.82,489.68,408.49Z" transform="translate(-436.71 -170.71)"/><path class="cls-2" d="M977.08,673.39a3.43,3.43,0,0,1-1.25-.56,1.33,1.33,0,0,1,.15-1.91,74,74,0,0,1,10.12-9.67,2.5,2.5,0,0,1,3.44-.13,2.27,2.27,0,0,1,.68,2.44C989.5,666.48,980.42,673.36,977.08,673.39Z" transform="translate(-436.71 -170.71)"/><path class="cls-2" d="M827.08,176.09c.07-3.18,2.19-5.48,4.93-5.38a5.41,5.41,0,0,1,4.9,5.55c0,3.14-2.63,5.87-5.39,5.7S827,179.33,827.08,176.09Z" transform="translate(-436.71 -170.71)"/><path class="cls-2" d="M611.9,218.64c1.67.33,3.22.44,3.62,2.18.34,1.48-.87,2.22-1.83,3a6,6,0,0,1-1.87,1c-1.87.51-3.67.44-4.37-1.76-.59-1.87.53-3.05,2.14-3.75A15.08,15.08,0,0,1,611.9,218.64Z" transform="translate(-436.71 -170.71)"/><path class="cls-1" d="M497.38,534.82c0,1.69-.25,3.7-2.65,3.72-2,0-2.46-1.78-2.62-3.52-.27-3,.81-5.32,2.53-5.26C496,529.81,497.27,532,497.38,534.82Z" transform="translate(-436.71 -170.71)"/><path class="cls-2" d="M872.88,678.71a6.63,6.63,0,0,1,4.06-2.51c2,1.06,3,2.65,2.23,4.87-.67,1.95-2.19,2.68-4.27,2.31C871.82,682.82,873,680.5,872.88,678.71Z" transform="translate(-436.71 -170.71)"/><path class="cls-1" d="M995,518.56A3.64,3.64,0,0,1,999.2,522c.13,1.4-.28,2.51-1.88,2.72-2.09.27-5.39-2-5.23-3.73S993.66,518.73,995,518.56Z" transform="translate(-436.71 -170.71)"/><path class="cls-2" d="M532.15,472.23c2.22.68,4,1.75,3.32,4.49-.56,2.28-2.89,3.06-6.53,2.34C528.37,476,528.82,473.44,532.15,472.23Z" transform="translate(-436.71 -170.71)"/><path class="cls-2" d="M696.51,738.88c-.18,1.44-.66,3-2.64,3.15-1.77.12-2.55-1.19-2.57-2.74a2.83,2.83,0,0,1,3-3C695.78,736.19,696.46,737.2,696.51,738.88Z" transform="translate(-436.71 -170.71)"/><path class="cls-1" d="M948.9,413.85a3.8,3.8,0,0,1-3,3.76c-1.47.39-2.43-.52-2.7-1.95a3.74,3.74,0,0,1,3.51-4C948,411.69,948.74,412.32,948.9,413.85Z" transform="translate(-436.71 -170.71)"/><path class="cls-1" d="M543.23,451.69c-4.6,2-9.44.91-14.18,1.12C533.66,451,538.49,451.91,543.23,451.69Z" transform="translate(-436.71 -170.71)"/><path class="cls-2" d="M871.65,602.41a46.88,46.88,0,0,1-15.89-3.34c-4.27-1.65-7.13-4.86-9.19-8.83-2-3.81-1.3-6.89,2.1-9.59a25.67,25.67,0,0,1,10-5.29c14-3.27,26.24-10.21,38-18.09,3.76-2.51,7.41-5.22,11.56-7.12,5.66-2.58,9.41-1,11.45,4.86,2.36,6.79.07,13-2.85,18.8a44.29,44.29,0,0,1-13.51,16.06c-7.55,5.53-15.5,10-24.77,11.87A42.3,42.3,0,0,1,871.65,602.41Z" transform="translate(-436.71 -170.71)"/><path class="cls-2" d="M732.93,551c-2.88.12-5-2.34-5-5.83,0-2.65,2.55-5.82,4.69-5.84,2.45,0,5.25,3,5.44,5.81A5.88,5.88,0,0,1,732.93,551Z" transform="translate(-436.71 -170.71)"/><path class="cls-2" d="M857.5,676.15c0,2.16-1.71,4.27-3.37,4.22s-3.26-2.19-3.17-4.37c.08-2,.83-3.54,3.08-3.75C856.13,672.07,857.52,673.68,857.5,676.15Z" transform="translate(-436.71 -170.71)"/><path class="cls-2" d="M869.34,653.75c2.25,0,3.65,1.57,3.39,3.53a3.6,3.6,0,0,1-3.45,3.46c-1.78.12-3.16-1.65-3-3.63S867.48,653.85,869.34,653.75Z" transform="translate(-436.71 -170.71)"/><path class="cls-2" d="M735.94,455.3c-.43,1.74-1.21,3.11-3.24,2.93a2.81,2.81,0,0,1-2.81-3.25c.09-1.59.88-2.9,2.68-2.58C734.14,452.68,735.7,453.33,735.94,455.3Z" transform="translate(-436.71 -170.71)"/></svg>