<svg id="Layer_1" data-name="Layer 1" xmlns="http://www.w3.org/2000/svg" viewBox="0 0 485.55 556.75"><defs><style>.cls-1{fill:#aacc70;}.cls-2{fill:#6b8831;}.cls-3{fill:#fff;}</style></defs><title>Your_Occasional_Flower</title><path class="cls-1" d="M902.23,389c-.4,2.67-2.45,4.35-3.88,6.38-7,10-12.88,20.49-16,32.41-2.59,9.87-1.49,19.25,2.58,28.53,2.32,5.29,5.65,10.1,7.4,15.65a39.42,39.42,0,0,1-5.36.89c-14,.37-27.64,3.5-41.2,6.77-7.75,1.86-15.49,3.89-22.71,7.41-1.47.71-3.55,1-3.6,3.36.52.13.89.36,1.16.27,12.31-3.81,24.89-6.54,37.43-9.41a226.24,226.24,0,0,1,37.65-4.87c.66,4,3,7.35,4.46,11,3.4,8.5,6,17.23,5.88,26.38a70.81,70.81,0,0,1-6.58,29c-12.8,27.89-35.21,44-64,52.36-12.23,3.55-24.78,5.1-37.52,5.83a243.17,243.17,0,0,1-30.43-.38,40.54,40.54,0,0,1-4.25-.72c-5.64.16-11-1.85-16.58-2.29q-18.69-3.62-37.37-7.2-24.3-4.65-48.61-9.21a14.42,14.42,0,0,0-2.71,0c-1.52-9.11-3-18.21-4.56-27.31a615,615,0,0,0-15-65.08c-1.4-5-5.24-6.77-8.81-9.12a4.19,4.19,0,0,0-5.88.65,7.62,7.62,0,0,1-5.31,2.51c-4.7.23-9.36.45-14.06-.69-10.3-2.5-18.8-8.39-27.47-14,2.58-1.24,5.06-2.75,8-2.94,2.42-.14,4.41,1.34,6.69,1.78s4.46,1,6.33-.05c.08-3.21-4.15-1.15-4-4.13,3.64-2.07,7.81-2.05,11.72-3,3.08.23,4.64,4,8.08,3.89-.12-2.43-2.24-3.08-2.93-4.69l14.7-1.91,1.52.29,8.86-1.91c.37,2.83-.21,5.74.69,8.5.37,1.16.8,2.57,2.47,2.22,1.31-.28,1.34-1.51,1.34-2.58,0-3-.06-6.06-.09-9.09a64,64,0,0,0,12.88-4.13l2.61-1.57c1.44.06,2.33-1.15,3.58-1.53a3.66,3.66,0,0,0,1.77-2.68l2.08,0c.31,1.72,1.33,2.49,3,1.92,2.16-.73,1-2.69,1.37-4.1,2-.08,4-.16,5.92-.26a1.49,1.49,0,0,0,1.49-1.28,2.21,2.21,0,0,0-.79-1.91c-1.33-1.28-3-.81-4.61-1.05.79-2.21,2.54-3.73,3.88-5.55,3.89-.58,3.91-.62,2.79-4.76,2.59-9.65,6.56-18.79,10.56-27.91,11.81-26.94,30-49.07,51.85-68.42A240.18,240.18,0,0,1,801,291.73a31.78,31.78,0,0,1,3.08-1c.31.17.73.25.92.5,5.21,7,10.27,14.07,16.21,20.45,1.74,1.87.89,2.91-.41,4.52-2.23,2.78-.8,5.76,2.74,6.05a6.74,6.74,0,0,0,3.17-.52c2.11-.93,3.55-.05,4.73,1.5,4.3,5.67,9.65,10.36,14.56,15.45a509,509,0,0,0,44.74,40.59C894.58,382.41,899.32,384.62,902.23,389ZM740.12,515.38c-2.11-1-2.61-2.69-3.77-3.8-1.78-1.69-3.81-2.38-5.92-1.14a5,5,0,0,0-2.33,5.63,9.45,9.45,0,0,0,.64,2.08c.85,1.92,1.08,3.49-.52,5.43s-.84,4,1.37,5.52a21,21,0,0,0,8.46,3.53c2.69.4,3.51,1.52,4.18,3.93a100.38,100.38,0,0,0,6.07,16.29,15.65,15.65,0,0,0,3.93,5.77,1.5,1.5,0,0,0,2,0,1.17,1.17,0,0,0,.23-1.48c-.71-1.86-1.41-3.73-2.22-5.55-2-4.47-3.74-9-5.32-13.67a7.54,7.54,0,0,1,.26-6.25c1.35-2.75,2.34-5.69,3.43-8.57.44-1.16,1.26-2.67.18-3.59-2.93-2.49-2.55-5.69-2.44-8.92,0-1.72-.27-3.42-2.31-3.77s-3,1.1-3.72,2.6C741.47,511.26,740.91,513.18,740.12,515.38Zm-57.44-46.09c-1.81-1.14-3.27-.36-4.71.28-4.31,1.91-8.62,3.81-12.89,5.78a90.17,90.17,0,0,1-13.67,5.27c-1.75.48-4.79.41-4.08,3.07.65,2.39,3.37,1.05,5.24.91a4.93,4.93,0,0,0,1-.35,120.3,120.3,0,0,0,24.33-10.72C679.64,472.57,682,471.84,682.68,469.29Zm-21.39-18.43a136.47,136.47,0,0,1-19.63,23.8,4.6,4.6,0,0,0-.66.85,1.85,1.85,0,0,0-.07,2,2,2,0,0,0,1.91.76,4.48,4.48,0,0,0,2.8-1.51,92.08,92.08,0,0,0,14.75-17.89C661.68,456.8,663,454.53,661.29,450.86Zm36.87-20.29c.6-.34,1.39-.54,1.79-1.05a56.41,56.41,0,0,0,10-19.18c.23-.81.24-1.9-.93-2.24-.8-.23-1.36.34-1.87.85a15.92,15.92,0,0,0-2.73,4.68,78.35,78.35,0,0,1-7.52,13.25c-.66.89-1.21,1.91-.33,2.94C696.91,430.18,697.53,430.28,698.16,430.57Zm21.72,14c.66.06,1.29,0,1.34.15,1.2,3.59,5.52,1.67,7.34,4.17a1.12,1.12,0,0,0,1.84.22,1.33,1.33,0,0,0-.11-1.93c-2.44-3-6-4.5-9-6.59-1.88-1.28-5,.14-6.14,2.09a2.32,2.32,0,0,0,.28,3,1.76,1.76,0,0,0,2.44.21Zm58.56,84.94c0-2.38-1.66-5-3.23-5.06-1.74-.08-3.85,2.74-3.86,5.17,0,2.25,1.47,4.23,3.22,4.29C776.52,534,778.43,531.81,778.44,529.51ZM686,446.71a4.13,4.13,0,0,0-.22-1.17c-.5-1-6.16-1.44-7.2-.47-1.56,1.44-.51,2.68.79,3.47s.59,1.94.88,2.89a2.14,2.14,0,0,0,2,1.57,2.07,2.07,0,0,0,2.22-1.26C685,450.05,685.09,448.2,686,446.71Zm123-35.8c0-2.17-1.78-4.28-3.51-4.28a3.83,3.83,0,0,0-3.68,3.84,3.39,3.39,0,0,0,3.72,3.64C807.76,414.07,808.67,412.7,809,410.91ZM702.38,458.18c-.16-.75-.53-1.45-1.36-1.32-2.47.39-4.9,1-6.51,3.16-.71,1-.81,2.07.36,2.75C696.67,463.82,702.31,460.32,702.38,458.18ZM687,434.84c-1.45.36-3.4.72-4.47,2.65a1.47,1.47,0,0,0,.5,1.89c1.86,1.53,3.3-.15,4.9-.68a3.48,3.48,0,0,0,.47-.24c.77-.43,1.76-.81,1.52-1.9S688.61,435,687,434.84ZM634.77,471a7.17,7.17,0,0,0-3.83-4,1.66,1.66,0,0,0-2.15,1.07,2.37,2.37,0,0,0,1.08,3.19c1.27.86,2.54,2.08,4.32,1.28C634.76,472.25,634.75,471.67,634.77,471ZM694,398.53c1.53-.17,4.42-3.07,4.09-4.17a2.05,2.05,0,0,0-2.39-1.6c-1.5.2-3.74,2.86-3.5,4.2A1.69,1.69,0,0,0,694,398.53Zm20.83-7.64a5.49,5.49,0,0,0,4.76,3.16,1.88,1.88,0,0,0,2-1.52,1.66,1.66,0,0,0-1.37-2C718.5,390.22,716.73,389.59,714.79,390.89Zm-7,1.83a3.91,3.91,0,0,0-3.3-3.6c-1.18-.26-2.44.46-2.36,1.57.14,2,2.08,2.72,3.68,3.38C706.71,394.45,707.47,393.84,707.76,392.72Zm-9.29,11.35c1.31-.18,2.57-.67,2.47-2.17s-.53-3-2.33-3c-1.64.05-2.35,1.41-2.45,2.95S697,404.07,698.47,404.07ZM739,444.54c1.31-.53,3.32-.61,3.18-2.72-.07-1.12-1.4-1.49-2.54-1.46-1.59.05-2.84.71-2.93,2.43C736.67,444.15,737.73,444.52,739,444.54Zm-2.72,32.83c-1.56,0-2.14,1-2.14,2.44,0,1.28.05,2.71,1.81,2.74,1.55,0,2.13-1.18,2.31-2.5S738,477.56,736.31,477.37Zm-.1-76A2.5,2.5,0,0,0,734,399c-1.37-.14-1.84.88-1.79,2.07a2.65,2.65,0,0,0,2.6,2.84C735.81,404,736.25,403.12,736.21,401.4Zm2,49.87c-.11-1.54-1.28-2-2.55-2.16s-2.26.21-2.27,1.6a2.46,2.46,0,0,0,4.82.56ZM714,400.87A3.36,3.36,0,0,0,711.4,398a1.39,1.39,0,0,0-2,1.09c-.27,1.76.87,2.57,2.39,2.84C712.63,402.06,713.58,402,714,400.87ZM692.47,548.56c-.36-1-.69-2.26-2.27-2.36a1.59,1.59,0,0,0-1.74,1.63c-.13,1.45.49,2.44,2.09,2.48C691.57,550.33,692.21,549.8,692.47,548.56Zm28.39-98.23a2.33,2.33,0,0,0-2.31-2.23,1.31,1.31,0,0,0-1.47,1.26,2.23,2.23,0,0,0,2.26,2.49C720.09,451.92,720.68,451.43,720.86,450.33Zm2.45-51.39a2.44,2.44,0,0,0-2.07-1.83,1.56,1.56,0,0,0-1.78,1.57c0,1.25.85,1.91,2,2.05S723.14,400.28,723.31,398.94Zm4,53a2.33,2.33,0,0,0-2.66-1.84,1.33,1.33,0,0,0-1.23,1.45c.05,1.41.83,2.37,2.31,2.24A1.66,1.66,0,0,0,727.32,452Zm-56.76.39a2.42,2.42,0,0,0-1.91-2.16,1.41,1.41,0,0,0-1.92,1.26,2,2,0,0,0,1.74,2.31C669.49,454,670.11,453.35,670.56,452.36Zm76.75-2.85c.94-.23,1.68-.72,1.55-1.78a1.94,1.94,0,0,0-2.23-1.78,1.32,1.32,0,0,0-1.27,1.43A2,2,0,0,0,747.31,449.51ZM699.09,446a2.06,2.06,0,0,0-2.43-1.29c-.95.08-1.69.63-1.55,1.67.18,1.34,1.28,1.54,2.36,1.43A1.65,1.65,0,0,0,699.09,446Zm124.29,72.29a1.91,1.91,0,0,0-1.63,1.75c-.1,1.07.48,1.68,1.52,1.57s1.35-1,1.3-1.92C824.54,519,824.27,518.36,823.38,518.31Zm-118.94-121c0-.77-.3-1.42-1.16-1.48s-1.43.25-1.49,1.12a1.23,1.23,0,0,0,1.15,1.48A1.25,1.25,0,0,0,704.44,397.31Zm3.27,49.88a1.29,1.29,0,0,0-1.49-1.14c-.87,0-1.21.68-1.17,1.45s.71,1.18,1.47,1.14S707.67,448,707.71,447.19Zm-91.39,25.47c.28-.15.75-.23.83-.46a.76.76,0,0,0-.69-1.07,1,1,0,0,0-.83.43C615.44,472.11,615.73,472.52,616.32,472.66ZM674,444.91a.79.79,0,0,0-.48,1.16,1,1,0,0,0,.84.36.74.74,0,0,0,.48-1.14C674.69,445.08,674.26,445,674,444.91Z" transform="translate(-486.28 -231.23)"/><path class="cls-1" d="M808.33,288.66l7.45-2.87.16.09a41.09,41.09,0,0,1,8-2.76c3.28-.7,4.32,1.28,5.3,4,6.72,18.33,16.06,35.3,27,51.42,1.26,1.84,2.43,3.88,5.23,4.35.22-1.8-.64-2.81-1.23-3.85-4.78-8.55-9.69-17-14.39-25.63a247.1,247.1,0,0,1-14.71-32.13c25.4-6.64,50-5.35,73.37,7.52a64.59,64.59,0,0,1,21.24,18.41c10,13.61,10.55,28.16,4.25,43.32-3.94,9.51-10.19,17.56-16.64,25.45-2.51,3.07-4.56,6.58-7.85,9a7.62,7.62,0,0,1-2-.84C891,374,878.42,363.82,866.68,352.76c-10.3-9.71-20.14-19.93-30.08-30-2.9-2.94-5.44-6.24-8.13-9.35,1-1,1.84-.59,2.72-.44,1.81.3,2.15-1,2.18-2.33a4.38,4.38,0,0,0-2.45-4c-1.31-.79-2.39-.23-3.47.6-.79.62-1.21,1.94-3,1.43C818.6,302.68,813.62,295.54,808.33,288.66Z" transform="translate(-486.28 -231.23)"/><path class="cls-1" d="M606,568.17c-3.42-.52-6.75-1.3-9.6-3.42,1.31-2.84,1.34-5.35-1.9-6.9-1.49-.71-1.29-1.88-1.08-3.11,3.37.41,3.31-1.74,3.09-4.08-.11-1.16-.34-2.22-1.72-2.27-2.5-.1-3.55,1.28-3.48,3.68,0,.54,0,1.08,0,1.62-1.73-.42-3.41,2.61-5.52-.53-1-1.45-3.24,1.24-4.5,2.68a2.16,2.16,0,0,0,.33,3.33,30.76,30.76,0,0,0,5.9,2c2,.6,2.15-1.89,3.54-2.5a6.19,6.19,0,0,1,1.47,4.65c-2.88.53-5.35,2.29-8.38,2.51-3.3.25-3.57.29-3.06-3.25.28-2-.93-1.41-1.87-1.51-.34-1.65.92-4.36-2.59-3.89-2.72-3-6.54-4.44-9.53-7-1.41-1.22-3.64-1.9-3.31-4.44.58-1.05,1.91-2.72.51-3.18-2.63-.86-4.6-3.41-7.67-3l-.26-.24c-.1-4.73-.1-4.73-3.51-4.87-8-9.8-11.54-20.69-7.77-33.22a38.63,38.63,0,0,1,7.14-13.88c1.82-.56,3.48.36,5.22.53,3.21.32,6.61,1.09,9.77-2-3.82-1.7-7.81-.89-10.89-3.07,4.05-5.56,9.57-9.19,15.72-12,4.11,1.54,7.46,4.36,11.2,6.52,8.35,4.84,16.86,9,26.71,10.28,3.46.44,6.73-1.22,10.55,0-1.51,1.9-3.41,2.41-5.23,3.08-3.4,1.26-6.8,2.53-10.15,3.9-1.09.45-2.78.87-2.27,2.51s2.16.85,3.34,1a4.18,4.18,0,0,0,1.62-.13c7.15-2.16,14.19-4.53,19.87-9.7.8-.73,1.49-1.6,2.34-2.28,1.76-1.41,2.77-1.1,3.59,1.09.26.67.26,1.43.47,2.12,3,10.25,5.8,20.57,8.17,31,4.5,19.77,8.18,39.69,11.19,59.74-10.08-1.87-20.13-3.85-30-6.44a9.11,9.11,0,0,1-4-1.56,4,4,0,0,1,1-1.86c1.79-2.5,1.29-3.67-1.73-4.12-.76-.11-1.91.9-2.2-.43s.72-1.68,1.89-2.08c3-1,4.63-3.61,5.66-6.45.33-.91.29-2.29-1.14-2.59a1.55,1.55,0,0,0-1.89,1.46c.24,2.89-2,3.42-3.8,4.45-1.39.82-2.87,1.48-4.21,2.37-2.48,1.67-2.6,3.63.11,4.78a3.19,3.19,0,0,1,2.29,3.61c-2.92-.55-6-.44-8.67-2.08a7.52,7.52,0,0,0,1.58-.06c1.32-.31,1.75-1.24,1.06-2.34a1.36,1.36,0,0,0-2.25-.15A8.48,8.48,0,0,0,606,568.17Zm-26.76-67.94a6.93,6.93,0,0,0-.26-1c-.62-1.61-1.68-2.29-3.25-1.23-1.22.82-2.42,2-1.37,3.47,1.17,1.64,2.44.38,3.57-.47a14.09,14.09,0,0,1,1.35-.8c-.09,2.27,1.38,4.38.32,6.84-.5,1.17.86,1.87,2.1,1.46,1.44-.47,3.93-4.52,3.57-5.56C584.62,501,581.88,499.75,579.26,500.23Zm5.45,37c3.09,1.64,5.95,5.4,9.51.79,1.09,1.38-.26,3.42,1.34,4.13,2.19,1,1.8-1.69,2.84-2.39.44-.3,1-.39,1.46-.7,1.12-.85,1.2-2.24-.07-2.48-3.65-.72-6.18-4-10.39-3.75s-4.32-.36-4.65,4.44a16.11,16.11,0,0,0-2.62.45,1.78,1.78,0,0,0-1.26,2.1,1.75,1.75,0,0,0,1.41,1.46,1.79,1.79,0,0,0,2-1.42A16.21,16.21,0,0,0,584.71,537.28Zm12.73-46.35a2,2,0,0,0-1-2.13,2.31,2.31,0,0,0-3.33.6c-2.1,2.81-4.12,5.55-8.31,5.05a1.84,1.84,0,0,0-1.88,2.17,1.66,1.66,0,0,0,2,1.37c2.28-.35,4.26-.26,5.67,2,.31.49,1.36.27,2-.16a1.27,1.27,0,0,0,.4-1.87c-.89-1.14-1.4-1.82.52-2.51C595.7,494.65,595.87,492,597.44,490.93Zm4.11,73.58c1.59-.26,2.63-1.09,2.23-2.53s-.59-2.33.46-3.41c.6-.61,1.28-1.52.27-2.26s-2.92-.7-3.27.45a31.14,31.14,0,0,0-.82,7C600.4,564,601.21,564.29,601.55,564.51Zm-20.59-78c-2.1.17-4.88,2.76-4.7,4.46a1.63,1.63,0,0,0,1.85,1.5c1.57,0,4.45-3.23,4.32-4.79C582.36,486.86,581.73,486.58,581,486.55Zm-6.56,54c-.24-1.57-5-3.51-6.34-2.63-.49.34-.74,1.09-.36,1.38a21,21,0,0,0,4.7,3.09C573.41,542.79,574.32,541.73,574.4,540.54Zm33.1-9.2c-.14-.92-.54-1.5-1.34-1.52-1.25,0-3.78,2.75-3.62,3.92a1.18,1.18,0,0,0,1.49,1.09C605.77,534.24,606.67,532.73,607.5,531.34Zm23.9,26.44c.06-1.29-.45-2.38-1.56-2.57-1.52-.26-2.23.93-2.28,2.28a2,2,0,0,0,1.82,2.19C630.67,559.77,631.19,558.81,631.4,557.78Zm-68.83-22.7c-1.27.09-2.63.14-2.54,1.9.06,1.08,1,1.39,1.91,1.35,1.28-.06,2.56-.41,2.58-2C564.52,535.22,563.42,535.2,562.57,535.08Zm32.88-10.27a2,2,0,0,0-1.7,2.33,1.29,1.29,0,0,0,1.5,1.19,1.9,1.9,0,0,0,2-2A1.58,1.58,0,0,0,595.45,524.81Zm3.32,8.72a1.65,1.65,0,0,0,1.81-1.62c0-1.3-1-1.89-2.13-2a1.33,1.33,0,0,0-1.46,1.29A2,2,0,0,0,598.77,533.53Zm29.06,29.86a1.9,1.9,0,0,0-2.14-1.79,1.32,1.32,0,0,0-1.36,1.32,1.86,1.86,0,0,0,1.82,2.12C627.15,565.08,627.69,564.4,627.83,563.39Zm-17.26-6.59a1.54,1.54,0,0,0-1.57-1.9c-1-.09-1.89.15-2,1.28s.58,1.64,1.59,1.73S610.33,557.73,610.57,556.8Zm-40-55.4c-1.18.1-1.91.59-1.8,1.63s1,1.38,1.92,1.33,1.72-.55,1.61-1.61S571.35,501.41,570.58,501.4Zm29.16,48.36c-.85.34-1.65.8-1.51,1.86a1.65,1.65,0,0,0,1.81,1.54c1.2-.08,2.06-.77,1.75-2.06A1.88,1.88,0,0,0,599.74,549.76Zm-7.6-6.56a1.3,1.3,0,0,0-1.49-1.17,1.33,1.33,0,0,0-1.25,1.86,1.27,1.27,0,0,0,1.66.86A1.33,1.33,0,0,0,592.14,543.2ZM599.76,495c-.88,0-1.49.27-1.68,1.09a1.25,1.25,0,0,0,.92,1.64,1.4,1.4,0,0,0,1.88-1.31A1.23,1.23,0,0,0,599.76,495Z" transform="translate(-486.28 -231.23)"/><path class="cls-2" d="M746.72,597.53c5.58.44,10.94,2.45,16.58,2.29.92,2.4,3.27,2.75,5.26,3.43,9.09,3.14,18.22,6.17,27.36,9.19a149,149,0,0,1,17.79,6.83,42.71,42.71,0,0,1,10.95,7.05c6,5.6,5.27,10.42-2.17,13.75-5.54,2.47-11.48,3.33-17.41,4.21-14.43,2.14-29,2.34-43.51,2.4a51.24,51.24,0,0,0-11.66,1.17c1.39,3.12,3.86,4.38,6,5.81a168.77,168.77,0,0,0,35.46,17.82c4.43,1.64,9,2.94,13.38,4.63,2.35.9,3.63.34,4.84-1.78A144.58,144.58,0,0,1,820.46,658a101,101,0,0,1,9.66-11.1,27.45,27.45,0,0,1,2.88-2.5c1.35-1,2.93-2,4.19,0,1,1.61-.12,2.68-1.49,3.48a5.11,5.11,0,0,0-.94.54c-9.34,8.3-15.89,18.67-22.31,29.09.68.65.9,1,1.2,1.12,6.84,2.5,6.78,2.45,10.82-3.46,3.17-4.65,6.5-9.2,9.8-13.76a43.58,43.58,0,0,1,3.13-3.78c1.08-1.17,2.35-2.9,4-1.37s-.14,2.87-1.11,4.07c-4.54,5.62-9.16,11.19-12.35,17.75L828,678a4.4,4.4,0,0,0-2.2,3.38c-.28,1.6-.54,3.29-2.3,4a4.23,4.23,0,0,0-2.38,2c-3.58,6.63-7.8,12.9-10.66,19.91q-3.47,6.42-6.92,12.83L802.1,719c1.08-7.33,5-13.47,8.28-19.89,2.42-4.82,5.16-9.48,7.67-14-.33-.49-.4-.73-.54-.79-7.36-2.83-7.33-2.81-11.17,4q-5.51,9.71-11.13,19.35c-.58,1-.88,2.54-3.32,1.94,2.77-10.22,8.9-18.82,13.58-28.6-1.89-.69-3.51-1.34-5.15-1.88-15.55-5.17-30.52-11.6-44.38-20.45a48.47,48.47,0,0,1-8.27-6.19c-1.56-1.55-3.22-3.2-2.53-5.65.77-2.74,3.3-3.25,5.63-3.5,4.15-.45,8.33-.76,12.5-.84,11.43-.24,22.88-.14,34.27-1.46,6.49-.75,13-1.51,19.28-3.36,2.71-.8,6.56-1.13,7.09-4.18.61-3.41-3.14-4.93-5.58-6.65a62.84,62.84,0,0,0-16.17-7.68c-10.82-3.69-21.72-7.11-32.49-10.92C761.7,605.35,753.81,602.27,746.72,597.53Z" transform="translate(-486.28 -231.23)"/><path class="cls-2" d="M653.43,579.85c-3-20.05-6.69-40-11.19-59.74-2.37-10.43-5.14-20.75-8.17-31-.21-.69-.21-1.45-.47-2.12-.82-2.19-1.83-2.5-3.59-1.09-.85.68-1.54,1.55-2.34,2.28-5.68,5.17-12.72,7.54-19.87,9.7a4.18,4.18,0,0,1-1.62.13c-1.18-.11-2.85.6-3.34-1s1.18-2.06,2.27-2.51c3.35-1.37,6.75-2.64,10.15-3.9,1.82-.67,3.72-1.18,5.23-3.08-3.82-1.24-7.09.42-10.55,0-9.85-1.25-18.36-5.44-26.71-10.28-3.74-2.16-7.09-5-11.2-6.52-1.89-2.87-5.22-3.8-7.8-5.75-1.88-1.41-3.84-2.74-5.76-4.1a1,1,0,0,0-1-.91l-.12-.11c-.35-4.22-.19-4.41,3.1-3.8a17.08,17.08,0,0,1,3.7.73c.79.34.13,1.24-.07,1.88-.69,1.12.2,1.65.92,2.08,4,2.41,7.72,5.34,12,7.32,8.67,5.6,17.17,11.49,27.47,14,4.7,1.14,9.36.92,14.06.69a7.62,7.62,0,0,0,5.31-2.51,4.19,4.19,0,0,1,5.88-.65c3.57,2.35,7.41,4.16,8.81,9.12a615,615,0,0,1,15,65.08c1.55,9.1,3,18.2,4.56,27.31,2.12,15.29,4.45,30.56,5.87,45.95a583.34,583.34,0,0,1,2.55,74.07c-.13,3.62-.63,7.24-1.07,10.85-.19,1.55-.22,3.28-2.28,4.53,0-2.12,0-4,0-5.81.19-42.6-1.82-85-8.8-127.15C654.1,582.3,653.72,581.08,653.43,579.85Z" transform="translate(-486.28 -231.23)"/><path class="cls-2" d="M570.09,595.42c-1.88-1.77-4.47-1.95-6.72-2.8-1.59-.6-4.84-2-3.15,2.55.53,1.42-4.21,4.75-5.92,4.43a1.27,1.27,0,0,1-1.1-1,2.06,2.06,0,0,1,.69-1.94c2.27-2.28,2.28-4,0-6.32a1.36,1.36,0,0,1-.37-1.77c2.34-.4,4.74-.95,7.59-.36a70.52,70.52,0,0,0,15.69,1.66c3.1-.07,6.24-.11,9-1.81,2.17-1.35,3.63-.83,5,1.18,2.69,3.89,5.65,7.59,8.3,11.49a577.39,577.39,0,0,1,69.6,139.53c4.6,13.59,9.51,27.09,12.91,41,.49,2,1.35,4,.9,6.69-2.16-1.34-2.24-3.3-2.88-4.87-7.71-19-13.54-38.74-20.76-58a583.35,583.35,0,0,0-65.59-125.8c-1.2-1.75-2.27-3.66-3.83-4.88-1.58.19-2.05,1.31-2.82,2-6,5.39-12.94,6.14-20.4,4-1.33-.38-3.16-.9-2.7-2.73.35-1.42,2-1.27,3.29-1.11.72.09,1.44.15,2.16.23,5,1.27,9.57.93,13.4-2.9C578.24,594.32,573.83,592.27,570.09,595.42Z" transform="translate(-486.28 -231.23)"/><path class="cls-2" d="M967.61,495.82c2,1.45,4.78,2.48,4.12,5.68-.39,1.88-2.92,2.14-7.35.78-3.72-1.14-7.39-2.47-11.39-3.81,0,3,2.26,3.84,3,5.61.54,1.23.92,2.4,0,3.57a3.09,3.09,0,0,1-3.43,1.07,17.1,17.1,0,0,1-6.4-2.92c-1.51-1.2-3.5-2.34-.56-4.39,1-.73-.14-2.54-1-2.35-3.46.78-5.85-1.23-8.59-2.56-1.65-.8-2.37.38-1.88,1.95.81,2.59,2.06,5.07,2.2,7.84.07,1.45.21,3-1.34,3.87-1.76.95-3.17,0-4.37-1.18-2.16-2.21-4.35-4.43-4.26-7.89,0-1.15-.83-1.59-1.8-1.49-1.23.14-1.17,1.16-1,2a25.17,25.17,0,0,1,.67,7,3.46,3.46,0,0,1-1.85,3.11c-1.6.76-2.83-.07-3.93-1.06a12.84,12.84,0,0,1-3-4.52A103.39,103.39,0,0,1,909,485.45c-.38-1.81-1-4,1.07-5.52,2.44.93,1.85,3.87,3.61,5.25,1.69-.13.86-1.62,1.25-2.47.15-.32.37-.8.61-.83,2.14-.28,4,1.73,6.41.63.92-.42,1.93,1.39,2.27,2.67.5,1.88,1,3.77,1.34,5.68a5.39,5.39,0,0,0,1.16,3c1,1,2.1,2.25,3.68.95a1.79,1.79,0,0,0-.29-3.16c-3.1-1.72-.81-5.4-3-7.55-.76-.75,4-5.1,5.41-4.88a2.66,2.66,0,0,1,2.36,2,2.87,2.87,0,0,1-1,2.9c-1.17,1.23-3.17.73-4.47,2.41,3.07,2.82,8.17-.89,10.19,3.95,1.79-2.75,1.41-5.81,4.2-6.95a1.36,1.36,0,0,0,.78-1.29c.41-3.29.4-3.44,2.95-3.53,3.78-.13,7.57,0,11.35-.47-6.14-1.46-12.3-1.13-18.46-.73-1.09.07-2.17.25-3.26.3-1.28.05-2.8.09-2.82-1.67,0-1.22,1.17-1.77,2.3-1.93,5.94-.83,11.9-1.51,17.92-1a53.46,53.46,0,0,1,11.77,2.18c1.55.5,3.3,1.14,3.33,3.12,0,2.31-1.82,3-3.67,3.28a58.47,58.47,0,0,1-17.37.45c-1-.13-2.08-.5-3.27.57,1.17,2.32,4.68,3.09,4.47,6.27,1.61,2.28,4,.53,5.9,1.11l.12,0a2.91,2.91,0,0,0,3.08,1.18l.09,0a2,2,0,0,0,2.16.95l.12,0a1.83,1.83,0,0,0,2.08,1l.13.06a1.82,1.82,0,0,0,2,1.09l.1.05A1.92,1.92,0,0,0,967.61,495.82Zm-46.87,2c3.47-.48,2.39-2.67,1.28-4.25a78.73,78.73,0,0,0-5.62-6.53c-.49-.56-1.08-1-1.84-.63a1.48,1.48,0,0,0-.61,1.85c1,3.82,2.16,7.62,3.25,11.42a8.53,8.53,0,0,0,3.09,6.64c.8-1.86-.17-3.16-.4-4.54S919.27,498.93,920.74,497.86ZM951,490.77l-8.78.8a43.44,43.44,0,0,0,3.29,6.47c.23.33,2.62-.19,3.72-1.18C947.58,493.62,947.58,493.62,951,490.77Zm-20.57,10.1a2.16,2.16,0,0,0-2.09-2c-.62-.05-1.21.38-1.15.72.21,1.16,1.32,1.47,2.25,1.94S930.16,501.16,930.44,500.87Z" transform="translate(-486.28 -231.23)"/><path class="cls-2" d="M808.33,288.66c5.29,6.88,10.27,14,16.1,20,1.81.51,2.23-.81,3-1.43,1.08-.83,2.16-1.39,3.47-.6a4.38,4.38,0,0,1,2.45,4c0,1.36-.37,2.63-2.18,2.33-.88-.15-1.74-.57-2.72.44,2.69,3.11,5.23,6.41,8.13,9.35,9.94,10.09,19.78,20.31,30.08,30C878.42,363.82,891,374,903.55,384.08a7.62,7.62,0,0,0,2,.84c2,3,4.89,5.05,7.63,7.27-.28,1.24-1.42.89-2.21,1.19-3.31-.68-5-4.61-8.72-4.43-2.91-4.33-7.65-6.54-11.53-9.71A509,509,0,0,1,846,338.65c-4.91-5.09-10.26-9.78-14.56-15.45-1.18-1.55-2.62-2.43-4.73-1.5a6.74,6.74,0,0,1-3.17.52c-3.54-.29-5-3.27-2.74-6.05,1.3-1.61,2.15-2.65.41-4.52-5.94-6.38-11-13.48-16.21-20.45-.19-.25-.61-.33-.92-.5-2.35-5.36-6.41-9.63-9.39-14.59-1.21-2-2.61-3.93-3.94-5.88-2.44-3.6-2.41-3.48-6.65-2.58a17.5,17.5,0,0,1-10.7-.64,9.92,9.92,0,0,1-6.23-9.93,5.18,5.18,0,0,1,2-4.25,2.13,2.13,0,0,1,1.52-.28c.54.12.72.69.65,1.27a7.9,7.9,0,0,0-.12,1.09c0,8.33,4.6,11.22,13,7.92-.79-1.7-2.73-1.63-3.9-2.59-2.58-2.14-4.82-4.45-5.43-7.88a1.74,1.74,0,0,1,1.3-2.1,1.54,1.54,0,0,1,1.84.83c1.88,4.48,5.49,6.91,9.65,9,1.77.92,3,3.05,4.22,4.88C797.31,273,802.42,281.09,808.33,288.66Z" transform="translate(-486.28 -231.23)"/><path class="cls-2" d="M895.69,476.34A226.24,226.24,0,0,0,858,481.21c-12.54,2.87-25.12,5.6-37.43,9.41-.27.09-.64-.14-1.16-.27,0-2.36,2.13-2.65,3.6-3.36,7.22-3.52,15-5.55,22.71-7.41,13.56-3.27,27.16-6.4,41.2-6.77a39.42,39.42,0,0,0,5.36-.89c3.94,1.09,7.95.12,11.92.34,3.08.18,6.18.13,9.26.27,5.41.23,7.71-1.56,9.28-7.06a61.5,61.5,0,0,1,2.42-5.89c-3.45.75-4.62,3.09-6.08,5-1.32,1.69-2.49,3.48-4,5.07-.68.73-1.19,1.46-2.14.91a3,3,0,0,1-1.21-1.69c-.42-1.53-.06-3.34,1.4-3.73,2.85-.76,3.61-3,4.88-5.13a26,26,0,0,1,4-4.43c.77-.79,2-1.79,2.84-1.28,4.18,2.56,5.61-.92,7.59-3.21a52.61,52.61,0,0,1,7.3-7.32,12.85,12.85,0,0,1,3.72-2.18c2.11-.69,3.84,1.13,2.74,3-1.51,2.65-2.35,6.38-6.76,5.87-1.74-.2-2.4,1.43-3.33,2.43-1.74,1.85-3.33,3.85-5,5.78l-6.66,6.91.75.73c3-2.75,6.92-4.27,9.68-7.37a58.34,58.34,0,0,1,9.27-5.69c1.64-.78,3.42-1.81,5.13-.53,2,1.51.47,3.26-.05,4.9-.1.31.1.7.2,1.31,2.86.44,5-1.62,7.49-2.38,4.39-1.34,6.92-1.27,7.35.72.68,3.19-2.08,4.35-4.06,5.79a24.08,24.08,0,0,1-4.77,2.57c-2.22.95-1.9.63-3.59-2-.87-1.35-2.49-2.15-2.68-4.11-.07-.66-1.18-.68-1.83-.18-1,.78-2,1.59-2.95,2.41a68.9,68.9,0,0,1-12.94,9c-.7-.24-2.11-.09-1.18-1.44,1.3-1.88,3.43-3.07,4.54-5.14l1.1-1.1a6.27,6.27,0,0,0,1.53-.52c.34-.21,1.17-.42.51-1.1-.07-.08-.65.23-.91.46a12.54,12.54,0,0,0-1.09,1.2l-1.1,1.1c-5,2.58-9.89,5.35-13.3,10.05-.43,2.35-2,2.46-4,2.29A178.44,178.44,0,0,0,895.69,476.34Z" transform="translate(-486.28 -231.23)"/><path class="cls-2" d="M610.84,458.92c.69,1.61,2.81,2.26,2.93,4.69-3.44.07-5-3.66-8.08-3.89-5.54-4.13-11.9-6.77-18-9.88-1.79-.92-3-.88-3.19,1.71-.21,2.32-2.22,1.88-3.78,1.55a1.86,1.86,0,0,1-1.53-2c0-.88.69-1.16,1.39-1.42s1.87.23,2.54-1.25c-1.28-2.18-3.82-2.71-6-3.6-1.55-.63-1.48,1.79-2.85,2-1.12.16-2.18.34-3-.63s-.14-1.63.55-2.3c2.3-2.23-.91-1.83-1.34-2.76a1.75,1.75,0,0,0-1.83-1.07l-.29-.17c-.4-.73-.79-.91-1.16,0l-.58,1.1-1.45.28a2.07,2.07,0,0,1-1.47-2.08l.4-1c.39-1.33-.65-1.95-1.39-2.67-4.52-4.43-7.59-9.6-8-15.93-1.62-.89-3.05-.15-4.46-.15a12.4,12.4,0,0,1-7.22-2c-1.73-1.16-3.18-2.67-2.77-4.91s2-3.34,4.36-3.31c1.6,1.48-1.8,3.24.29,4.75a8,8,0,0,0,6.2,1.35c2.61-.41,5.89.36,7-3.36.07-.22,1-.17,1.55-.25a3.59,3.59,0,0,1,.89,2.75c-1,.8-2.58-.45-3.42.93-.09,1.58,1.3,1.43,2.18,1.9,1.27.68,2.19,1.81.92,3-1.88,1.73-.87,3.31-.15,4.89a23.57,23.57,0,0,0,7,8.87,61.92,61.92,0,0,0,14.9,8.31c.84-2.21,1.58-4.29,3.8-5.11,1.09-.4,2.23-.49,3,.53s-.16,1.62-.8,2.27a9.81,9.81,0,0,0-1.41,1.62c-1.19,1.95-.45,3.63,1.54,3.09,2.5-.69,3.59-.4,4.17,2.24.27,1.21,1.93,1.48,3,2A91.34,91.34,0,0,1,610.84,458.92Z" transform="translate(-486.28 -231.23)"/><path class="cls-1" d="M945.4,343c.26-5.47.59-10.3.71-15.12.14-5.81.47-11.63-.52-17.41-1.91-11-7.88-19.85-15.75-27.4a75.05,75.05,0,0,0-41.43-20.27c-2.67-.42-5.42-.41-8.13-.6-1.15-.09-2.33-.44-2.46-1.68-.18-1.66,1.18-2.09,2.5-2.22a42.87,42.87,0,0,1,14,1.32c18.24,4.34,33.61,13.37,45.36,28.2,8.82,11.12,11.89,23.92,10.83,37.81-.29,4-.31,8-1.62,11.85C948.31,339.28,948.13,341.36,945.4,343Z" transform="translate(-486.28 -231.23)"/><path class="cls-2" d="M831.16,281.24a247.1,247.1,0,0,0,14.71,32.13c4.7,8.6,9.61,17.08,14.39,25.63.59,1,1.45,2.05,1.23,3.85-2.8-.47-4-2.51-5.23-4.35-10.94-16.12-20.28-33.09-27-51.42-1-2.68-2-4.66-5.3-4-.6-1.9.67-2.84,1.82-4s.35-2.18-1-2.66c-1.16-1.63-1.51-3,1.15-3.26,5.61,1.58,5.61,1.58,7-4.7.23-1,.81-1.67,1.86-1.54,1.48.19,2.5,1.4,2.08,2.61-.64,1.88-2.38,3.28-2.59,5.5-.06.68-1.21.84-1.85.51-1.52-.77-2.93-.9-3.33,1S828.57,280.54,831.16,281.24Z" transform="translate(-486.28 -231.23)"/><path class="cls-1" d="M750.39,310.79c-.59,1.85-2.06,3-3.43,4.14-3.75,3.15-7.63,6.16-11.38,9.32-10.17,8.53-20,17.37-28.66,27.51-1,1.22-2.18,3.86-4.2,2.16-2.25-1.9.22-3.56,1.39-5,9.95-11.9,21.72-21.9,33.59-31.77,3.2-2.67,6.3-5.54,10.2-7.21C748.92,309.53,750,309.11,750.39,310.79Z" transform="translate(-486.28 -231.23)"/><path class="cls-2" d="M556.31,482.74c3.08,2.18,7.07,1.37,10.89,3.07-3.16,3.11-6.56,2.34-9.77,2-1.74-.17-3.4-1.09-5.22-.53-1.77-1.45-4-1.55-6.08-2.14A72.39,72.39,0,0,1,523,473.56a13.47,13.47,0,0,1-2.44-2.13c-.7-.85-1.16-1.95-.13-2.9.79-.73,1.68-.38,2.46.17s1.71,1.32,2.6,1.95A71.8,71.8,0,0,0,551,482.27,11.85,11.85,0,0,0,556.31,482.74Z" transform="translate(-486.28 -231.23)"/><path class="cls-1" d="M810.47,707.24c2.86-7,7.08-13.28,10.66-19.91a4.23,4.23,0,0,1,2.38-2c1.76-.67,2-2.36,2.3-4A3.66,3.66,0,0,0,828,678l-.06.09c2.86-1.5,3.71-4.74,5.93-6.81a33,33,0,0,1,2.6-2.68,2,2,0,0,1,2.51.12c.9.84.19,1.66-.32,2.35-2.85,3.91-6,7.64-8.2,12a4.73,4.73,0,0,0-2.46,3.58c-5.31,7.32-8.78,15.82-14.14,22.84C812,709.23,812,707.15,810.47,707.24Z" transform="translate(-486.28 -231.23)"/><path class="cls-2" d="M949,519.9c-.35-2.76-2.86-4-4.2-6.1-.57-.9-1.35-1.86-.32-2.9s2.07-.54,2.87.23c3.69,3.52,7,7.34,8.73,12.25,1.38,4-.5,6.2-4.54,5.19a19.93,19.93,0,0,1-12.81-10.11c-.52-.92-1.11-2-.22-3a3.11,3.11,0,0,1,3-.64,8.79,8.79,0,0,1,3.79,2.05c1.25,1,2.49,2.07,3.73,3.11l.15,0Z" transform="translate(-486.28 -231.23)"/><path class="cls-2" d="M734.14,313.51c-4.38,3.77-8.82,7.47-13.1,11.34-6.18,5.58-12.26,11.27-16.33,18.71-.62,1.13-1.39,2.44-2.9,1.57s-.87-2.22-.38-3.4a29,29,0,0,1,5.05-7.68c7.42-8.45,15.33-16.33,25.41-21.66C732.71,312.62,733.73,312.44,734.14,313.51Z" transform="translate(-486.28 -231.23)"/><path class="cls-2" d="M593.44,554.74c-.21,1.23-.41,2.4,1.08,3.11,3.24,1.55,3.21,4.06,1.9,6.9-1.25.45-1.32,1.2-1,2.48.93,4.37-.35,8.54-1.55,12.68a6.35,6.35,0,0,1-.89,1.94,1.73,1.73,0,0,1-1.86.81,1.7,1.7,0,0,1-1.25-2.08q1.18-6.08,2.5-12.13a2.09,2.09,0,0,1,.87-1.3c4.64-2.16.17-2.68-.68-3.85a6.19,6.19,0,0,0-1.47-4.65c-1.39.61-1.52,3.1-3.54,2.5a30.76,30.76,0,0,1-5.9-2,2.16,2.16,0,0,1-.33-3.33c1.26-1.44,3.51-4.13,4.5-2.68,2.11,3.14,3.79.11,5.52.53l0,0a1.78,1.78,0,0,0,2.24,1.12Z" transform="translate(-486.28 -231.23)"/><path class="cls-2" d="M499.67,467.44c-.5-1.63-2.17-.74-3.18-1.49-3.29-2.44-3.41-2.37-5.53,1.23-.73,1.24-1.63,1.38-2.67.68-1.22-.83-2.38-1.92-1.9-3.57s1.65-1.17,2.6-.52c1.56,1,1.92.52,3.16-.92,1.92-2.22,4.56-3.5,4.88-7.12.1-1.09,1.64-4.71,5.08-3.21.82.35,1.48-.76,1.66-1.74.16-.83,0-2.3,1.13-2.08,1.87.37,4-.91,5.59.77.16.17-.29.93-.46,1.41a2.37,2.37,0,0,0-1.5,1.52c-.68.58-1.27,1.51-2,1.69-7.6,1.81-6.25,8.12-6.91,13.44Z" transform="translate(-486.28 -231.23)"/><path class="cls-2" d="M657.74,399.92a59.28,59.28,0,0,1-2.31,15,14.7,14.7,0,0,1-1.59,3.38,1.74,1.74,0,0,1-1.42.49,1.35,1.35,0,0,1-1.31-1.44,17.93,17.93,0,0,1,.55-3.18c2.12-7.8,2.8-15.63,1-23.61-.42-1.84-1.45-4.9.53-5.38,2.56-.62,2.79,2.66,3.28,4.57A33.7,33.7,0,0,1,657.74,399.92Z" transform="translate(-486.28 -231.23)"/><path class="cls-2" d="M952.42,449.05c-1.74-.22-3.44-4.08-2.33-5.55a16.64,16.64,0,0,1,8.77-6c2.27-.68,5.19.82,6.33,3s0,3.85-1.43,5.29a24.82,24.82,0,0,1-3.38,2.65,3.13,3.13,0,0,1-1.5.4c-1.57.12.31-3.53-2.34-2.19a36.81,36.81,0,0,0-3.09,2.12A2.78,2.78,0,0,1,952.42,449.05Z" transform="translate(-486.28 -231.23)"/><path class="cls-2" d="M627.06,457.3l-1.52-.29c-2.84-1.37-3.79-4.26-5.07-6.77-3-5.82-6.1-11.53-10.34-16.55a10.31,10.31,0,0,1-1-1.31c-.69-1.14-1.24-2.41.11-3.36,1.16-.81,2.07.1,2.75,1,6.06,7.7,12.1,15.43,13.25,25.66C625.4,456.8,626.17,457.07,627.06,457.3Z" transform="translate(-486.28 -231.23)"/><path class="cls-2" d="M640.33,454.44c0,3,.08,6.06.09,9.09,0,1.07,0,2.3-1.34,2.58-1.67.35-2.1-1.06-2.47-2.22-.9-2.76-.32-5.67-.69-8.5.4-5.76.79-11.52,3-17,.56-1.41.82-3.08,2.9-3.93C642.46,441.47,639.48,447.84,640.33,454.44Z" transform="translate(-486.28 -231.23)"/><path class="cls-2" d="M594,462.74c-.1,3,4.13.92,4,4.13-1.87,1.07-4.09.48-6.33.05s-4.27-1.92-6.69-1.78c-3.08-3.11-7.4-4.43-10.67-7.25-1.51-1.31-4.77-2.51-3.22-4.72,1.81-2.58,3.6.66,5.25,1.6,4.2,2.42,8.37,4.92,12.43,7.58C590.56,463.5,592.26,462.54,594,462.74Z" transform="translate(-486.28 -231.23)"/><path class="cls-2" d="M655.82,448.74l-2.61,1.57a24,24,0,0,1-2.12-1.6,1.75,1.75,0,0,1-.6-1.93,1.55,1.55,0,0,1,2.19-.91c1.17.48,1.9.85,2-1,.28-4.3,2.9-6.65,6.86-7.74l3.13.08c1.57.85,3.07,2.26,4.95.63,1.56.24,3.28-.23,4.61,1.05a2.21,2.21,0,0,1,.79,1.91,1.49,1.49,0,0,1-1.49,1.28c-2,.1-3.95.18-5.92.26l0,0a1,1,0,0,0-.34-1.21c-2.28-1.87-4.48-.32-6.45.46-1.62.65-.8,2,.31,2.87a3.66,3.66,0,0,1-1.77,2.68C658.15,447.58,655.83,445.45,655.82,448.74Z" transform="translate(-486.28 -231.23)"/><path class="cls-2" d="M663.33,371.41c-.25-2.31.26-4.22,2.49-5.42s3-.73,3.45,2c.37,2.29,1.07,2.62,2.91.85,2-1.93,4-2.29,6.3-.87a1.78,1.78,0,0,1,.88,1.84,1.33,1.33,0,0,1-1.58,1.13c-1.91-.28-4,.74-5.73-.86-.9-.82-1.63-.21-2.2.55-.46.6-.74,1.62,0,1.79,3.7.82.93,3.75,1.89,5.41l.14.09c-.78-.22-1.33.08-1.32.87s.58,1.08,1.35.91l-.07-.13c-.91-.62-1.69.63-2.46.26-1.22-.6-3.08-.25-3.58-1.89s1.29-1.8,2.06-2.65c.92-1,2-2.32,1.21-3.72-.81-1.55-2.29-1.22-3.7-.6a9.26,9.26,0,0,1-2.07.41Z" transform="translate(-486.28 -231.23)"/><path class="cls-2" d="M571.81,399.41c-1.53,2.22-.74,3.57,2.2,3.92.26,0,.65.94.59,1.38-.37,2.52,1.06,2,2.56,1.69a2.35,2.35,0,0,1,2.81,1.09,1.4,1.4,0,0,1-.45,1.91c-1,.7-2.86.64-3,.08-.69-2.93-5.27-2.27-5.06-6.36.17-3.2-4.51-4.65-6.86-2.4-1,.9-1.64,2.25-3,1s-.83-2.65.14-3.88a8.05,8.05,0,0,1,6.17-3C570.38,394.77,571.85,396.46,571.81,399.41Z" transform="translate(-486.28 -231.23)"/><path class="cls-1" d="M606.08,368c3,3.41,3.07,3.95,1.45,8.56a3.12,3.12,0,0,0-.26-1.05,1.46,1.46,0,0,0-2.29-.37,1,1,0,0,0-.23.91c.41.75,1.22.61,1.93.65l.54.06c-1.85,1.63-3,.6-4.5-.79a17.05,17.05,0,0,0-9.27-4.54l0,0c1-2.1-1.55-2.09-2-3.36,2.16.37,4-1.11,6.1-1.06,1.51,3.6,3.43,4.34,7.83,2.73-2.62-1.34-4.39-3.83-7.61-2.8.22-.77,1.63-.84,1.1-2.33h-5.66c1.85-1.51,4-1,6.09-.87,2.13.73,3.72-1.15,5.69-1.18-.09,1,.62,1.69,1.05,2.49-1.09.22-2.79-.27-2.82,1.43S605,367.75,606.08,368Z" transform="translate(-486.28 -231.23)"/><path class="cls-2" d="M611.49,572.79c.89,1.79.28,3.13-.42,4.39a27.33,27.33,0,0,1-10.47,10.67,11.06,11.06,0,0,1-3,1,1.62,1.62,0,0,1-1.83-.82,1.34,1.34,0,0,1,.4-1.92c6.21-2.77,9.7-8.41,14.06-13.14C610.38,572.82,610.86,572.89,611.49,572.79Z" transform="translate(-486.28 -231.23)"/><path class="cls-2" d="M570.45,569.06c-3.81.23-6.18-1.91-8.32-4.32-2.63-3-5.24-6-6.22-10a1.81,1.81,0,0,1,1-2.27,1.64,1.64,0,0,1,2.24.91C561.8,559.41,566.57,563.83,570.45,569.06Z" transform="translate(-486.28 -231.23)"/><path class="cls-2" d="M615.35,571a3.19,3.19,0,0,0-2.29-3.61c-2.71-1.15-2.59-3.11-.11-4.78,1.34-.89,2.82-1.55,4.21-2.37,1.77-1,4-1.56,3.8-4.45a1.55,1.55,0,0,1,1.89-1.46c1.43.3,1.47,1.68,1.14,2.59-1,2.84-2.61,5.41-5.66,6.45-1.17.4-2.17.82-1.89,2.08s1.44.32,2.2.43c3,.45,3.52,1.62,1.73,4.12a4,4,0,0,0-1,1.86A4.65,4.65,0,0,1,615.35,571Z" transform="translate(-486.28 -231.23)"/><path class="cls-2" d="M544.45,584.39c.88-1.54,3.23-.88,3.94-2.55.36-.86.94-2.35-1-2-3,.52-3-1.07-2.3-3.12.46-1.25,1.55-1.77,2.32-.39,1.14,2,2.36,1.81,3.93.69a3.9,3.9,0,0,1,1.49-.6c1.08-.23,2.44-.36,2.94.69.8,1.67-1.24,1.81-1.91,2.72l-3.08,3a7.77,7.77,0,0,0,.89,3,2.28,2.28,0,0,1-.95,3.19c-1.36.76-1.53-.85-2.09-1.61s-1.23-.5-1.91-.48C545.54,586.41,544.45,585.91,544.45,584.39Z" transform="translate(-486.28 -231.23)"/><path class="cls-2" d="M566,295.8c.13,2.82-2.2,5.61-4.67,5.57-2,0-3.88-2.28-4.09-4.91-.22-2.87,1.88-5.7,4.35-5.85C563.71,290.48,565.84,293,566,295.8Z" transform="translate(-486.28 -231.23)"/><path class="cls-1" d="M772.94,291.12c1.75.37,2.85,1.23,1.83,2.65a20.42,20.42,0,0,1-11.17,8,2.19,2.19,0,0,1-2.38-.87,1.56,1.56,0,0,1-.06-2C764.35,295.07,768.57,292.79,772.94,291.12Z" transform="translate(-486.28 -231.23)"/><path class="cls-2" d="M606.29,398.07c-2.14,0-2.49-1.39-2.9-2.47a49.56,49.56,0,0,1-2.72-13.3c-.13-1.25-.07-2.77,1.68-2.86,1.34-.07,1.79,1.14,1.88,2.24C604.67,387.14,607.06,392.42,606.29,398.07Z" transform="translate(-486.28 -231.23)"/><path class="cls-2" d="M792.78,248.19c-.1,1.28-.57,2.73-2.28,2.91s-1.88-1.1-1.86-2.51c0-2.93-1.57-3.74-4.23-3-1.29.34-2.67.45-3-1.22-.26-1.51,1-2.19,2.21-2.62A6.81,6.81,0,0,1,792.78,248.19Z" transform="translate(-486.28 -231.23)"/><path class="cls-2" d="M553.7,401.06c-.52,0-1,.16-1.22,0-2.68-2.69-6.14-3.29-9.66-3.8a1.55,1.55,0,0,1-.92-1.19,1.72,1.72,0,0,1,.79-1.3c2.26-1.18,4.88-1.32,6.65.31s3.09,2.67,5.48,2.33a2,2,0,0,1,2.47,1.64c.17,1.82-1.51,1.64-2.67,1.92A6.75,6.75,0,0,1,553.7,401.06Z" transform="translate(-486.28 -231.23)"/><path class="cls-2" d="M604.67,418.3l-1-1.76c-1.74,1.76-4.18-1.11-5.92.93-.52.61-.8,1.66-2.25,1.44-1.6-2.39-.69-4.38,1.51-5.74,1.94-1.21,3.82-1,4.78,1.54.73,1.89,1.73,1.65,3.26.7a6.54,6.54,0,0,1,4.67-1c1.61.3,2.75,1,2.16,2.93C609.34,416.88,607.14,418.59,604.67,418.3Z" transform="translate(-486.28 -231.23)"/><path class="cls-2" d="M556.33,466.77c0,1.72-2.33,3.39-3.93,2.31-2-1.36-2.94-1.57-4.6.56-1.44,1.86-5.26,1.29-6.83-.49a2,2,0,0,1-.39-2.48,1.65,1.65,0,0,1,2.32-.72c1.62.9,3.44,1.09,5.12,1.69,1.4.5,2.18.59,3-.91,1-1.83,2.9-1,4.44-1.08C556,465.61,556.29,466.17,556.33,466.77Z" transform="translate(-486.28 -231.23)"/><path class="cls-1" d="M537.76,548.31c.66-6.09,1.65-6.82,7.83-6.33,2.1.16,4.12,1.37,6.36.38.77-.33,1.09.69,1.22,1.42-.85.92-2.36.05-3.14,1.15l-2.53-.1c-.52-.76-.72-2.13-2.06-1.53s-.46,1.32,0,2c-.91.48-2.18-.19-2.93,1,.65,2,2.78,1.88,4.14,2.87l-.29.42-2.07.85c-1.17-.2-2.39-.26-3.17-1.41-.9-1.33-2-1.74-3.46-.71Z" transform="translate(-486.28 -231.23)"/><path class="cls-2" d="M550,544.93c.78-1.1,2.29-.23,3.14-1.15,4.07-.45,4.07-.45,3.44-4.27,3.07-.4,5,2.15,7.67,3,1.4.46.07,2.13-.51,3.18l-.26.14-.28,0-1.54-.74c-.8-.29-1.91-1.47-2.33-.71-1.82,3.33-4.88,1.8-7.41,2.23a.51.51,0,0,0-.45.47Z" transform="translate(-486.28 -231.23)"/><path class="cls-1" d="M604.67,418.3c2.47.29,4.67-1.42,7.16-1,.81,1.61,4.23.53,3.71,3.16-.41,2.06-2.76,2.8-4.48,3.57-1.39.62-3.17.39-4.77.54l-2.77-1.7Zm3.66,2.41c0-.66-.43-.88-.94-1-.73-.14-1.41,0-1.56.84-.1.63.37.91.91,1C607.44,421.63,608.12,421.58,608.33,420.71Z" transform="translate(-486.28 -231.23)"/><path class="cls-1" d="M508.53,452.4a2.37,2.37,0,0,1,1.5-1.52c2.34,2,3.14,4.16,1.48,7.14-.93,1.68-1.07,3.78-1.63,5.67-.68,2.3-1.44,2.47-3.33.81-2.35-2.06-2.65-3.63-.29-4.57,3.07-1.22,2.49-3.15,2.22-5.36A14.36,14.36,0,0,1,508.53,452.4Z" transform="translate(-486.28 -231.23)"/><path class="cls-1" d="M564.06,458.68c.2-.64.86-1.54.07-1.88a17.08,17.08,0,0,0-3.7-.73c-3.29-.61-3.45-.42-3.1,3.8-.74-.15-1.58-.66-1.51-1.25.27-2.44-1.61-3.59-2.82-5.16l2.75.92,6.8.71c-.3-4.13-.3-4.13-2.95-5.39,1.67-1.54,3.71-.09,5.49-.68,0,.53-.14,1.18.11,1.58.71,1.13,3.64,1,2.77,2.48C566.86,455,567.61,458.47,564.06,458.68Z" transform="translate(-486.28 -231.23)"/><path class="cls-2" d="M817.17,279.88c.2-1-.85-1.53-1-2.39-.64-2.7,0-4,2.91-4.57,1.15-.23,2.15-.06,2.19-1.54,0-1.85.73-3.65,2.72-3,1.69.52.51,2.52.5,3.88-4.6.43-4.8.78-2.51,4.34-.37,2.93-2.3,3.55-4.84,3.27Z" transform="translate(-486.28 -231.23)"/><path class="cls-1" d="M859.72,598.48a3.86,3.86,0,0,1,4.15,4A4.5,4.5,0,0,1,860,607a4.37,4.37,0,0,1-4.52-3.8A4.52,4.52,0,0,1,859.72,598.48Z" transform="translate(-486.28 -231.23)"/><path class="cls-2" d="M828,686.57a4.73,4.73,0,0,1,2.46-3.58c2.29.25,4.53,1.41,6.88.25,1.78-.88,2.86,0,3.14,1.67a2.45,2.45,0,0,1-2.35,3,14,14,0,0,1-3.77-.07C832.23,687.52,830.13,687,828,686.57Z" transform="translate(-486.28 -231.23)"/><path class="cls-1" d="M934.89,464.2c-1.11,2.07-3.24,3.26-4.54,5.14-.93,1.35.48,1.2,1.18,1.44-2,1.73-4.06,3.44-6.08,5.18-2.41,2.07-3.44,1-3.82-1.66,3.41-4.71,8.28-7.48,13.3-10.06Z" transform="translate(-486.28 -231.23)"/><path class="cls-1" d="M909.65,427.11c.13,2.27-1.41,4.15-3.37,4.12a3.89,3.89,0,0,1-3.54-4.09c0-1.83.29-3.78,2.63-4.12C907.3,422.75,909.54,425,909.65,427.11Z" transform="translate(-486.28 -231.23)"/><path class="cls-1" d="M560.55,414.56a3.59,3.59,0,0,0-.89-2.75,3,3,0,0,0-.18-2.54c-.76-1.58-.28-2.92,1.42-3.32s3.58-.3,4.14,2.07c.41,1.71.9,3.39,1.35,5.09l.09-.18A16.59,16.59,0,0,0,560.55,414.56Z" transform="translate(-486.28 -231.23)"/><path class="cls-2" d="M635.58,371.12c-1.44-1.43-3.25-2.75-5.65-.74-.45.37-1.2-.56-1.17-1.37a4.27,4.27,0,0,1,4.34-3.93c2.27,0,4.72,2.27,4.62,4.41C637.67,370.44,637.15,371.18,635.58,371.12Z" transform="translate(-486.28 -231.23)"/><path class="cls-1" d="M619.19,256c-.05,2-2,4-3.75,3.81-2-.17-3.51-2.42-3.31-4.81.13-1.63.78-2.71,2.64-2.68C617.41,252.34,619.25,253.83,619.19,256Z" transform="translate(-486.28 -231.23)"/><path class="cls-2" d="M934.58,519c-.17,2-.86,3.36-2.91,3.43-1.88.07-4.25-2-4-3.64.4-2.48,2.88-1.8,4.36-2.3C933.86,515.91,934.22,517.82,934.58,519Z" transform="translate(-486.28 -231.23)"/><path class="cls-2" d="M565.09,449c-1.78.59-3.82-.86-5.49.68l-.39.13-1.46-.07c-1.49,1.18-1.34,3.08-2,4.62l-2.75-.92a2.75,2.75,0,0,1,0-2.5,1.25,1.25,0,0,0,1-1.06l.12-.06,2.18.08.82-2c.14-.32.29-.63.44-.95,1.34-1.43,3.1-1.57,4.87-1.42C564.51,445.73,565.75,446.68,565.09,449Z" transform="translate(-486.28 -231.23)"/><path class="cls-2" d="M587.22,410.37c-1.11.09-2-.11-2.4-1.05a1.56,1.56,0,0,1,.94-2.17c1.6-.78,3.25-1.46,4.89-2.15a1.39,1.39,0,0,1,1.88.44,1.85,1.85,0,0,1,0,2C591.31,409.51,589.09,409.78,587.22,410.37Z" transform="translate(-486.28 -231.23)"/><path class="cls-2" d="M536.41,405a1.86,1.86,0,0,1-1.27,1.7,5,5,0,0,0-2.45,2c-.5.85-.75,2.32-2.2,1.54s-1.52-2.33-.78-3.73c.95-1.82,2.34-3.18,4.56-3.22A1.87,1.87,0,0,1,536.41,405Z" transform="translate(-486.28 -231.23)"/><path class="cls-2" d="M618.52,415.21c-1.91-1.42-1.55-2.72.47-3.41a11.35,11.35,0,0,1,6.28-.14c.88.2,1.83.54,1.85,1.58s-1,1.27-1.84,1.54a8.89,8.89,0,0,1-1.56.23Z" transform="translate(-486.28 -231.23)"/><path class="cls-1" d="M835.33,261.29c-2,2.31-4.15,3.84-4.09,6.71a2,2,0,0,1-.73,1.38c-.81.68-1.78,1.76-2.81,1.2-1.39-.75-1.05-2.45-.31-3.31C829.45,264.86,830,260.42,835.33,261.29Z" transform="translate(-486.28 -231.23)"/><path class="cls-2" d="M636.16,402.07c-.11.33-.24.95-.33.95-2.25-.14-4,1.51-6.08,1.74-.78.09-1.3-.69-1.27-1.47.08-1.92,1.48-2.84,3-3.41s3.24-.51,4.32,1.17A4.18,4.18,0,0,1,636.16,402.07Z" transform="translate(-486.28 -231.23)"/><path class="cls-1" d="M932.32,369.08c-.75-3.65.74-6,2.34-8.33A1.75,1.75,0,0,1,937,360a1.85,1.85,0,0,1,.84,2.32A10.93,10.93,0,0,1,932.32,369.08Z" transform="translate(-486.28 -231.23)"/><path class="cls-2" d="M558.05,438.66c-1.69,1.21-2.46,3.22-3.84,4.76-.21.23-1.07.13-1.47-.1-1.38-.78-1.43-3.13,0-4.67s2.74-2.32,4.64-1.08C557.6,437.74,557.72,438.14,558.05,438.66Z" transform="translate(-486.28 -231.23)"/><path class="cls-2" d="M638.46,420.14a13,13,0,0,0,4.67,1.5c.79.1.74,1.11.33,1.76-1.33,2.1-5.63,2.2-7,.14a2.3,2.3,0,0,1-.1-2.52A1.87,1.87,0,0,1,638.46,420.14Z" transform="translate(-486.28 -231.23)"/><path class="cls-2" d="M550.37,408.62c-1.63,0-2.91-.3-2.93-1.94,0-1.34,1.12-1.73,2.25-1.85,1.74-.18,3.55-1.21,5.16.25a1.62,1.62,0,0,1,.48,1.41C554.23,408.66,551.91,408,550.37,408.62Z" transform="translate(-486.28 -231.23)"/><path class="cls-2" d="M849.05,633.3c-1.72-.21-2.93-1-3.14-2.62s.44-3.37,2.34-3.73,3.12.93,3.33,2.73S850.67,632.69,849.05,633.3Z" transform="translate(-486.28 -231.23)"/><path class="cls-1" d="M642,377.13c-2.17-2.85-3.61-5.74-.48-8.88.9.48,1.64,1.15,2.8.21,1.81-1.45,1.93-.09,1.83,1.34-1.13.57-3.26.49-2,2.69.85,1.51-1.06,3.16.43,4.53Z" transform="translate(-486.28 -231.23)"/><path class="cls-2" d="M537.71,548.26c-1,1.78,1.27,3.31.37,5.1-.41.82-.8,1.72-1.79,1.8s-1.59-.59-1.65-1.65a12.54,12.54,0,0,0-.26-1.59c-.64-3.34-.55-3.44,3.38-3.61Z" transform="translate(-486.28 -231.23)"/><path class="cls-1" d="M618.52,415.21l5.2-.2c-.38,2.05,1.13,2.19,2.49,2.49-1.46,2.77-1.29,3,2,3.07-.4,2.09-1.79,2.26-3.51,1.84-1.34-.32-2.68-.62-4-.93,1-2.31-.84-1.68-1.9-1.87a6.24,6.24,0,0,1,1.14-1c.83-.42,1.74-1,1.54-1.87s-1.49-.52-2.22-.88A3.91,3.91,0,0,1,618.52,415.21Z" transform="translate(-486.28 -231.23)"/><path class="cls-2" d="M598.7,426.13c-.26.24-.57.72-1,.88a3.2,3.2,0,0,1-3.79-1.08,3.7,3.7,0,0,1-.33-4,1.11,1.11,0,0,1,1.27-.7C595.44,421.33,598.77,425.39,598.7,426.13Z" transform="translate(-486.28 -231.23)"/><path class="cls-1" d="M541.13,585.27c-1.45-.88-2.74.35-4.12.31-1,0-1.75-.48-1.69-1.6.08-1.38,3.78-3.89,5.95-3.85,2.67.06,1.49,2.25,1.78,3.61a2.61,2.61,0,0,0,.2.5l.06,0c-1.3-.72-2.14-.51-2.25,1.13Z" transform="translate(-486.28 -231.23)"/><path class="cls-2" d="M661,364.11c-.82,1.38-2.47,1.25-2.88,3a5.07,5.07,0,0,1-2.82,3c-1.28-3.51-1.14-4.39,1.51-4.73A8.65,8.65,0,0,0,661,364.11Z" transform="translate(-486.28 -231.23)"/><path class="cls-2" d="M621,371.73c-.77.82,0,1.68-.08,2.52,0,1.06-.53,1.73-1.69,1.46-.5-.12-.93-.55-1.43-.69-1.52-.42-3.85-.54-3.16-2.67s2.64-.86,4.07-.21c.84.37,1.66.71,2.24-.4Z" transform="translate(-486.28 -231.23)"/><path class="cls-1" d="M593.45,371.47c-.61,1.64-.94,3.18,1.54,3.4,1.12.1,2.19.29,2.23,1.66a1.66,1.66,0,0,1-.85,1.2c-1.17.58-2-.05-2.66-1-.4-.58-.79-1.33-1.59-1.17-3.61.72-3.12-2.45-4.12-4.22l-.07.06c1.84.8,3.7.23,5.55.12Z" transform="translate(-486.28 -231.23)"/><path class="cls-2" d="M646.14,369.8c.1-1.43,0-2.79-1.83-1.34-1.16.94-1.9.27-2.8-.21-.38-1.95,0-3.49,2.16-4.13a2.3,2.3,0,0,1,3.09,1.3c.6,1.69,2.65,3.33.82,5.29C647,371.32,646.41,370.48,646.14,369.8Z" transform="translate(-486.28 -231.23)"/><path class="cls-2" d="M802.19,657.18c-.32,1.88-.88,3.46-3,3.4-1.54,0-2.16-1.26-2.12-2.66.06-1.87,1-3.18,3-3.18A2.06,2.06,0,0,1,802.19,657.18Z" transform="translate(-486.28 -231.23)"/><path class="cls-2" d="M769.58,231.36c1.28,1.55,1.06,3.25,1.19,4.83a1.85,1.85,0,0,1-1.39,2.07,1.76,1.76,0,0,1-2.09-1.34C766.46,234.46,766.67,232.35,769.58,231.36Z" transform="translate(-486.28 -231.23)"/><path class="cls-2" d="M735.32,665.56a2.39,2.39,0,0,1-2.23,2.55c-1.79.13-2.53-1.2-2.63-2.74-.08-1.29.32-2.7,2-2.57A3.23,3.23,0,0,1,735.32,665.56Z" transform="translate(-486.28 -231.23)"/><path class="cls-2" d="M583.89,397c-.09.73-.19,1.49-1,1.71s-4.58-3-4.48-4,.93-1.5,1.89-1.53A3.49,3.49,0,0,1,583.89,397Z" transform="translate(-486.28 -231.23)"/><path class="cls-2" d="M562.08,390.25c-1.94,1.18-3.3,2-4.68,2.85-1,.6-2.08.87-2.8-.36s0-2.14.9-2.81C557.43,388.48,559.42,388.45,562.08,390.25Z" transform="translate(-486.28 -231.23)"/><path class="cls-2" d="M639,417.55a12.92,12.92,0,0,1-2.05-.26c-.9-.25-1.66-.78-1.49-1.88a1.84,1.84,0,0,1,1.94-1.52,9.07,9.07,0,0,1,2.15.09c1.5.28,3.13,1,2.81,2.65S640.21,417.38,639,417.55Z" transform="translate(-486.28 -231.23)"/><path class="cls-2" d="M642,377.13l2.54-.11.1.17a.92.92,0,0,0,1.17.8c1.15-.2,1.89-1.4,3.17-1.24.18.43.35.86.53,1.3-.67,2.61-2.89,3-4.93,2.89S640.87,379.73,642,377.13Z" transform="translate(-486.28 -231.23)"/><path class="cls-2" d="M584.55,581.47c-.4.23-.58.43-.7.4-3.51-1-5.5-2.66-5.17-4.44a1.33,1.33,0,0,1,1.54-1.17C583,576.92,584.16,578.9,584.55,581.47Z" transform="translate(-486.28 -231.23)"/><path class="cls-2" d="M549.83,460.47a3.44,3.44,0,0,1-4.56-.38c-1.15-1.08-1.62-2.51-.41-3.72s2.26-.28,2.94.86S550,458.56,549.83,460.47Z" transform="translate(-486.28 -231.23)"/><path class="cls-2" d="M499.58,467.53c1.51.6,3.62-2.73,4.5.28.68,2.32-1.67,3.3-3.55,4a1.87,1.87,0,0,1-2.06-.26c-.85-.9-.11-1.6.49-2.28s1.06-1,.71-1.87Z" transform="translate(-486.28 -231.23)"/><path class="cls-2" d="M649.51,439.88c-.6,1.05.18,3.3-2.17,2.9-1.52-.26-1.82-1.63-1.56-3s.88-3,2.71-2.63C649.8,437.41,649.74,438.72,649.51,439.88Z" transform="translate(-486.28 -231.23)"/><path class="cls-2" d="M545.48,444.09c-1.12,1-.39,3.65-2.63,3.86-1.43.14-2.1-1.25-2-2.63a3,3,0,0,1,3-3.08C544.89,442.21,545.55,442.77,545.48,444.09Z" transform="translate(-486.28 -231.23)"/><path class="cls-2" d="M660.94,434.71c-1.06-2.19-3.37-.26-4.8-1.48-.77-.65-2.27-.71-1.75-2.2a2.21,2.21,0,0,1,2.71-1.3c1.46.31,2.8.94,2.86,2.76,0,.9-.14,1.84,1,2.2Z" transform="translate(-486.28 -231.23)"/><path class="cls-2" d="M548.82,601.46a4.45,4.45,0,0,1-1-.39c-2.31-1.62-.49-3.62-.49-5.47a2.23,2.23,0,0,1,2.33-2.41,2.64,2.64,0,0,1,2.47.76,1.5,1.5,0,0,1-.28,2.34c-1.25,1.06-1.14,2.59-1.51,4A1.42,1.42,0,0,1,548.82,601.46Z" transform="translate(-486.28 -231.23)"/><path class="cls-2" d="M637.71,383.53a1.64,1.64,0,0,1-1.93,1.39c-2-.21-2.69-1.55-2.66-3.35a1.87,1.87,0,0,1,1.57-1.89C635.75,379.47,637.78,382.11,637.71,383.53Z" transform="translate(-486.28 -231.23)"/><path class="cls-2" d="M527.67,586.92c.94-2.47,1.44-4.17,2.23-5.73a1.64,1.64,0,0,1,2.31-.62,1.44,1.44,0,0,1,0,2.59C530.67,584,530.08,585.77,527.67,586.92Z" transform="translate(-486.28 -231.23)"/><path class="cls-2" d="M746.14,631.47c-1.36-.18-2.5-.49-2.44-1.84a2.94,2.94,0,0,1,3-3.1c1.48,0,2.12,1.19,2.09,2.56C748.72,630.9,747.51,631.46,746.14,631.47Z" transform="translate(-486.28 -231.23)"/><path class="cls-2" d="M541.67,598.44c.52,1.46,1.86,3-.28,4.24a2.25,2.25,0,0,1-2.94-.6c-1.2-1.38-.94-2.63.48-3.7Z" transform="translate(-486.28 -231.23)"/><path class="cls-2" d="M566.48,412.93l-.09.18c2.18-.55,4.27-1.84,6.88-.7-.27,2.4-2.19,2.87-4,3.19S567.34,413.9,566.48,412.93Z" transform="translate(-486.28 -231.23)"/><path class="cls-2" d="M676.31,427.57c1.12,4.14,1.1,4.18-2.79,4.76a13.68,13.68,0,0,1-1.17-1.11c-1.58-1.94-1.42-2.74.75-3.27A24.46,24.46,0,0,1,676.31,427.57Z" transform="translate(-486.28 -231.23)"/><path class="cls-2" d="M605.06,362.63c-2,0-3.56,1.91-5.69,1.18a2.85,2.85,0,0,1,.44-2.37c.62,0,.94-.25.73-.91.68-1.07,1-3.35,2.82-1.13C604.09,360.3,606.39,360.6,605.06,362.63Z" transform="translate(-486.28 -231.23)"/><path class="cls-2" d="M606.08,368c-1.06-.29-2.81.23-2.79-1.49s1.73-1.21,2.82-1.43c1,.71,1.46,2.6,3.49.78,2.39-2.13,2.83,0,2.89,2l-2.22.08C608.86,366.34,607.47,367.59,606.08,368Z" transform="translate(-486.28 -231.23)"/><path class="cls-1" d="M551.5,547.05a.51.51,0,0,1,.45-.47c2.58,2.72,2.68,3.23-.06,4.38a23.93,23.93,0,0,0-3,2c-1.18.7-2.36.89-3.34-.38,1-.25,2.38.4,2.75-.87s-1.24-1.46-1.86-2.23l.29-.42C549.16,550.42,550.36,548.81,551.5,547.05Z" transform="translate(-486.28 -231.23)"/><path class="cls-1" d="M619.5,428.52c-1.54-.14-3.19-.48-3.3-2.55-.07-1.3,1.06-1.85,2.19-1.82a3.13,3.13,0,0,1,3.23,2.34C621.87,427.68,620.89,428.39,619.5,428.52Z" transform="translate(-486.28 -231.23)"/><path class="cls-2" d="M522.06,454.73c-.48,1.23-1.26,1.6-2.21,1.32-1.42-.41-2.72-1.1-2.64-2.85a1.31,1.31,0,0,1,1.54-1.16A3.81,3.81,0,0,1,522.06,454.73Z" transform="translate(-486.28 -231.23)"/><path class="cls-2" d="M815.94,285.88l-.16-.09a8.51,8.51,0,0,0-1.69-1.29c-1.39-.58-2.05-1.52-1.61-3,.58-1.89,1.95-1.87,3.45-1.15.67.33.93-.1,1.25-.51l-.09,0c-1.73,1.45-1.18,3.87-2.36,5.59C814.5,285.78,815.47,285.83,815.94,285.88Z" transform="translate(-486.28 -231.23)"/><path class="cls-2" d="M552.84,534.4c3.41.14,3.41.14,3.51,4.87C551.43,539.74,551.39,539.68,552.84,534.4Z" transform="translate(-486.28 -231.23)"/><path class="cls-1" d="M536.29,417.23a1.76,1.76,0,0,1-2.06,1.4c-1.62-.27-3.28-.75-3.26-2.81a1.72,1.72,0,0,1,2.21-1.7A3.89,3.89,0,0,1,536.29,417.23Z" transform="translate(-486.28 -231.23)"/><path class="cls-2" d="M635,376.55c-2.14,1.83-3.83,1.71-5.17-.33a1.58,1.58,0,0,1,.61-2.33C633.08,372.8,633.53,375.29,635,376.55Z" transform="translate(-486.28 -231.23)"/><path class="cls-1" d="M524.93,453.43c.08-1.62,1.2-2.4,2.72-2.71a1.42,1.42,0,0,1,1.84,1.4c.17,1.65-1.4,3.38-2.87,3.2A1.88,1.88,0,0,1,524.93,453.43Z" transform="translate(-486.28 -231.23)"/><path class="cls-1" d="M935,459c-2.76,3.1-6.66,4.62-9.68,7.37l-.75-.73,6.66-6.91A5.94,5.94,0,0,0,935,459Z" transform="translate(-486.28 -231.23)"/><path class="cls-1" d="M544.45,584.39c0,1.52,1.09,2,2.26,2.46-1.2,1-2.35,2-3.62,2.92-.64.45-1.33,1.33-2.29.75a2,2,0,0,1-.73-2.33,21.3,21.3,0,0,1,1.06-2.92l-.07.06c1,0,2,.16,2.25-1.13l-.06,0Z" transform="translate(-486.28 -231.23)"/><path class="cls-1" d="M664.69,437.25l-3.13-.08a3,3,0,0,0-.62-2.46l0,0a5.21,5.21,0,0,0,4-2.24,1.36,1.36,0,0,1,1.88-.38,1.48,1.48,0,0,1,.19,2.3C666.26,435.34,665.46,436.29,664.69,437.25Z" transform="translate(-486.28 -231.23)"/><path class="cls-2" d="M582.27,376.18c0-1.05.52-1.78,1.52-1.81,1.52-.05,2.08,1.05,2.23,2.36a1.13,1.13,0,0,1-1.18,1.37A2.17,2.17,0,0,1,582.27,376.18Z" transform="translate(-486.28 -231.23)"/><path class="cls-1" d="M838.69,257a1.64,1.64,0,0,1,2,1.27c.26,1.3,1.44,2.58.31,4a1,1,0,0,1-1,.11,5.07,5.07,0,0,1-2.42-4.36C837.61,257.49,838.12,257.14,838.69,257Z" transform="translate(-486.28 -231.23)"/><path class="cls-2" d="M588,371.32c-.42-1-1.48-.72-2.22-1.07-.93-.43-2.14-.76-1.66-2.17.33-1,1.27-1.14,2.2-1.05a2,2,0,0,1,2,2c.05.8-1.24,1.39-.36,2.32Z" transform="translate(-486.28 -231.23)"/><path class="cls-1" d="M663.35,371.42c-.73.76-.24,1.7-.38,2.54-.25,1.56-1.39,2-2.79,1.73a1.76,1.76,0,0,1-1.58-1.87c.08-1.38,1.11-1.7,2.26-1.75.88,0,1.81.15,2.47-.66Z" transform="translate(-486.28 -231.23)"/><path class="cls-1" d="M522.43,462a2,2,0,0,1-2,2c-1.41.07-2.51-.56-2.38-2.14.1-1.23,1.16-1.74,2.28-1.77A1.9,1.9,0,0,1,522.43,462Z" transform="translate(-486.28 -231.23)"/><path class="cls-1" d="M688.73,376.77c-.3,1.38-1.38,1.57-2.44,1.55-1.41,0-2.37-.79-2.2-2.3a1.8,1.8,0,0,1,2.29-1.59A2.45,2.45,0,0,1,688.73,376.77Z" transform="translate(-486.28 -231.23)"/><path class="cls-1" d="M782.89,286.66a2,2,0,0,1,1.94-2.13c.92-.16,1.95-.06,2.19,1,.38,1.58-.77,2.29-2.07,2.52A1.83,1.83,0,0,1,782.89,286.66Z" transform="translate(-486.28 -231.23)"/><path class="cls-1" d="M621,371.73h0a9.69,9.69,0,0,1,.34-3.09c.49-1,1.67-1.21,2.81-.91.72.2,1.39.59,1.44,1.37.1,1.3-.87,1.9-1.92,2.21A17.64,17.64,0,0,1,621,371.73Z" transform="translate(-486.28 -231.23)"/><path class="cls-1" d="M911,393.38c.79-.3,1.93.05,2.21-1.19,1.87.34,5,.81,4.21,2.7-.94,2.36-3.36-.09-5.11-.57A4.81,4.81,0,0,1,911,393.38Z" transform="translate(-486.28 -231.23)"/><path class="cls-1" d="M550.77,582.79l3.08-3c.42,1.34,1.47,1.18,2.55,1.16s2.18.51,1.81,1.86a1.47,1.47,0,0,1-2.48.8A5.34,5.34,0,0,0,550.77,582.79Z" transform="translate(-486.28 -231.23)"/><path class="cls-2" d="M603.52,422.89l2.77,1.7c-.9,2.6-2.83,1.59-4.47,1.15-.75-.21-.76-1.13-.54-1.84C601.64,422.76,602.67,423,603.52,422.89Z" transform="translate(-486.28 -231.23)"/><path class="cls-2" d="M538.36,590.05a1.7,1.7,0,0,1-1.86,1.4c-1.13-.1-2.06-.65-2-2,.06-.82.76-1.15,1.5-1.16A2.1,2.1,0,0,1,538.36,590.05Z" transform="translate(-486.28 -231.23)"/><path class="cls-1" d="M822.63,265.42c-1,.16-1.55-.14-1.77-.92a1.2,1.2,0,0,1,1-1.59c1.7,0,3.5-.89,5.08.37a1,1,0,0,1,.22.93C826,265.89,823.69,263.67,822.63,265.42Z" transform="translate(-486.28 -231.23)"/><path class="cls-1" d="M667.69,384.8c-.28,1.3-.9,2.13-2.14,2.18a1.91,1.91,0,0,1-2.11-1.94c-.05-1.22.81-1.91,2.06-1.93A2,2,0,0,1,667.69,384.8Z" transform="translate(-486.28 -231.23)"/><path class="cls-2" d="M597.62,367.08c-2.1-.05-3.94,1.43-6.1,1.06a2,2,0,0,1-.18-2.12,1.28,1.28,0,0,0,1-1,2.37,2.37,0,0,1,.9-.36h5.66c.53,1.49-.88,1.56-1.1,2.33Z" transform="translate(-486.28 -231.23)"/><path class="cls-1" d="M558.3,600.87c1.47.21,2.34.76,2.14,2.08a2,2,0,0,1-2.28,1.69,1.68,1.68,0,0,1-1.6-1.76C556.57,601.56,557.5,601.15,558.3,600.87Z" transform="translate(-486.28 -231.23)"/><path class="cls-1" d="M541.67,598.44l-2.74-.06a8.76,8.76,0,0,1,.13-1.55c.39-1.44,1.22-3,2.82-2.16C543.79,595.67,543,597.23,541.67,598.44Z" transform="translate(-486.28 -231.23)"/><path class="cls-2" d="M653.43,377c.54,1,1.54.47,2.32.68s1.81.33,1.86,1.47c0,.83-.58,1.22-1.3,1.4a1.86,1.86,0,0,1-2.5-1.23c-.28-.77.62-1.7-.34-2.37Z" transform="translate(-486.28 -231.23)"/><path class="cls-1" d="M522.68,443.84a1.52,1.52,0,0,1,1.74,1.43,1.8,1.8,0,0,1-1.68,2.19,1.52,1.52,0,0,1-1.87-1.36A2,2,0,0,1,522.68,443.84Z" transform="translate(-486.28 -231.23)"/><path class="cls-1" d="M671.89,379.61l.07.13,0-1.78-.14-.09a19.59,19.59,0,0,0,2,.27c1.12,0,2.15.23,2.33,1.53a1.77,1.77,0,0,1-.57,1.35c-1.19,1-2.24.67-3.09-.53C672.27,380.2,672.09,379.9,671.89,379.61Z" transform="translate(-486.28 -231.23)"/><path class="cls-2" d="M547.42,538.19a1.7,1.7,0,0,1-1.53,1.85,1.46,1.46,0,0,1-1.75-1.51,1.34,1.34,0,0,1,1.23-1.46A1.6,1.6,0,0,1,547.42,538.19Z" transform="translate(-486.28 -231.23)"/><path class="cls-2" d="M795.51,255.34c-.14.75-.54,1.37-1.38,1.3-1.15-.09-1.42-.92-1.2-1.91a1.25,1.25,0,0,1,1.57-1.08C795.38,253.82,795.51,254.56,795.51,255.34Z" transform="translate(-486.28 -231.23)"/><path class="cls-2" d="M576.61,557.16c3.51-.47,2.25,2.24,2.59,3.89C575.71,561.41,575.65,561.33,576.61,557.16Z" transform="translate(-486.28 -231.23)"/><path class="cls-1" d="M567,577c-.17,1-.7,1.68-1.79,1.57a1.71,1.71,0,0,1-1.67-1.79,1.45,1.45,0,0,1,1.74-1.59A1.88,1.88,0,0,1,567,577Z" transform="translate(-486.28 -231.23)"/><path class="cls-2" d="M775.3,247.87a1.68,1.68,0,0,1-1.86-1.46c-.18-1,.17-1.79,1.29-1.81s1.53.77,1.65,1.7A1.46,1.46,0,0,1,775.3,247.87Z" transform="translate(-486.28 -231.23)"/><path class="cls-2" d="M554.41,603.22c-.08,1-.41,1.72-1.56,1.72-1.35,0-1.86-.73-1.75-2,.09-1,.57-1.84,1.53-1.87C554,601,554.32,602.07,554.41,603.22Z" transform="translate(-486.28 -231.23)"/><path class="cls-1" d="M599.92,406.72c.78,0,1.43.25,1.55,1.06.17,1.08-.5,1.56-1.49,1.65a1.27,1.27,0,0,1-1.54-1.05C598.27,407.3,599,406.84,599.92,406.72Z" transform="translate(-486.28 -231.23)"/><path class="cls-1" d="M801.87,244.25a1.45,1.45,0,0,1-1.45-1.26,1.41,1.41,0,0,1,1.52-1.67,1.34,1.34,0,0,1,1.43,1.22C803.47,243.57,802.8,244.09,801.87,244.25Z" transform="translate(-486.28 -231.23)"/><path class="cls-1" d="M734.14,313.51c-.41-1.07-1.43-.89-2.25-1.12a12.1,12.1,0,0,1,1.64-1.23c1.05-.57,2.65-1.51,3.16-.12S735.69,313.37,734.14,313.51Z" transform="translate(-486.28 -231.23)"/><path class="cls-1" d="M630.9,425.5A1.85,1.85,0,0,1,629,427a1.47,1.47,0,0,1-1.61-1.63,1.57,1.57,0,0,1,1.82-1.46A1.48,1.48,0,0,1,630.9,425.5Z" transform="translate(-486.28 -231.23)"/><path class="cls-1" d="M821.93,276.57c-2.29-3.56-2.09-3.91,2.51-4.34a1.38,1.38,0,0,1,1.45.95c-2.66.28-2.31,1.63-1.15,3.26Z" transform="translate(-486.28 -231.23)"/><path class="cls-1" d="M794,232.8c-.18.75-.68,1.31-1.41,1.24a1.34,1.34,0,0,1-1.2-1.86,1.24,1.24,0,0,1,1.61-.9A1.21,1.21,0,0,1,794,232.8Z" transform="translate(-486.28 -231.23)"/><path class="cls-2" d="M628.26,420.57c-3.34-.05-3.51-.3-2-3.07C626.51,418.78,631,417.29,628.26,420.57Z" transform="translate(-486.28 -231.23)"/><path class="cls-2" d="M606,568.17a8.48,8.48,0,0,1,1.05-1.81,1.36,1.36,0,0,1,2.25.15c.69,1.1.26,2-1.06,2.34a7.52,7.52,0,0,1-1.58.06A1.37,1.37,0,0,1,606,568.17Z" transform="translate(-486.28 -231.23)"/><path class="cls-2" d="M618.83,419.61c1.06.19,2.94-.44,1.9,1.87a1.49,1.49,0,0,1-2.18-.18A1.09,1.09,0,0,1,618.83,419.61Z" transform="translate(-486.28 -231.23)"/><path class="cls-1" d="M955.73,490.16c-1.93-.58-4.29,1.17-5.9-1.11C952,488.55,954,488.56,955.73,490.16Z" transform="translate(-486.28 -231.23)"/><path class="cls-2" d="M546.41,549.53c.62.77,2.25.93,1.86,2.23s-1.8.62-2.75.87a2.48,2.48,0,0,1-1.18-2.25Z" transform="translate(-486.28 -231.23)"/><path class="cls-1" d="M531.54,553.87a1.24,1.24,0,0,1-1.25,1.32,1,1,0,0,1-1-1,1.18,1.18,0,0,1,1.24-1.31C531.14,552.88,531.44,553.29,531.54,553.87Z" transform="translate(-486.28 -231.23)"/><path class="cls-2" d="M653.47,377c-.1-.84-.56-1.13-1.36-.87l-2.9-.3c-.06-1.07-.12-2.2,1.34-2.35a1.66,1.66,0,0,1,1.9,1.42c.19.79-.18,1.81,1,2.15Z" transform="translate(-486.28 -231.23)"/><path class="cls-1" d="M649.21,375.79l2.9.3c-.21,1.52-1.2,2-2.61,2-.18-.44-.35-.87-.53-1.3A1,1,0,0,1,649.21,375.79Z" transform="translate(-486.28 -231.23)"/><path class="cls-1" d="M610.27,368l2.22-.08c.44.9.37,1.78-.71,2C610.38,370.14,610.08,369.19,610.27,368Z" transform="translate(-486.28 -231.23)"/><path class="cls-1" d="M509.19,440a1,1,0,0,1-.86,1.15,1,1,0,0,1-1.32-.61c-.26-.84.24-1.37,1.05-1.44A1.09,1.09,0,0,1,509.19,440Z" transform="translate(-486.28 -231.23)"/><path class="cls-1" d="M801.16,254.84a1.26,1.26,0,0,1-1.54,1.07,1,1,0,0,1-.88-1.5,1.54,1.54,0,0,1,1.19-.78C800.61,253.64,801.25,254,801.16,254.84Z" transform="translate(-486.28 -231.23)"/><path class="cls-1" d="M784.38,653.44c.21.19.58.37.59.59.06.6-.38.87-.91.7-.19-.06-.39-.54-.35-.78S784.14,653.61,784.38,653.44Z" transform="translate(-486.28 -231.23)"/><path class="cls-1" d="M803,721.81c0,.92-.13,1.82-1.32,1.44-.72-.23-.89-1-.25-1.6Z" transform="translate(-486.28 -231.23)"/><path class="cls-2" d="M842.08,268.75c.07.63-.33.93-.85,1.08s-.93-.26-1-.79.35-.9.85-1.06C841.7,267.77,841.93,268.23,842.08,268.75Z" transform="translate(-486.28 -231.23)"/><path class="cls-1" d="M586.46,427.05c-.12.27-.19.72-.36.76s-.55-.19-.83-.31c.12-.27.18-.7.38-.78S586.18,426.93,586.46,427.05Z" transform="translate(-486.28 -231.23)"/><path class="cls-1" d="M958.93,491.38a2.91,2.91,0,0,1-3.08-1.18A3.35,3.35,0,0,1,958.93,491.38Z" transform="translate(-486.28 -231.23)"/><path class="cls-1" d="M565.19,441.34l1.45-.28C566.37,442.28,565.83,442.07,565.19,441.34Z" transform="translate(-486.28 -231.23)"/><path class="cls-1" d="M568.67,440.11a1.75,1.75,0,0,1,1.83,1.07A1.82,1.82,0,0,1,568.67,440.11Z" transform="translate(-486.28 -231.23)"/><path class="cls-1" d="M556.29,449.92l-2.18-.08C554.87,449,555.6,448.91,556.29,449.92Z" transform="translate(-486.28 -231.23)"/><path class="cls-1" d="M967.61,495.82a1.92,1.92,0,0,1-2-1.21A2.06,2.06,0,0,1,967.61,495.82Z" transform="translate(-486.28 -231.23)"/><path class="cls-1" d="M965.54,494.56a1.82,1.82,0,0,1-2-1.09A2.05,2.05,0,0,1,965.54,494.56Z" transform="translate(-486.28 -231.23)"/><path class="cls-1" d="M963.38,493.41a1.83,1.83,0,0,1-2.08-1A2,2,0,0,1,963.38,493.41Z" transform="translate(-486.28 -231.23)"/><path class="cls-1" d="M961.18,492.36a2,2,0,0,1-2.16-.95A2.08,2.08,0,0,1,961.18,492.36Z" transform="translate(-486.28 -231.23)"/><path class="cls-2" d="M803,721.81l-1.57-.16c.23-.9.46-1.8.68-2.69l1.45,1.11C803.37,720.65,803.18,721.23,803,721.81Z" transform="translate(-486.28 -231.23)"/><path class="cls-1" d="M645.8,378a.92.92,0,0,1-1.17-.8Z" transform="translate(-486.28 -231.23)"/><path class="cls-1" d="M554,449.9a1.25,1.25,0,0,1-1,1.06A1,1,0,0,1,554,449.9Z" transform="translate(-486.28 -231.23)"/><path class="cls-1" d="M567.22,440c.37-.93.76-.75,1.16,0Z" transform="translate(-486.28 -231.23)"/><path class="cls-1" d="M564.12,438.26l-.4,1c-.34-.27-.39-.58-.09-.88C563.73,438.28,564,438.3,564.12,438.26Z" transform="translate(-486.28 -231.23)"/><path class="cls-1" d="M600.54,360.53c.21.66-.11.91-.73.91C600.05,361.14,600.29,360.83,600.54,360.53Z" transform="translate(-486.28 -231.23)"/><path class="cls-1" d="M592.38,365a1.28,1.28,0,0,1-1,1A.92.92,0,0,1,592.38,365Z" transform="translate(-486.28 -231.23)"/><path class="cls-1" d="M557.55,447c-.15.32-.3.63-.44.95C556.77,447.4,557,447.12,557.55,447Z" transform="translate(-486.28 -231.23)"/><path class="cls-1" d="M561.69,545.06l1.54.74C562.39,546.22,562,545.84,561.69,545.06Z" transform="translate(-486.28 -231.23)"/><path class="cls-1" d="M557.45,460a1,1,0,0,1,1,.91A1,1,0,0,1,557.45,460Z" transform="translate(-486.28 -231.23)"/><path class="cls-2" d="M740.12,515.38c.79-2.2,1.35-4.12,2.18-5.91.7-1.5,1.77-2.94,3.72-2.6s2.36,2.05,2.31,3.77c-.11,3.23-.49,6.43,2.44,8.92,1.08.92.26,2.43-.18,3.59-1.09,2.88-2.08,5.82-3.43,8.57a7.54,7.54,0,0,0-.26,6.25c1.58,4.64,3.33,9.2,5.32,13.67.81,1.82,1.51,3.69,2.22,5.55a1.17,1.17,0,0,1-.23,1.48,1.5,1.5,0,0,1-2,0,15.65,15.65,0,0,1-3.93-5.77,100.38,100.38,0,0,1-6.07-16.29c-.67-2.41-1.49-3.53-4.18-3.93a21,21,0,0,1-8.46-3.53c-2.21-1.49-3-3.58-1.37-5.52s1.37-3.51.52-5.43a9.45,9.45,0,0,1-.64-2.08,5,5,0,0,1,2.33-5.63c2.11-1.24,4.14-.55,5.92,1.14C737.51,512.69,738,514.38,740.12,515.38Zm-2.64,7.71c.19.49.34.58.38.24,0,0-.28-.12-.43-.18-.28-3.71-1.82-6.71-5.4-9.66C732.28,518.31,734.28,521,737.48,523.09Z" transform="translate(-486.28 -231.23)"/><path class="cls-2" d="M682.68,469.29c-.71,2.55-3,3.28-4.76,4.24a120.3,120.3,0,0,1-24.33,10.72,4.93,4.93,0,0,1-1,.35c-1.87.14-4.59,1.48-5.24-.91-.71-2.66,2.33-2.59,4.08-3.07a90.17,90.17,0,0,0,13.67-5.27c4.27-2,8.58-3.87,12.89-5.78C679.41,468.93,680.87,468.15,682.68,469.29Z" transform="translate(-486.28 -231.23)"/><path class="cls-2" d="M661.29,450.86c1.74,3.67.39,5.94-.9,8.05a92.08,92.08,0,0,1-14.75,17.89,4.48,4.48,0,0,1-2.8,1.51,2,2,0,0,1-1.91-.76,1.85,1.85,0,0,1,.07-2,4.6,4.6,0,0,1,.66-.85A136.47,136.47,0,0,0,661.29,450.86Z" transform="translate(-486.28 -231.23)"/><path class="cls-2" d="M698.16,430.57c-.63-.29-1.25-.39-1.55-.75-.88-1-.33-2.05.33-2.94a78.35,78.35,0,0,0,7.52-13.25,15.92,15.92,0,0,1,2.73-4.68c.51-.51,1.07-1.08,1.87-.85,1.17.34,1.16,1.43.93,2.24a56.41,56.41,0,0,1-10,19.18C699.55,430,698.76,430.23,698.16,430.57Z" transform="translate(-486.28 -231.23)"/><path class="cls-2" d="M719.88,444.57l-2,1.31a1.76,1.76,0,0,1-2.44-.21,2.32,2.32,0,0,1-.28-3c1.1-1.95,4.26-3.37,6.14-2.09,3.07,2.09,6.6,3.62,9,6.59a1.33,1.33,0,0,1,.11,1.93,1.12,1.12,0,0,1-1.84-.22c-1.82-2.5-6.14-.58-7.34-4.17C721.17,444.58,720.54,444.63,719.88,444.57Z" transform="translate(-486.28 -231.23)"/><path class="cls-2" d="M778.44,529.51c0,2.3-1.92,4.47-3.87,4.4-1.75-.06-3.23-2-3.22-4.29,0-2.43,2.12-5.25,3.86-5.17C776.78,524.52,778.44,527.13,778.44,529.51Z" transform="translate(-486.28 -231.23)"/><path class="cls-2" d="M686,446.71c-.89,1.49-.94,3.34-1.53,5a2.07,2.07,0,0,1-2.22,1.26,2.14,2.14,0,0,1-2-1.57c-.29-.95.42-2.1-.88-2.89s-2.35-2-.79-3.47c1-1,6.7-.48,7.2.47A4.13,4.13,0,0,1,686,446.71Z" transform="translate(-486.28 -231.23)"/><path class="cls-2" d="M809,410.91c-.34,1.79-1.25,3.16-3.47,3.2a3.39,3.39,0,0,1-3.72-3.64,3.83,3.83,0,0,1,3.68-3.84C807.23,406.63,809,408.74,809,410.91Z" transform="translate(-486.28 -231.23)"/><path class="cls-2" d="M702.38,458.18c-.07,2.14-5.71,5.64-7.51,4.59-1.17-.68-1.07-1.8-.36-2.75,1.61-2.16,4-2.77,6.51-3.16C701.85,456.73,702.22,457.43,702.38,458.18Z" transform="translate(-486.28 -231.23)"/><path class="cls-2" d="M687,434.84c1.64.12,2.67.53,2.92,1.72s-.75,1.47-1.52,1.9a3.48,3.48,0,0,1-.47.24c-1.6.53-3,2.21-4.9.68a1.47,1.47,0,0,1-.5-1.89C683.57,435.56,685.52,435.2,687,434.84Z" transform="translate(-486.28 -231.23)"/><path class="cls-2" d="M634.77,471c0,.69,0,1.27-.58,1.53-1.78.8-3.05-.42-4.32-1.28a2.37,2.37,0,0,1-1.08-3.19,1.66,1.66,0,0,1,2.15-1.07A7.17,7.17,0,0,1,634.77,471Z" transform="translate(-486.28 -231.23)"/><path class="cls-2" d="M694,398.53a1.69,1.69,0,0,1-1.8-1.57c-.24-1.34,2-4,3.5-4.2a2.05,2.05,0,0,1,2.39,1.6C698.38,395.46,695.49,398.36,694,398.53Z" transform="translate(-486.28 -231.23)"/><path class="cls-2" d="M714.79,390.89c1.94-1.3,3.71-.67,5.38-.38a1.66,1.66,0,0,1,1.37,2,1.88,1.88,0,0,1-2,1.52A5.49,5.49,0,0,1,714.79,390.89Z" transform="translate(-486.28 -231.23)"/><path class="cls-2" d="M707.76,392.72c-.29,1.12-1,1.73-2,1.35-1.6-.66-3.54-1.34-3.68-3.38-.08-1.11,1.18-1.83,2.36-1.57A3.91,3.91,0,0,1,707.76,392.72Z" transform="translate(-486.28 -231.23)"/><path class="cls-2" d="M698.47,404.07c-1.47,0-2.41-.62-2.31-2.19s.81-2.9,2.45-2.95c1.8-.06,2.25,1.6,2.33,3S699.78,403.89,698.47,404.07Z" transform="translate(-486.28 -231.23)"/><path class="cls-2" d="M739,444.54c-1.3,0-2.36-.39-2.29-1.75.09-1.72,1.34-2.38,2.93-2.43,1.14,0,2.47.34,2.54,1.46C742.35,443.93,740.34,444,739,444.54Z" transform="translate(-486.28 -231.23)"/><path class="cls-2" d="M736.31,477.37c1.7.19,2.18,1.26,2,2.68s-.76,2.53-2.31,2.5c-1.76,0-1.81-1.46-1.81-2.74C734.17,478.37,734.75,477.37,736.31,477.37Z" transform="translate(-486.28 -231.23)"/><path class="cls-2" d="M736.21,401.4c0,1.72-.4,2.56-1.45,2.51a2.65,2.65,0,0,1-2.6-2.84c0-1.19.42-2.21,1.79-2.07A2.5,2.5,0,0,1,736.21,401.4Z" transform="translate(-486.28 -231.23)"/><path class="cls-3" d="M661.17,444.53c-1.11-.87-1.93-2.22-.31-2.87,2-.78,4.17-2.33,6.44-.46-.24.42-.48.84-.71,1.27-1.28.44-2.63.75-3.34,2.09Z" transform="translate(-486.28 -231.23)"/><path class="cls-2" d="M738.21,451.27a2.46,2.46,0,0,1-4.82-.56c0-1.39,1.13-1.73,2.27-1.6S738.1,449.73,738.21,451.27Z" transform="translate(-486.28 -231.23)"/><path class="cls-2" d="M714,400.87c-.4,1.17-1.35,1.19-2.19,1-1.52-.27-2.66-1.08-2.39-2.84a1.39,1.39,0,0,1,2-1.09A3.36,3.36,0,0,1,714,400.87Z" transform="translate(-486.28 -231.23)"/><path class="cls-2" d="M692.47,548.56c-.26,1.24-.9,1.77-1.92,1.75-1.6,0-2.22-1-2.09-2.48a1.59,1.59,0,0,1,1.74-1.63C691.78,546.3,692.11,547.56,692.47,548.56Z" transform="translate(-486.28 -231.23)"/><path class="cls-2" d="M663.25,444.56c.71-1.34,2.06-1.65,3.34-2.09l1.06-.06,0,0c-.34,1.41.79,3.37-1.37,4.1C664.58,447.05,663.56,446.28,663.25,444.56Z" transform="translate(-486.28 -231.23)"/><path class="cls-2" d="M720.86,450.33c-.18,1.1-.77,1.59-1.52,1.52a2.23,2.23,0,0,1-2.26-2.49,1.31,1.31,0,0,1,1.47-1.26A2.33,2.33,0,0,1,720.86,450.33Z" transform="translate(-486.28 -231.23)"/><path class="cls-2" d="M723.31,398.94c-.17,1.34-.77,1.91-1.82,1.79s-2.07-.8-2-2.05a1.56,1.56,0,0,1,1.78-1.57A2.44,2.44,0,0,1,723.31,398.94Z" transform="translate(-486.28 -231.23)"/><path class="cls-2" d="M727.32,452a1.66,1.66,0,0,1-1.58,1.85c-1.48.13-2.26-.83-2.31-2.24a1.33,1.33,0,0,1,1.23-1.45A2.33,2.33,0,0,1,727.32,452Z" transform="translate(-486.28 -231.23)"/><path class="cls-2" d="M670.56,452.36c-.45,1-1.07,1.63-2.09,1.41a2,2,0,0,1-1.74-2.31,1.41,1.41,0,0,1,1.92-1.26A2.42,2.42,0,0,1,670.56,452.36Z" transform="translate(-486.28 -231.23)"/><path class="cls-2" d="M747.31,449.51a2,2,0,0,1-1.95-2.13,1.32,1.32,0,0,1,1.27-1.43,1.94,1.94,0,0,1,2.23,1.78C749,448.79,748.25,449.28,747.31,449.51Z" transform="translate(-486.28 -231.23)"/><path class="cls-2" d="M699.09,446a1.65,1.65,0,0,1-1.62,1.81c-1.08.11-2.18-.09-2.36-1.43-.14-1,.6-1.59,1.55-1.67A2.06,2.06,0,0,1,699.09,446Z" transform="translate(-486.28 -231.23)"/><path class="cls-2" d="M823.38,518.32c.89,0,1.16.68,1.19,1.39,0,.93-.25,1.81-1.3,1.92s-1.62-.5-1.52-1.57A1.89,1.89,0,0,1,823.38,518.32Z" transform="translate(-486.28 -231.23)"/><path class="cls-2" d="M704.44,397.31a1.25,1.25,0,0,1-1.5,1.12,1.23,1.23,0,0,1-1.15-1.48c.06-.87.72-1.18,1.49-1.12S704.41,396.54,704.44,397.31Z" transform="translate(-486.28 -231.23)"/><path class="cls-2" d="M707.71,447.19c0,.77-.33,1.4-1.19,1.45s-1.42-.27-1.47-1.14.3-1.41,1.17-1.45A1.29,1.29,0,0,1,707.71,447.19Z" transform="translate(-486.28 -231.23)"/><path class="cls-3" d="M655.82,448.74c0-3.29,2.33-1.16,3.58-1.53C658.15,447.59,657.26,448.8,655.82,448.74Z" transform="translate(-486.28 -231.23)"/><path class="cls-2" d="M616.32,472.66c-.59-.14-.88-.55-.69-1.1a1,1,0,0,1,.83-.43.76.76,0,0,1,.69,1.07C617.07,472.43,616.6,472.51,616.32,472.66Z" transform="translate(-486.28 -231.23)"/><path class="cls-2" d="M674,444.91c.29.12.72.17.84.38a.74.74,0,0,1-.48,1.14,1,1,0,0,1-.84-.36A.79.79,0,0,1,674,444.91Z" transform="translate(-486.28 -231.23)"/><path class="cls-3" d="M821.93,276.57l2.81-.13c1.39.48,2.31,1.36,1,2.66s-2.42,2.12-1.82,4a41.09,41.09,0,0,0-8,2.76c-.47-.05-1.44-.1-1.21-.45,1.18-1.72.63-4.14,2.36-5.59C819.63,280.12,821.56,279.5,821.93,276.57Z" transform="translate(-486.28 -231.23)"/><path class="cls-2" d="M584.75,537.32c.33-4.8.36-4.24,4.65-4.44s6.74,3,10.39,3.75c1.27.24,1.19,1.63.07,2.48-.43.31-1,.4-1.46.7-1,.7-.65,3.35-2.84,2.39-1.6-.71-.25-2.75-1.34-4.13-3.56,4.61-6.42.85-9.51-.79Z" transform="translate(-486.28 -231.23)"/><path class="cls-2" d="M597.44,490.93c-1.57,1-1.74,3.72-3.92,4.5-1.92.69-1.41,1.37-.52,2.51a1.27,1.27,0,0,1-.4,1.87c-.64.43-1.69.65-2,.16-1.41-2.24-3.39-2.33-5.67-2a1.66,1.66,0,0,1-2-1.37,1.84,1.84,0,0,1,1.88-2.17c4.19.5,6.21-2.24,8.31-5.05a2.31,2.31,0,0,1,3.33-.6A2,2,0,0,1,597.44,490.93Z" transform="translate(-486.28 -231.23)"/><path class="cls-2" d="M579.26,500.23c2.62-.48,5.36.74,6,2.69.36,1-2.13,5.09-3.57,5.56-1.24.41-2.6-.29-2.1-1.46,1.06-2.46-.41-4.57-.32-6.84Z" transform="translate(-486.28 -231.23)"/><path class="cls-2" d="M601.55,564.51c-.34-.22-1.15-.52-1.13-.77a31.14,31.14,0,0,1,.82-7c.35-1.15,2.12-1.28,3.27-.45s.33,1.65-.27,2.26c-1,1.08-.81,2.1-.46,3.41S603.14,564.25,601.55,564.51Z" transform="translate(-486.28 -231.23)"/><path class="cls-2" d="M591.29,553.69c0-.54.06-1.08,0-1.62-.07-2.4,1-3.78,3.48-3.68,1.38.05,1.61,1.11,1.72,2.27.22,2.34.28,4.49-3.09,4.08l0,0a2.16,2.16,0,0,0-2.24-1.12Z" transform="translate(-486.28 -231.23)"/><path class="cls-2" d="M581,486.55c.77,0,1.4.31,1.47,1.17.13,1.56-2.75,4.76-4.32,4.79a1.63,1.63,0,0,1-1.85-1.5C576.08,489.31,578.86,486.72,581,486.55Z" transform="translate(-486.28 -231.23)"/><path class="cls-2" d="M574.4,540.54c-.08,1.19-1,2.25-2,1.84a21,21,0,0,1-4.7-3.09c-.38-.29-.13-1,.36-1.38C569.36,537,574.16,539,574.4,540.54Z" transform="translate(-486.28 -231.23)"/><path class="cls-2" d="M579.3,500.18a14.09,14.09,0,0,0-1.35.8c-1.13.85-2.4,2.11-3.57.47-1-1.46.15-2.65,1.37-3.47,1.57-1.06,2.63-.38,3.25,1.23a6.93,6.93,0,0,1,.26,1Z" transform="translate(-486.28 -231.23)"/><path class="cls-2" d="M607.5,531.34c-.83,1.39-1.73,2.9-3.47,3.49a1.18,1.18,0,0,1-1.49-1.09c-.16-1.17,2.37-3.94,3.62-3.92C607,529.84,607.36,530.42,607.5,531.34Z" transform="translate(-486.28 -231.23)"/><path class="cls-2" d="M631.4,557.78c-.21,1-.73,2-2,1.9a2,2,0,0,1-1.82-2.19c.05-1.35.76-2.54,2.28-2.28C631,555.4,631.46,556.49,631.4,557.78Z" transform="translate(-486.28 -231.23)"/><path class="cls-2" d="M562.57,535.08c.85.12,1.95.14,1.95,1.27,0,1.57-1.3,1.92-2.58,2-.94,0-1.85-.27-1.91-1.35C559.94,535.22,561.3,535.17,562.57,535.08Z" transform="translate(-486.28 -231.23)"/><path class="cls-2" d="M595.45,524.81a1.58,1.58,0,0,1,1.83,1.51,1.9,1.9,0,0,1-2,2,1.29,1.29,0,0,1-1.5-1.19A2,2,0,0,1,595.45,524.81Z" transform="translate(-486.28 -231.23)"/><path class="cls-2" d="M598.77,533.53a2,2,0,0,1-1.78-2.29,1.33,1.33,0,0,1,1.46-1.29c1.17.07,2.15.66,2.13,2A1.65,1.65,0,0,1,598.77,533.53Z" transform="translate(-486.28 -231.23)"/><path class="cls-2" d="M584.71,537.28a16.21,16.21,0,0,1-.43,2.63,1.79,1.79,0,0,1-2,1.42,1.75,1.75,0,0,1-1.41-1.46,1.78,1.78,0,0,1,1.26-2.1,16.11,16.11,0,0,1,2.62-.45Z" transform="translate(-486.28 -231.23)"/><path class="cls-2" d="M627.83,563.39c-.14,1-.68,1.69-1.68,1.65a1.86,1.86,0,0,1-1.82-2.12,1.32,1.32,0,0,1,1.36-1.32A1.9,1.9,0,0,1,627.83,563.39Z" transform="translate(-486.28 -231.23)"/><path class="cls-2" d="M610.57,556.8c-.24.93-1.08,1.19-2,1.11s-1.75-.62-1.59-1.73,1.09-1.37,2-1.28A1.54,1.54,0,0,1,610.57,556.8Z" transform="translate(-486.28 -231.23)"/><path class="cls-2" d="M570.58,501.4c.77,0,1.62.28,1.73,1.35s-.62,1.55-1.61,1.61-1.81-.28-1.92-1.33S569.4,501.5,570.58,501.4Z" transform="translate(-486.28 -231.23)"/><path class="cls-2" d="M599.74,549.76a1.88,1.88,0,0,1,2,1.34c.31,1.29-.55,2-1.75,2.06a1.65,1.65,0,0,1-1.81-1.54C598.09,550.56,598.89,550.1,599.74,549.76Z" transform="translate(-486.28 -231.23)"/><path class="cls-2" d="M592.14,543.2a1.33,1.33,0,0,1-1.08,1.55,1.27,1.27,0,0,1-1.66-.86,1.33,1.33,0,0,1,1.25-1.86A1.3,1.3,0,0,1,592.14,543.2Z" transform="translate(-486.28 -231.23)"/><path class="cls-2" d="M599.76,495a1.23,1.23,0,0,1,1.12,1.42,1.4,1.4,0,0,1-1.88,1.31,1.25,1.25,0,0,1-.92-1.64C598.27,495.26,598.88,495,599.76,495Z" transform="translate(-486.28 -231.23)"/><path class="cls-3" d="M828,678a3.66,3.66,0,0,1-2.2,3.38A4.4,4.4,0,0,1,828,678Z" transform="translate(-486.28 -231.23)"/><path class="cls-3" d="M570.09,595.42c3.74-3.15,8.15-1.1,12.29-1.44-3.83,3.83-8.43,4.17-13.4,2.9Z" transform="translate(-486.28 -231.23)"/><path class="cls-3" d="M917.2,499.72c-1.09-3.8-2.2-7.6-3.25-11.42a1.48,1.48,0,0,1,.61-1.85c.76-.39,1.35.07,1.84.63a78.73,78.73,0,0,1,5.62,6.53c1.11,1.58,2.19,3.77-1.28,4.25C918.62,496.7,918.72,499.74,917.2,499.72Z" transform="translate(-486.28 -231.23)"/><path class="cls-3" d="M951,490.77c-3.43,2.85-3.43,2.85-1.77,6.09-1.1,1-3.49,1.51-3.72,1.18a43.44,43.44,0,0,1-3.29-6.47Z" transform="translate(-486.28 -231.23)"/><path class="cls-1" d="M917.2,499.72c1.52,0,1.42-3,3.54-1.86-1.47,1.07-1.08,2.53-.85,4s1.2,2.68.4,4.54A8.53,8.53,0,0,1,917.2,499.72Z" transform="translate(-486.28 -231.23)"/><path class="cls-3" d="M930.44,500.87c-.28.29-.16,1.12-1,.7s-2-.78-2.25-1.94c-.06-.34.53-.77,1.15-.72A2.16,2.16,0,0,1,930.44,500.87Z" transform="translate(-486.28 -231.23)"/><path class="cls-1" d="M936,463.14a12.54,12.54,0,0,1,1.09-1.2c.26-.23.84-.54.91-.46.66.68-.17.89-.51,1.1a6.27,6.27,0,0,1-1.53.52Z" transform="translate(-486.28 -231.23)"/><path class="cls-1" d="M934.93,464.24l1.1-1.1,0,0-1.1,1.1Z" transform="translate(-486.28 -231.23)"/><polygon class="cls-3" points="462.72 288.68 462.95 288.77 462.79 288.74 462.72 288.68"/><path class="cls-1" d="M591.25,553.65a2.16,2.16,0,0,1,2.24,1.12A1.78,1.78,0,0,1,591.25,553.65Z" transform="translate(-486.28 -231.23)"/><path class="cls-1" d="M667.65,442.41l-1.06.06c.23-.43.47-.85.71-1.27A1,1,0,0,1,667.65,442.41Z" transform="translate(-486.28 -231.23)"/><path class="cls-3" d="M671.93,378l0,1.78c-.77.17-1.34-.12-1.35-.91S671.15,377.74,671.93,378Z" transform="translate(-486.28 -231.23)"/><path class="cls-3" d="M597.84,367c3.22-1,5,1.46,7.61,2.8-4.4,1.61-6.32.87-7.83-2.73Z" transform="translate(-486.28 -231.23)"/><path class="cls-2" d="M607.22,376.8l-.54-.06c-.71,0-1.52.1-1.93-.65a1,1,0,0,1,.23-.91,1.46,1.46,0,0,1,2.29.37,3.12,3.12,0,0,1,.26,1.05Z" transform="translate(-486.28 -231.23)"/><path class="cls-3" d="M551.5,547.05c-1.14,1.76-2.34,3.37-4.8,2.06-1.36-1-3.49-.9-4.14-2.87.75-1.16,2-.49,2.93-1a1.58,1.58,0,0,0,2-.44l2.53.1Z" transform="translate(-486.28 -231.23)"/><path class="cls-2" d="M547.5,544.83a1.58,1.58,0,0,1-2,.44c-.51-.65-1.26-1.44,0-2S547,544.07,547.5,544.83Z" transform="translate(-486.28 -231.23)"/><path class="cls-2" d="M608.33,420.71c-.21.87-.89.92-1.59.84-.54-.07-1-.35-.91-1,.15-.88.83-1,1.56-.84C607.9,419.83,608.36,420.05,608.33,420.71Z" transform="translate(-486.28 -231.23)"/><path class="cls-3" d="M555.75,454.38c.66-1.54.51-3.44,2-4.62.45.83.94.73,1.46.07l.39-.13c2.65,1.26,2.65,1.26,2.95,5.39Z" transform="translate(-486.28 -231.23)"/><path class="cls-1" d="M559.21,449.83c-.52.66-1,.76-1.46-.07Z" transform="translate(-486.28 -231.23)"/><path class="cls-3" d="M543.31,584.2c-.29,1.29-1.29,1.18-2.25,1.13C541.17,583.69,542,583.48,543.31,584.2Z" transform="translate(-486.28 -231.23)"/><path class="cls-1" d="M737.48,523.09c-3.2-2.05-5.2-4.78-5.45-9.6,3.58,3,5.12,6,5.4,9.66Z" transform="translate(-486.28 -231.23)"/><path class="cls-1" d="M737.43,523.15c.15.06.43.14.43.18,0,.34-.19.25-.38-.24Z" transform="translate(-486.28 -231.23)"/></svg>